<svg width="368" height="298" viewBox="0 0 368 298" fill="none" xmlns="http://www.w3.org/2000/svg">
<path d="M172.1 77.1882C161.773 61.0656 159.856 59.4109 159.856 53.4856C159.856 45.3692 165.966 38.7896 173.503 38.7896C181.039 38.7896 187.149 45.3692 187.149 53.4856C187.149 59.4109 185.232 61.0656 174.905 77.1882C174.227 78.2425 172.778 78.2424 172.1 77.1882ZM173.503 59.6089C176.643 59.6089 179.189 56.8674 179.189 53.4856C179.189 50.1038 176.643 47.3623 173.503 47.3623C170.362 47.3623 167.817 50.1038 167.817 53.4856C167.817 56.8674 170.362 59.6089 173.503 59.6089Z" fill="#FFC898"/>
<path d="M180.15 53.1358C180.15 56.421 177.33 59.0842 173.852 59.0842C170.374 59.0842 167.554 56.421 167.554 53.1358C167.554 49.8506 170.374 47.1874 173.852 47.1874C177.33 47.1874 180.15 49.8506 180.15 53.1358Z" fill="white"/>
<path fill-rule="evenodd" clip-rule="evenodd" d="M97.9465 1L98.1287 1.17485L49.7308 51.4583L65.3728 96.3108L116.853 79.9365L191.973 91.9138L214.528 10.8944L214.772 10.962L192.225 91.9538L327.279 113.487L366.781 44.4251L367 44.5503L327.447 113.703L155.489 282.518L143.133 297.019L127.614 275.552L107.144 216.853L22.6173 239.125L27.0328 267.526L26.7831 267.564L1 101.724L97.9465 1ZM22.5784 238.874L107.06 216.614L65.2151 96.6258L48.6581 101.892H1.28191L22.5784 238.874ZM1.43112 101.64H48.6189L65.132 96.3874L49.5344 51.6624L1.43112 101.64ZM65.456 96.5492L107.305 216.55L161.232 202.341L191.905 92.1585L116.872 80.1952L65.456 96.5492ZM192.156 92.1985L161.437 202.548L107.389 216.789L127.841 275.434L143.149 296.611L155.3 282.35L155.304 282.346L327.079 113.711L192.156 92.1985Z" fill="black" stroke="black"/>
<path d="M219.847 77.1658L232.696 79.2904L231.454 86.7985L230.211 86.5929L231.257 80.2644L220.848 78.5431L219.788 84.9512L218.593 84.7535L219.847 77.1658ZM219.589 82.691L231.273 84.6233L231.081 85.7869L219.396 83.8547L219.589 82.691ZM226.09 75.2666L227.333 75.4723L224.911 90.1217L223.667 89.9161L226.09 75.2666Z" fill="black"/>
<path d="M245.131 78.7594L246.391 78.9677L244.35 91.3057L243.091 91.0975L245.131 78.7594ZM238.962 81.3092L240.173 81.5096L238.409 92.1738L237.198 91.9735L238.962 81.3092ZM250.378 83.1807L251.605 83.3837L249.849 94.0002L248.622 93.7972L250.378 83.1807ZM238.204 89.5524L249.57 91.4319L249.367 92.6594L238.001 90.7798L238.204 89.5524Z" fill="black"/>
<path d="M263.344 94.7906L268.604 95.6605L268.43 96.7126L263.17 95.8427L263.344 94.7906ZM266.005 83.5541L270.213 84.25L270.042 85.2862L265.833 84.5902L266.005 83.5541ZM263.562 90.6015L269.827 91.6374L268.885 97.3283L267.738 97.1385L268.507 92.4838L264.49 91.8195L263.713 96.522L262.613 96.3401L263.562 90.6015ZM269.783 84.1788L269.99 84.2131L270.221 84.2022L270.933 84.6475C269.057 88.366 265.708 90.4978 262.466 91.2882C262.367 90.9934 262.117 90.5263 261.915 90.2636C264.915 89.6462 268.161 87.5463 269.748 84.3861L269.783 84.1788ZM266.547 81.957L267.65 82.4178C266.574 84.4671 265.06 86.2965 263.518 87.4008C263.361 87.1619 262.962 86.7029 262.704 86.4801C264.209 85.5007 265.617 83.8175 266.547 81.957ZM265.849 84.1998C266.396 86.6322 268.079 89.7272 271.141 91.5109C270.849 91.6919 270.438 92.0989 270.229 92.3754C267.179 90.4136 265.552 87.1804 264.96 84.7241L265.849 84.1998ZM257.295 87.6982L258.299 87.8642L257.342 93.6507L256.338 93.4846L257.295 87.6982ZM259.249 82.5187L258.785 85.3243L261.781 85.8199L262.245 83.0143L259.249 82.5187ZM258.355 81.29L263.535 82.1468L262.723 87.0565L257.543 86.1997L258.355 81.29ZM259.877 86.0454L260.961 86.2247L259.757 93.5095L258.673 93.3303L259.877 86.0454ZM255.53 93.22C257.161 93.1622 259.644 92.9997 262.029 92.8373L261.964 93.9238C259.691 94.1046 257.303 94.2829 255.561 94.4206L255.53 93.22ZM259.791 88.9461L262.485 89.3916L262.308 90.4596L259.614 90.0141L259.791 88.9461Z" fill="black"/>
<path d="M287.606 170.098L296.83 179.291L291.458 184.681L290.566 183.792L295.094 179.249L287.621 171.801L283.036 176.401L282.177 175.546L287.606 170.098ZM284.186 174.446L292.575 182.806L291.742 183.641L283.354 175.281L284.186 174.446ZM293.791 172.179L294.683 173.068L284.202 183.586L283.309 182.696L293.791 172.179Z" fill="black"/>
<path d="M269.833 187.771L279.309 197.215L278.477 198.05L269.001 188.607L269.833 187.771ZM270.911 196.601L274.973 200.65L274.129 201.497L270.067 197.448L270.911 196.601ZM261.084 195.681L271.372 205.934L270.54 206.77L260.251 196.516L261.084 195.681ZM274.069 192.608L274.961 193.498L266.544 201.944L265.652 201.054L274.069 192.608ZM268.035 191.842L268.916 192.72L263.088 198.568L262.207 197.69L268.035 191.842Z" fill="black"/>
<path d="M247.527 220.247L251.304 224.011L250.551 224.766L246.774 221.002L247.527 220.247ZM256.22 212.646L259.241 215.657L258.5 216.401L255.479 213.39L256.22 212.646ZM250.138 216.964L254.635 221.446L250.564 225.532L249.74 224.71L253.07 221.369L250.186 218.494L246.821 221.87L246.032 221.084L250.138 216.964ZM258.932 215.349L259.081 215.498L259.275 215.623L259.597 216.399C255.91 218.336 251.945 218.126 248.847 216.886C248.938 216.589 249.005 216.063 248.993 215.732C251.794 216.972 255.656 217.149 258.784 215.498L258.932 215.349ZM257.589 211.661L258.219 212.677C256.153 213.72 253.858 214.33 251.961 214.333C251.972 214.047 251.914 213.442 251.834 213.111C253.627 213.188 255.751 212.636 257.589 211.661ZM255.718 213.081C254.751 215.379 254.322 218.876 255.779 222.107C255.436 222.084 254.865 222.177 254.534 222.28C253.191 218.912 253.745 215.335 254.69 212.992L255.718 213.081ZM246.723 210.96L247.444 211.678L243.304 215.833L242.583 215.114L246.723 210.96ZM251.322 207.879L249.315 209.893L251.466 212.037L253.474 210.023L251.322 207.879ZM251.308 206.359L255.027 210.066L251.514 213.591L247.795 209.884L251.308 206.359ZM249.785 211.115L250.563 211.89L245.351 217.12L244.573 216.345L249.785 211.115ZM242.079 214.43C243.44 215.33 245.556 216.64 247.592 217.893L246.908 218.74C244.952 217.566 242.905 216.325 241.407 215.425L242.079 214.43ZM248.03 213.426L249.964 215.353L249.2 216.12L247.265 214.192L248.03 213.426Z" fill="black"/>
<path d="M199.561 117.773L200.734 118.079L199.217 123.895C199.082 124.411 199.163 124.549 199.773 124.708C200.07 124.785 201.461 125.148 201.837 125.246C202.446 125.405 202.638 125.054 203.303 122.823C203.501 123.092 203.963 123.43 204.256 123.589C203.446 126.117 202.954 126.723 201.625 126.376C201.328 126.299 199.64 125.859 199.358 125.785C197.951 125.418 197.694 124.934 198.044 123.589L199.561 117.773ZM195.413 116.775L196.649 117.097C195.442 120.572 194.022 123.007 189.677 123.277C189.609 122.959 189.392 122.384 189.203 122.084C193.237 121.918 194.36 119.789 195.413 116.775ZM194.018 110.283L195.163 110.181C195.65 111.577 196.059 113.403 196.083 114.528L194.839 114.688C194.842 113.587 194.477 111.722 194.018 110.283ZM204.436 112.399L205.537 113.17C204.526 114.359 203.246 115.745 202.293 116.582L201.399 115.915C202.344 115.042 203.656 113.531 204.436 112.399ZM191.444 114.771L205.421 118.417L205.132 119.527L191.155 115.881L191.444 114.771ZM199.338 110.435L200.526 110.745L198.846 117.186L197.658 116.876L199.338 110.435Z" fill="black"/>
<path d="M192.776 136.362L193.864 136.93C192.758 138.545 191.293 139.999 189.952 140.852C189.782 140.607 189.371 140.133 189.111 139.914C190.475 139.168 191.813 137.814 192.776 136.362ZM192.266 137.932L199.818 139.902L199.561 140.887L191.493 138.783L192.266 137.932ZM191.532 142.733L191.25 143.812L196.191 145.101L196.472 144.022L191.532 142.733ZM192.009 140.904L191.731 141.967L196.672 143.256L196.949 142.193L192.009 140.904ZM191.158 139.814L198.256 141.665L197.069 146.215L189.971 144.363L191.158 139.814ZM191.846 144.535L192.801 145.101C191.533 146.44 189.673 147.425 188.007 147.925C187.888 147.677 187.579 147.196 187.39 146.963C189.028 146.572 190.737 145.715 191.846 144.535ZM190.954 146.356C191.657 148.527 193.984 150.553 197.098 151.799C196.787 151.969 196.368 152.36 196.138 152.601C192.958 151.22 190.731 149.003 189.939 146.409L190.954 146.356ZM191.152 145.79L195.983 147.05L195.759 147.91L190.208 146.462L191.152 145.79ZM195.67 146.968L195.905 147.03L196.12 147.036L196.741 147.599C194.521 150.158 190.695 150.613 186.964 150.258C186.944 149.952 186.823 149.453 186.69 149.134C190.161 149.589 193.793 149.234 195.625 147.14L195.67 146.968ZM188.751 138.735L189.712 139.403C188.144 140.998 186.009 142.462 184.15 143.313C184.106 143.034 183.905 142.397 183.751 142.09C185.483 141.406 187.396 140.152 188.751 138.735ZM189.219 135.468L190.16 136.147C188.911 137.224 187.058 138.31 185.485 138.902C185.389 138.627 185.198 138.143 185.052 137.871C186.488 137.36 188.241 136.398 189.219 135.468ZM186.585 141.276L187.788 140.571L187.924 140.69L185.518 149.914L184.408 149.625L186.585 141.276Z" fill="black"/>
<path d="M183.613 175.27L188.772 176.615L188.503 177.647L183.344 176.301L183.613 175.27ZM187.287 164.322L191.414 165.399L191.149 166.415L187.022 165.339L187.287 164.322ZM184.212 171.118L190.356 172.72L188.9 178.302L187.775 178.008L188.965 173.443L185.026 172.415L183.823 177.027L182.744 176.746L184.212 171.118ZM190.992 165.289L191.195 165.342L191.426 165.352L192.095 165.86C189.888 169.392 186.358 171.21 183.058 171.702C182.986 171.399 182.78 170.911 182.602 170.631C185.647 170.29 189.071 168.494 190.939 165.492L190.992 165.289ZM187.972 162.781L189.029 163.341C187.771 165.283 186.096 166.967 184.46 167.926C184.325 167.674 183.97 167.181 183.733 166.935C185.321 166.097 186.877 164.549 187.972 162.781ZM187.073 164.951C187.396 167.423 188.79 170.659 191.677 172.714C191.37 172.868 190.923 173.236 190.689 173.492C187.831 171.26 186.506 167.892 186.139 165.392L187.073 164.951ZM178.235 167.655L179.22 167.912L177.74 173.588L176.755 173.331L178.235 167.655ZM180.653 162.676L179.935 165.427L182.875 166.194L183.592 163.442L180.653 162.676ZM179.875 161.371L184.956 162.696L183.7 167.511L178.619 166.186L179.875 161.371ZM180.958 166.245L182.021 166.522L180.157 173.667L179.094 173.39L180.958 166.245ZM175.975 172.994C177.604 173.085 180.092 173.149 182.482 173.205L182.318 174.281C180.038 174.254 177.644 174.214 175.896 174.192L175.975 172.994ZM180.607 169.126L183.249 169.815L182.976 170.862L180.334 170.173L180.607 169.126Z" fill="black"/>
<path d="M85.6045 111.937L86.8237 111.801C86.8076 113.759 86.4041 115.783 85.7672 117.239C85.4896 117.131 84.8841 116.966 84.5463 116.931C85.2611 115.55 85.6158 113.68 85.6045 111.937ZM86.058 113.525L93.4229 110.944L93.7595 111.905L85.8914 114.662L86.058 113.525ZM88.1281 117.918L88.4967 118.971L93.3152 117.282L92.9465 116.23L88.1281 117.918ZM87.503 116.134L87.8663 117.171L92.6848 115.483L92.3215 114.446L87.503 116.134ZM86.1883 115.705L93.111 113.279L94.6657 117.717L87.743 120.142L86.1883 115.705ZM89.3951 119.238L90.5029 119.175C90.1986 120.994 89.2049 122.848 88.1012 124.194C87.864 124.054 87.3393 123.827 87.0519 123.74C88.1929 122.501 89.1333 120.836 89.3951 119.238ZM89.671 121.247C91.4656 122.656 94.5272 123.038 97.8072 122.334C97.6434 122.648 97.514 123.207 97.4577 123.535C94.0487 124.164 90.9634 123.568 88.8576 121.857L89.671 121.247ZM89.5191 120.667L94.2308 119.016L94.5246 119.855L89.1115 121.751L89.5191 120.667ZM93.9258 119.123L94.1545 119.043L94.3367 118.927L95.1664 119.048C94.7527 122.411 91.8324 124.924 88.5382 126.711C88.3505 126.469 87.9722 126.122 87.6832 125.933C90.8173 124.372 93.6332 122.05 93.9846 119.291L93.9258 119.123ZM83.5891 116.153L84.7595 116.171C84.3485 118.37 83.3939 120.776 82.327 122.519C82.1348 122.312 81.6123 121.896 81.3134 121.727C82.3681 120.193 83.2558 118.085 83.5891 116.153ZM82.1538 113.181L83.3144 113.219C82.8788 114.81 81.9476 116.746 80.9721 118.115C80.7395 117.939 80.3108 117.644 80.0378 117.5C80.944 116.275 81.8622 114.498 82.1538 113.181ZM83.2105 119.47L83.8147 118.214L83.9939 118.237L87.146 127.234L86.0634 127.613L83.2105 119.47Z" fill="black"/>
<path d="M91.2645 148.907L105.14 144.045L105.514 145.113L91.6385 149.974L91.2645 148.907ZM94.5449 140.191L97.1676 139.272L97.4508 140.08L94.8281 140.999L94.5449 140.191ZM98.1771 136.778L100.647 135.912L100.984 136.873L98.5137 137.739L98.1771 136.778ZM99.3043 139.653L101.546 138.868L101.877 139.813L99.6355 140.598L99.3043 139.653ZM100.273 142.515L102.499 141.735L102.83 142.68L100.604 143.46L100.273 142.515ZM90.8567 142.613L93.1135 141.822L93.4447 142.767L91.188 143.558L90.8567 142.613ZM91.9321 145.437L94.0973 144.679L94.4285 145.624L92.2633 146.383L91.9321 145.437ZM92.5505 138.749L97.8416 136.895L101.031 145.999L100.132 146.314L97.2572 138.11L93.7349 139.344L96.6092 147.548L95.74 147.853L92.5505 138.749ZM96.1691 142.481L96.885 144.524L97.9981 144.134L97.2822 142.091L96.1691 142.481ZM95.3126 141.942L97.6303 141.13L98.8698 144.667L96.5521 145.479L95.3126 141.942ZM89.3796 139.912L90.7773 139.747C90.7941 139.844 90.7239 139.937 90.5516 140.032L93.8134 148.51L92.8223 148.858L89.3796 139.912ZM100.037 136.126L101.059 135.768C102.06 138.722 103.348 142.79 103.966 145.09L102.975 145.438C102.341 143.092 101.062 139.003 100.037 136.126ZM91.7154 138.271L92.8227 138.842C92.139 139.578 91.2464 140.353 90.4841 140.963C90.343 140.755 90.0676 140.458 89.8655 140.272C90.5408 139.659 91.3 138.845 91.7154 138.271ZM100.317 148.064L100.873 147.013C102.838 147.197 105.056 147.567 106.426 147.909L105.636 149.076C104.343 148.707 102.247 148.295 100.317 148.064ZM96.1254 148.659L97.4538 148.981C96.5956 150.343 95.104 152.047 93.8744 153.18C93.5808 153.026 93.0562 152.799 92.7069 152.682C93.9822 151.533 95.4738 149.829 96.1254 148.659Z" fill="black"/>
<path d="M108.566 174.59L113.598 172.827L113.951 173.833L108.919 175.596L108.566 174.59ZM105.504 163.456L109.53 162.046L109.877 163.037L105.852 164.447L105.504 163.456ZM106.746 170.811L112.738 168.711L114.646 174.155L113.548 174.539L111.988 170.087L108.145 171.433L109.721 175.932L108.669 176.3L106.746 170.811ZM109.118 162.19L109.316 162.12L109.514 162L110.353 162.048C110.493 166.211 108.579 169.689 106.114 171.94C105.886 171.728 105.442 171.439 105.139 171.305C107.474 169.323 109.313 165.922 109.188 162.388L109.118 162.19ZM105.213 161.795L106.402 161.669C106.442 163.983 105.993 166.315 105.17 168.024C104.918 167.89 104.347 167.679 104.014 167.608C104.864 166.026 105.291 163.873 105.213 161.795ZM105.678 164.097C107.326 165.968 110.288 167.875 113.831 167.969C113.662 168.268 113.496 168.822 113.445 169.165C109.829 168.909 106.849 166.854 105.149 164.984L105.678 164.097ZM99.8545 171.274L100.815 170.937L102.754 176.472L101.794 176.809L99.8545 171.274ZM99.081 165.792L100.021 168.476L102.888 167.472L101.948 164.788L99.081 165.792ZM97.7068 165.144L102.662 163.408L104.308 168.104L99.3523 169.84L97.7068 165.144ZM101.326 168.584L102.363 168.221L104.804 175.189L103.768 175.552L101.326 168.584ZM100.958 176.965C102.361 176.131 104.461 174.796 106.475 173.508L106.94 174.492C105.033 175.742 103.024 177.046 101.562 178.003L100.958 176.965ZM102.643 171.17L105.22 170.267L105.578 171.289L103.001 172.191L102.643 171.17Z" fill="black"/>
<path d="M19.5551 129.735L20.8136 129.522L21.3178 132.501L20.0593 132.714L19.5551 129.735ZM20.14 133.093L21.3666 132.886L23.2972 144.292L22.0705 144.5L20.14 133.093ZM13.4569 133.11L27.8104 130.681L28.0072 131.844L13.6538 134.273L13.4569 133.11ZM15.664 136.178L26.1304 134.407L26.3272 135.569L17.0556 137.139L18.0641 143.097L16.8693 143.299L15.664 136.178ZM25.6684 134.485L26.8951 134.277L27.8442 139.885C27.9601 140.57 27.8628 140.963 27.3722 141.259C26.847 141.545 25.9575 141.712 24.5875 141.943C24.4777 141.585 24.2056 141.14 23.9738 140.835C25.0625 140.683 26.0342 140.519 26.3023 140.457C26.5864 140.392 26.6553 140.315 26.6175 140.092L25.6684 134.485Z" fill="black"/>
<path d="M25.6014 161.391L26.828 161.183C27.8195 165.686 30.553 168.959 32.5735 168.601C33.0647 168.502 33.1294 167.819 32.9205 166.101C33.2477 166.291 33.7342 166.455 34.0849 166.494C34.2928 168.884 33.9041 169.589 32.7253 169.788C29.7781 170.287 26.7456 166.408 25.6014 161.391ZM21.1923 164.677L33.0925 162.663L33.2812 163.778L21.3811 165.792L21.1923 164.677ZM19.831 170.479C21.7368 169.927 24.7386 168.977 27.5679 168.072L27.8125 169.227C25.1452 170.121 22.2841 171.031 20.3122 171.676L19.831 170.479ZM19.4114 157.834L20.6221 157.629L22.7738 170.342L21.5631 170.547L19.4114 157.834ZM20.0167 157.732L30.738 155.917L31.5469 160.696L20.8256 162.511L20.6369 161.396L30.1474 159.786L29.716 157.237L20.2055 158.847L20.0167 157.732Z" fill="black"/>
<path d="M31.8607 195.371L37.1178 194.481L37.2957 195.533L32.0387 196.422L31.8607 195.371ZM30.7188 183.88L34.9245 183.169L35.0997 184.204L30.8941 184.916L30.7188 183.88ZM30.703 191.339L36.9638 190.279L37.9264 195.967L36.7794 196.161L35.992 191.509L31.9775 192.189L32.7729 196.888L31.6737 197.074L30.703 191.339ZM34.4943 183.241L34.7014 183.206L34.9164 183.121L35.735 183.31C35.1716 187.437 32.6985 190.543 29.8901 192.345C29.7009 192.099 29.3122 191.738 29.0355 191.556C31.6718 189.995 34.0574 186.953 34.5294 183.448L34.4943 183.241ZM30.7119 182.194L31.9047 182.27C31.5546 184.558 30.7181 186.781 29.6197 188.327C29.3935 188.152 28.8668 187.848 28.5504 187.721C29.6544 186.306 30.4382 184.256 30.7119 182.194ZM30.7816 184.542C32.0911 186.663 34.6896 189.042 38.1656 189.732C37.9485 189.998 37.6922 190.517 37.5841 190.846C34.0624 189.984 31.4715 187.456 30.1115 185.327L30.7816 184.542ZM23.8323 190.634L24.8359 190.464L25.8147 196.247L24.8111 196.417L23.8323 190.634ZM23.9936 185.101L24.4682 187.904L27.4632 187.397L26.9886 184.594L23.9936 185.101ZM22.7483 184.23L27.9258 183.354L28.7562 188.26L23.5788 189.136L22.7483 184.23ZM25.736 188.231L26.8193 188.047L28.0516 195.327L26.9683 195.511L25.736 188.231ZM23.9611 196.429C25.4843 195.844 27.7795 194.882 29.9818 193.952L30.274 195C28.1832 195.912 25.9836 196.857 24.381 197.555L23.9611 196.429ZM26.5983 191.001L29.2906 190.546L29.4713 191.613L26.779 192.069L26.5983 191.001Z" fill="black"/>
</svg>
