<svg width="292" height="64" viewBox="0 0 292 64" fill="none" xmlns="http://www.w3.org/2000/svg">
<path d="M25.7365 33.344H33.6725V61.76H25.7365V33.344ZM19.2725 25.536V29.504H38.3445V25.536H19.2725ZM11.9125 20.096H46.2165V34.944H11.9125V20.096ZM5.76847 38.784H48.8405V45.632H13.5125V58.944H5.76847V38.784ZM45.1925 38.784H53.0645V51.968C53.0645 55.424 52.3605 57.408 49.8005 58.496C47.2405 59.584 43.7845 59.648 39.1765 59.648C38.7925 57.536 37.7045 54.592 36.6805 52.672C39.5605 52.8 43.0165 52.8 43.9125 52.8C44.8725 52.736 45.1925 52.544 45.1925 51.84V38.784ZM24.9045 1.6H32.8405V13.376H24.9045V1.6ZM1.48047 10.432H56.7125V25.92H49.0965V17.024H8.84047V25.92H1.48047V10.432ZM6.60047 4.8L13.5765 2.048C15.4325 4.096 17.3525 6.912 18.2485 8.896L10.8885 12.16C10.1845 10.112 8.32847 6.976 6.60047 4.8ZM44.0405 2.112L52.2965 4.608C49.9925 7.296 47.6885 9.792 45.8965 11.456L39.4325 9.152C41.0325 7.168 42.9525 4.224 44.0405 2.112Z" fill="white"/>
<path d="M92.3605 20.544V24.512H119.24V20.544H92.3605ZM92.3605 30.784V34.752H119.24V30.784H92.3605ZM92.3605 10.368V14.336H119.24V10.368H92.3605ZM84.9365 3.648H127.048V41.472H84.9365V3.648ZM108.744 36.288H116.552V51.648C116.552 53.696 117 54.016 119.304 54.016C120.392 54.016 124.68 54.016 126.024 54.016C128.264 54.016 128.648 52.928 128.968 45.376C130.504 46.656 133.896 47.936 136.008 48.448C135.176 58.624 133.128 61.248 126.728 61.248C125.128 61.248 119.752 61.248 118.28 61.248C110.6 61.248 108.744 58.944 108.744 51.648V36.288ZM93.0645 38.912H101.32C100.232 50.56 97.2245 58.112 79.9445 62.016C79.3045 59.968 77.2565 56.832 75.6565 55.168C90.5045 52.416 92.2325 47.488 93.0645 38.912Z" fill="white"/>
<path d="M173.192 32.512H194.824V52.672H173.192V46.4H187.656V38.784H173.192V32.512ZM169.928 32.512H177.032V56.32H169.928V32.512ZM159.432 13.376H175.496V18.624H159.432V13.376ZM189.128 13.376H205.32V18.624H189.128V13.376ZM202.12 4.096H209.864V52.544C209.864 56.896 208.968 59.072 206.344 60.352C203.656 61.632 199.624 61.76 193.736 61.76C193.48 59.584 192.2 55.936 191.112 53.952C194.824 54.144 199.24 54.08 200.456 54.08C201.672 54.08 202.12 53.632 202.12 52.48V4.096ZM160.072 4.096H180.296V28.096H160.072V22.208H173.128V9.984H160.072V4.096ZM206.28 4.096V9.92H191.944V22.336H206.28V28.16H184.648V4.096H206.28ZM155.656 4.096H163.272V61.76H155.656V4.096Z" fill="white"/>
<path d="M239.88 17.152V20.224H248.968V17.152H239.88ZM239.88 9.28V12.288H248.968V9.28H239.88ZM233.096 4.16H256.072V25.408H233.096V4.16ZM230.088 29.056H258.952V34.688H230.088V29.056ZM258.696 4.352H288.2V9.728H258.696V4.352ZM242.056 30.848H248.456V56.576L242.056 52.864V30.848ZM245.384 39.872H257.8V45.376H245.384V39.872ZM271.048 5.632L278.024 7.168C276.488 10.752 274.824 14.592 273.48 17.088L268.04 15.68C269.192 12.8 270.408 8.64 271.048 5.632ZM267.528 26.24V29.248H279.176V26.24H267.528ZM267.528 34.112V37.184H279.176V34.112H267.528ZM267.528 18.304V21.312H279.176V18.304H267.528ZM260.68 13.12H286.28V42.432H260.68V13.12ZM265.864 42.88L272.2 44.8C269.448 48.448 264.904 52.096 260.936 54.272C259.848 53.056 257.416 50.816 256.008 49.792C259.848 48.128 263.688 45.504 265.864 42.88ZM233.032 37.184H239.176C238.856 46.976 237.896 56.384 233.032 62.144C232.136 60.544 230.088 58.112 228.552 56.96C232.2 52.48 232.84 44.928 233.032 37.184ZM238.152 42.56C241.736 53.312 249.736 54.4 262.792 54.464C267.08 54.464 284.744 54.464 289.992 54.208C288.968 55.68 287.88 58.624 287.496 60.544H262.792C246.92 60.544 238.152 58.368 233.608 43.904L238.152 42.56ZM274.952 45.184L280.2 42.432C283.656 44.672 287.624 48.128 289.608 50.56L284.104 53.824C282.12 51.264 278.152 47.552 274.952 45.184Z" fill="white"/>
<path fill-rule="evenodd" clip-rule="evenodd" d="M33.6725 34.944V38.784H53.0645V51.968C53.0645 55.424 52.3605 57.408 49.8005 58.496C47.2405 59.584 43.7845 59.648 39.1765 59.648C38.8556 57.8832 38.0432 55.5375 37.1873 53.6938C37.0189 53.331 36.8488 52.9877 36.6805 52.672C37.0552 52.6887 37.4398 52.7031 37.8271 52.7158C40.4166 52.8 43.1331 52.8 43.9125 52.8C44.8725 52.736 45.1925 52.544 45.1925 51.84V45.632H33.6725V61.76H25.7365V45.632H13.5125V58.944H5.76847V38.784H25.7365V34.944H11.9125V20.096H46.2165V34.944H33.6725ZM24.7365 35.944H10.9125V19.096H47.2165V35.944H34.6725V37.784H54.0645V51.968C54.0645 53.7395 53.8887 55.2772 53.2988 56.5425C52.685 57.8594 51.6677 58.789 50.1916 59.4163C47.4049 60.6007 43.7191 60.648 39.1765 60.648H38.3419L38.1926 59.8269C37.8299 57.8319 36.7811 54.9858 35.7981 53.1426L34.9728 51.5951L36.7249 51.673C39.5443 51.7983 42.9296 51.8 43.878 51.8C44.0113 51.7905 44.1137 51.779 44.1925 51.7666V46.632H34.6725V62.76H24.7365V46.632H14.5125V59.944H4.76847V37.784H24.7365V35.944ZM23.9045 0.599998H33.8405V9.432H37.922L38.6541 8.52424C40.2132 6.59096 42.0957 3.70361 43.1515 1.65404L43.5328 0.913818L54.0537 4.09454L53.0557 5.25879C51.7889 6.73675 50.5163 8.16381 49.3232 9.432H57.7125V26.92H48.0965V18.024H9.84047V26.92H0.480469V9.432H8.49513C7.70998 8.04557 6.74789 6.59366 5.81736 5.42188L4.97809 4.36502L13.853 0.863923L14.3175 1.37648C16.2258 3.48224 18.2113 6.38411 19.1598 8.48441L19.5742 9.40198L19.5065 9.432H23.9045V0.599998ZM24.9045 10.432V1.6H32.8405V10.432H43.0236L39.4325 9.152C39.6435 8.89034 39.8601 8.61197 40.0796 8.32103C41.5244 6.40592 43.096 3.94545 44.0405 2.112L52.2965 4.608C52.0578 4.88643 51.8192 5.16281 51.5811 5.43641C50.3246 6.88031 49.084 8.24702 47.9428 9.432C47.6057 9.78209 47.2772 10.1163 46.9596 10.432H56.7125V25.92H49.0965V17.024H8.84047V25.92H1.48047V10.432H10.1547C9.99605 10.107 9.823 9.77211 9.6385 9.432C8.9455 8.15449 8.09092 6.80336 7.22984 5.62672C7.01968 5.33955 6.80914 5.06277 6.60047 4.8L13.5765 2.048C15.1672 3.80326 16.8049 6.12265 17.8047 7.99889C17.9714 8.31181 18.1204 8.6124 18.2485 8.896L14.7849 10.432H24.9045ZM38.3445 29.504V25.536H19.2725V29.504H38.3445ZM20.2725 28.504H37.3445V26.536H20.2725V28.504ZM101.037 41.472C100.993 41.8091 100.946 42.1424 100.896 42.472C99.4362 52.1171 95.3963 58.525 79.9445 62.016C79.4038 60.2859 77.8584 57.7794 76.427 56.0398C76.164 55.7201 75.9048 55.4263 75.6565 55.168C76.0496 55.0951 76.4336 55.0207 76.8086 54.9448C88.5074 52.5753 91.4738 48.6944 92.5989 42.472C92.658 42.1452 92.712 41.8119 92.7619 41.472H84.9365V3.648H127.048V41.472H116.552V51.648C116.552 53.696 117 54.016 119.304 54.016H126.024C128.139 54.016 128.6 53.0462 128.914 46.5822C128.933 46.1997 128.951 45.7979 128.968 45.376C129.24 45.6023 129.57 45.8286 129.94 46.0507C131.664 47.0846 134.27 48.0265 136.008 48.448C135.176 58.624 133.128 61.248 126.728 61.248H118.28C110.6 61.248 108.744 58.944 108.744 51.648V41.472H101.037ZM107.744 42.472H101.907C101.255 46.8759 100.069 50.7444 97.4871 53.9905C94.2382 58.075 88.9122 61.0152 80.1648 62.9914L79.2651 63.1947L78.99 62.3143C78.7078 61.4114 78.0883 60.2005 77.3161 58.9838C76.549 57.7751 75.6771 56.6322 74.9356 55.8611L73.649 54.523L75.4742 54.1847C82.8408 52.8194 86.7098 50.9499 88.8744 48.5537C90.3585 46.9108 91.1171 44.9405 91.5814 42.472H83.9365V2.648H128.048V42.472H117.552V51.648C117.552 52.1399 117.581 52.4461 117.63 52.6438C117.652 52.7357 117.675 52.7844 117.687 52.8073C117.698 52.8266 117.704 52.8316 117.708 52.8343C117.717 52.8422 117.793 52.9011 118.069 52.948C118.348 52.9953 118.739 53.016 119.304 53.016H126.024C126.529 53.016 126.743 52.9487 126.859 52.8773C126.949 52.8217 127.106 52.6849 127.27 52.2043C127.44 51.7086 127.579 50.958 127.693 49.8128C127.806 48.6791 127.889 47.2192 127.969 45.3337L128.055 43.3131L129.609 44.6078C130.258 45.1493 131.378 45.7432 132.658 46.2771C133.918 46.8029 135.244 47.2337 136.244 47.4762L137.075 47.6775L137.005 48.5295C136.59 53.6049 135.865 57.0745 134.262 59.2559C132.566 61.5651 130.051 62.248 126.728 62.248H118.28C114.415 62.248 111.644 61.6871 109.91 59.8754C108.188 58.0757 107.744 55.3001 107.744 51.648V42.472ZM92.3605 24.512V20.544H119.24V24.512H92.3605ZM118.24 23.512V21.544H93.3605V23.512H118.24ZM92.3605 34.752V30.784H119.24V34.752H92.3605ZM118.24 33.752V31.784H93.3605V33.752H118.24ZM92.3605 14.336V10.368H119.24V14.336H92.3605ZM118.24 13.336V11.368H93.3605V13.336H118.24ZM168.928 31.512V57.32H178.032V53.672H189.818L190.236 54.4328C191.275 56.3279 192.505 59.853 192.743 61.8768L192.847 62.76H193.736C196.678 62.76 199.201 62.7285 201.332 62.5318C203.46 62.3353 205.276 61.9686 206.774 61.2549L206.783 61.2508C208.281 60.52 209.345 59.4933 210.003 58.0045C210.64 56.5652 210.864 54.7663 210.864 52.544V3.096H183.648V29.16H201.12V52.48C201.12 52.8454 201.063 52.9682 201.047 52.9944C201.023 53.0095 200.887 53.08 200.456 53.08C200.265 53.08 199.999 53.0815 199.671 53.0834C198.759 53.0886 197.375 53.0965 195.824 53.0817V31.512H168.928ZM169.928 32.512V56.32H177.032V52.672H194.824V32.512H169.928ZM177.032 46.4H187.656V38.784H177.032V46.4ZM178.032 39.784V45.4H186.656V39.784H178.032ZM191.625 54.9777C191.453 54.6039 191.28 54.2581 191.112 53.952C191.491 53.9716 191.878 53.9885 192.267 54.0031C195.108 54.1097 198.118 54.0924 199.686 54.0834C200.009 54.0815 200.27 54.08 200.456 54.08C201.672 54.08 202.12 53.632 202.12 52.48V28.16H184.648V4.096H209.864V52.544C209.864 56.896 208.968 59.072 206.344 60.352C203.656 61.632 199.624 61.76 193.736 61.76C193.52 59.9198 192.571 57.0267 191.625 54.9777ZM202.12 9.92H191.944V13.376H202.12V9.92ZM201.12 12.376V10.92H192.944V12.376H201.12ZM202.12 22.336V18.624H191.944V22.336H202.12ZM192.944 21.336H201.12V19.624H192.944V21.336ZM163.272 13.376H173.128V9.984H163.272V13.376ZM164.272 10.984V12.376H172.128V10.984H164.272ZM163.272 18.624V22.208H173.128V18.624H163.272ZM164.272 19.624V21.208H172.128V19.624H164.272ZM163.272 61.76H155.656V4.096H180.296V28.096H163.272V61.76ZM164.272 29.096V62.76H154.656V3.096H181.296V29.096H164.272ZM232.096 3.16H257.072V26.408H232.096V3.16ZM229.088 28.056H259.68V12.12H268.25C268.398 11.6625 268.544 11.1965 268.685 10.728H257.696V3.352H289.2V10.728H277.576C277.372 11.196 277.167 11.6612 276.963 12.12H287.28V43.432H283.353C286.108 45.5192 288.818 48.0091 290.383 49.9279L291.117 50.8278L286.94 53.3053C288.153 53.2782 289.181 53.2464 289.944 53.2092L291.974 53.1101L290.813 54.7791C290.368 55.4193 289.874 56.438 289.437 57.5683C289.004 58.689 288.655 59.8491 288.477 60.7401L288.316 61.544H262.792C254.856 61.544 248.482 61.0098 243.508 58.5439C241.428 57.5125 239.616 56.1564 238.042 54.4011C237.113 57.5808 235.77 60.4525 233.796 62.7892L232.865 63.892L232.16 62.6326C231.325 61.1418 229.366 58.8201 227.952 57.76L227.12 57.1356L227.777 56.3286C229.451 54.273 230.48 51.4516 231.106 48.1119C231.73 44.7789 231.937 41.0217 232.033 37.1592L232.057 36.184H240.21L240.176 37.2167C240.1 39.5275 239.989 41.8299 239.798 44.077C240.179 44.9589 240.599 45.7553 241.056 46.4751V35.688H229.088V28.056ZM242.056 34.688V49.3488C241.708 48.9933 241.375 48.6133 241.056 48.2071C240.535 47.5407 240.054 46.8038 239.613 45.9891C239.317 45.4416 239.04 44.8589 238.78 44.2388C238.837 43.5979 238.886 42.9516 238.93 42.3007C238.941 42.1423 238.951 41.9835 238.961 41.8245C239.037 40.6231 239.095 39.4074 239.141 38.184C239.154 37.8512 239.166 37.5178 239.176 37.184H233.032C232.983 39.1908 232.903 41.1847 232.748 43.1156C232.719 43.479 232.688 43.8403 232.653 44.1989C232.2 48.8824 231.246 53.1281 229.129 56.1918C228.945 56.4568 228.754 56.713 228.553 56.9598C228.553 56.9599 228.553 56.9598 228.553 56.9598C228.735 57.0964 228.924 57.251 229.117 57.42C230.275 58.4304 231.591 59.9579 232.473 61.2509C232.688 61.5662 232.878 61.8675 233.032 62.144C233.263 61.8713 233.484 61.5904 233.697 61.3017C235.324 59.0979 236.461 56.438 237.263 53.4759C237.373 53.0673 237.478 52.6529 237.576 52.2333C237.83 52.5827 238.091 52.918 238.359 53.2396C243.496 59.3978 251.273 60.544 262.792 60.544H287.496C287.805 59.0039 288.566 56.8048 289.383 55.2352C289.585 54.8481 289.79 54.4992 289.992 54.208C289.641 54.2251 289.235 54.2411 288.78 54.256C287.787 54.2886 286.566 54.3161 285.196 54.3392C284.941 54.3436 284.682 54.3477 284.417 54.3517C284.087 54.3568 283.749 54.3616 283.405 54.3661C283.357 54.3668 283.309 54.3674 283.261 54.368C275.929 54.464 265.884 54.464 262.792 54.464C262.731 54.4637 262.669 54.4634 262.608 54.463C262.075 54.46 261.55 54.4552 261.033 54.448C260.937 54.4466 260.84 54.4452 260.745 54.4437C260.395 54.4382 260.05 54.4315 259.709 54.4235C255.784 54.3312 252.373 54.0614 249.456 53.329C249.116 53.2437 248.783 53.152 248.456 53.0536V45.376H257.8V39.872H248.456V34.688H258.952V29.056H230.088V34.688H242.056ZM249.456 35.688V38.872H258.8V46.376H249.456V52.2969C252.054 52.9805 255.103 53.2743 258.664 53.3932C257.574 52.3569 256.284 51.2289 255.42 50.6007L254.004 49.5707L255.611 48.8744C258.754 47.5126 261.861 45.5025 263.988 43.432H259.68V35.688H249.456ZM280.2 42.432L274.952 45.184C275.24 45.3966 275.533 45.62 275.831 45.8525C278.654 48.0572 281.855 51.0739 283.735 53.3616C283.865 53.5194 283.988 53.6737 284.104 53.824L289.608 50.56C289.407 50.3132 289.185 50.0559 288.946 49.7904C287.153 47.8034 284.362 45.357 281.667 43.432C281.172 43.0791 280.682 42.7438 280.2 42.432H286.28V13.12H275.415C275.565 12.7922 275.716 12.4584 275.867 12.12C276.072 11.6631 276.278 11.1979 276.484 10.728C276.63 10.3966 276.776 10.0628 276.921 9.728H288.2V4.352H258.696V9.728H270.02C269.926 10.0606 269.829 10.3946 269.729 10.728C269.59 11.195 269.447 11.6609 269.301 12.12C269.193 12.4577 269.084 12.7918 268.973 13.12H260.68V42.432H280.2ZM282.438 53.3783C280.363 51.0063 277.081 48.0031 274.358 45.9878L273.202 45.1327L272.999 45.4022C270.777 48.3477 267.458 51.2642 264.177 53.4638C268.077 53.4627 276.105 53.4533 282.438 53.3783ZM262.331 53.4613C265.617 51.4456 269.1 48.5811 271.533 45.6427C271.766 45.3623 271.988 45.0811 272.2 44.8L265.864 42.88C265.712 43.0641 265.551 43.2482 265.382 43.432C263.365 45.632 260.257 47.7845 257.043 49.3206C256.699 49.485 256.354 49.6424 256.008 49.792C256.275 49.9859 256.578 50.2234 256.902 50.4893C257.945 51.3452 259.202 52.4953 260.136 53.4323C260.444 53.7415 260.718 54.0275 260.936 54.272C261.395 54.0206 261.861 53.7496 262.331 53.4613ZM271.134 43.432L273.862 44.2585L273.402 44.868L276.14 43.432H271.134ZM239.88 20.224V17.152H248.968V20.224H239.88ZM247.968 19.224V18.152H240.88V19.224H247.968ZM239.88 12.288V9.28H248.968V12.288H239.88ZM247.968 11.288V10.28H240.88V11.288H247.968ZM267.528 29.248V26.24H279.176V29.248H267.528ZM278.176 28.248V27.24H268.528V28.248H278.176ZM267.528 37.184V34.112H279.176V37.184H267.528ZM278.176 36.184V35.112H268.528V36.184H278.176ZM267.528 21.312V18.304H279.176V21.312H267.528ZM278.176 20.312V19.304H268.528V20.312H278.176ZM233.096 4.16V25.408H256.072V4.16H233.096Z" fill="black"/>
</svg>
