<svg width="1980" height="569" viewBox="0 0 1980 569" fill="none" xmlns="http://www.w3.org/2000/svg">
<g clip-path="url(#clip0_140_809)">
<rect width="1980" height="569" fill="white"/>
<rect width="1980" height="600" fill="#FFFBF5"/>
<circle cx="1879" cy="549" r="74.5" fill="white" stroke="black"/>
<path d="M2022.5 24.5C2022.5 81.9076 1972.83 128.5 1911.5 128.5C1850.17 128.5 1800.5 81.9076 1800.5 24.5C1800.5 -32.9076 1850.17 -79.5 1911.5 -79.5C1972.83 -79.5 2022.5 -32.9076 2022.5 24.5Z" fill="white" stroke="black"/>
<path d="M101.513 -8.09066C120.263 30.1976 107.63 74.7582 73.4512 91.4956C39.2721 108.233 -3.67469 90.8893 -22.4243 52.6011C-41.1739 14.3128 -28.5414 -30.2478 5.63772 -46.9852C39.8169 -63.7226 82.7637 -46.3789 101.513 -8.09066Z" fill="white" stroke="black"/>
<circle cx="10.5" cy="249.5" r="64" fill="white" stroke="black"/>
<path d="M1862.5 539.5C1862.5 608.519 1804.54 664.5 1733 664.5C1661.46 664.5 1603.5 608.519 1603.5 539.5C1603.5 470.481 1661.46 414.5 1733 414.5C1804.54 414.5 1862.5 470.481 1862.5 539.5Z" fill="white" stroke="black"/>
<path d="M338.5 519C338.5 651.838 233.945 759.5 105 759.5C-23.9447 759.5 -128.5 651.838 -128.5 519C-128.5 386.162 -23.9447 278.5 105 278.5C233.945 278.5 338.5 386.162 338.5 519Z" fill="white" stroke="black"/>
</g>
<defs>
<clipPath id="clip0_140_809">
<rect width="1980" height="569" fill="white"/>
</clipPath>
</defs>
</svg>
