<svg width="291" height="63" viewBox="0 0 291 63" fill="none" xmlns="http://www.w3.org/2000/svg">
<path d="M16.5642 15.208V17.896H43.7642V15.208H16.5642ZM16.5642 7.976V10.6H43.7642V7.976H16.5642ZM9.20417 3.048H51.4442V22.824H9.20417V3.048ZM1.65217 25.128H58.8682V31.272H1.65217V25.128ZM30.9642 33.64H51.8922V39.528H30.9642V33.64ZM11.4442 33.832H26.0362V39.144H11.4442V33.832ZM11.4442 41.832H26.0362V47.144H11.4442V41.832ZM38.8362 38.952C42.4202 46.76 49.9722 52.648 60.2762 55.08C58.6762 56.424 56.6922 59.24 55.7322 61.032C44.6602 57.832 37.0442 50.664 32.6922 40.68L38.8362 38.952ZM49.6522 33.64H50.9962L52.2762 33.384L57.0122 35.176C53.2362 48.552 44.2122 56.744 32.8202 61.032C31.9882 59.24 30.0682 56.488 28.6602 55.08C38.5802 51.944 46.8362 44.584 49.6522 34.728V33.64ZM1.07617 51.176C7.47617 50.792 16.8842 50.088 25.8442 49.32V55.528C17.2682 56.36 8.30817 57.192 1.58817 57.768L1.07617 51.176ZM22.0682 27.112H29.4282V61.096H22.0682V27.112ZM6.64417 27.304H13.6842V53.416H6.64417V27.304Z" fill="white"/>
<path d="M113.204 22.184H137.076V29.288H113.204V22.184ZM78.5162 7.336H107.316V13.608H78.5162V7.336ZM77.8762 32.808H107.252V39.272H77.8762V32.808ZM77.6842 21.608H107.828V27.944H77.6842V21.608ZM123.572 25.256H130.996V60.776H123.572V25.256ZM89.2042 1.512H96.6922V10.152H89.2042V1.512ZM89.2042 27.56H96.6922V61.032H89.2042V27.56ZM109.748 6.056L118.708 8.552C118.644 9.192 118.196 9.512 117.044 9.704V28.52C117.044 38.056 115.828 52.2 107.124 61.224C106.164 59.56 103.348 56.936 101.62 55.976C109.044 48.104 109.748 37.16 109.748 28.392V6.056ZM130.676 1.64L136.82 7.208C130.292 10.152 121.588 12.328 114.1 13.736C113.716 12.072 112.628 9.384 111.732 7.912C118.58 6.376 126.132 4.072 130.676 1.64ZM96.1162 39.528C98.1002 40.744 104.244 45.544 105.78 46.824L101.364 52.328C99.2522 49.768 94.3882 44.968 92.0202 42.856L96.1162 39.528ZM81.7162 14.568L87.6042 13.16C88.7562 15.464 89.6522 18.6 89.9722 20.712L83.7002 22.376C83.5722 20.264 82.7402 17 81.7162 14.568ZM97.6522 13.032L104.436 14.312C103.22 17.256 102.132 20.008 101.172 21.992L95.0922 20.712C95.9882 18.536 97.0762 15.272 97.6522 13.032ZM89.2682 36.584L94.7082 38.568C91.5722 45.608 86.2602 52.968 81.1402 57.128C79.9242 55.464 77.6842 52.904 76.0842 51.688C81.1402 48.424 86.4522 42.216 89.2682 36.584Z" fill="white"/>
<path d="M196.148 15.272L204.34 17.64C196.276 40.68 181.364 54.12 158.452 61.288C157.556 59.368 155.124 55.656 153.588 53.8C175.732 47.976 189.492 36.136 196.148 15.272ZM171.444 15.784C177.908 34.728 191.732 48.36 214.516 53.48C212.66 55.272 210.164 58.92 208.948 61.16C184.948 54.888 171.764 40.232 163.764 18.088L171.444 15.784ZM154.74 11.112H213.364V18.664H154.74V11.112ZM179.892 1H187.828V15.72H179.892V1Z" fill="white"/>
<path d="M231.476 48.424H289.908V54.504H231.476V48.424ZM256.5 43.048H264.564V61.096H256.5V43.048ZM245.876 37.48V40.488H275.252V37.48H245.876ZM245.876 29.672V32.68H275.252V29.672H245.876ZM238.388 24.552H283.06V45.608H238.388V24.552ZM235.828 5.224H285.876V11.24H235.828V5.224ZM231.732 15.976H289.588V21.992H231.732V15.976ZM256.436 1H264.564V9.512H256.436V1ZM269.556 9.896L277.748 11.304C276.404 13.928 275.188 16.168 274.228 17.832L266.932 16.488C267.828 14.568 268.98 11.816 269.556 9.896ZM244.276 11.496L251.7 10.216C252.916 12.008 254.068 14.568 254.452 16.36L246.708 17.96C246.388 16.168 245.364 13.416 244.276 11.496Z" fill="white"/>
<path fill-rule="evenodd" clip-rule="evenodd" d="M8.20381 2.048H52.4438V23.824H8.20381V2.048ZM0.651808 24.128H59.8678V32.272H30.4278V32.64H50.8968L52.3612 32.3471L58.2233 34.5652L57.9742 35.4477C56.3374 41.2457 53.7355 46.0957 50.3978 50.0945C53.3355 51.8486 56.7232 53.214 60.5055 54.1067L62.4444 54.5644L60.919 55.8457C59.4552 57.0753 57.5431 59.7686 56.6133 61.5042L56.2313 62.2173L55.4542 61.9927C51.0085 60.7078 47.1025 58.7969 43.7268 56.334C40.5319 58.6722 36.9783 60.5352 33.1721 61.9679L32.3036 62.2948L31.9128 61.4531C31.5746 60.7246 31.0366 59.8151 30.4278 58.9103V62.096H21.0678V56.9921C14.0637 57.6601 7.13109 58.2965 1.67321 58.7643L0.668869 58.8504L0 50.2388L1.01592 50.1778C2.42456 50.0933 3.97954 49.9932 5.64381 49.8803V32.272H0.651808V24.128ZM6.64381 31.272V50.8142C6.30637 50.8375 5.97294 50.8603 5.64381 50.8826C4.38584 50.9678 3.1906 51.0457 2.07408 51.115C1.73394 51.1362 1.4011 51.1565 1.07602 51.176C1.07595 51.176 1.0761 51.176 1.07602 51.176L1.58781 57.768C1.91472 57.74 2.24694 57.7114 2.58415 57.6821C7.89804 57.222 14.4533 56.6186 21.0678 55.9875C21.401 55.9557 21.7344 55.9239 22.0678 55.8919V61.096H29.4278V55.919C29.7556 56.3037 30.0941 56.7313 30.4278 57.1797C31.3884 58.4702 32.3091 59.932 32.8198 61.032C36.4483 59.6662 39.8366 57.9043 42.8916 55.705C43.173 55.5025 43.4515 55.2963 43.7271 55.0863C44.002 55.2963 44.2808 55.5024 44.5633 55.7046C47.7907 58.0148 51.51 59.8118 55.7318 61.032C56.5253 59.5509 58.0182 57.3703 59.4157 55.8994C59.7091 55.5907 59.9982 55.3132 60.2758 55.08C59.8833 54.9874 59.4948 54.8897 59.1103 54.7871C55.6383 53.8606 52.4974 52.5321 49.7373 50.864C49.4466 50.6883 49.1601 50.5088 48.8779 50.3257C49.1013 50.0749 49.3216 49.8205 49.5388 49.5624C52.8356 45.6439 55.4012 40.8815 57.0118 35.176L52.2758 33.384L50.9958 33.64H30.9638V39.528H36.7878L32.6918 40.68C32.827 40.9901 32.9653 41.2975 33.1068 41.6021C34.4254 44.4416 36.0182 47.042 37.8897 49.3755C38.0988 49.6363 38.3115 49.8937 38.5276 50.1478C38.2565 50.3436 37.9821 50.5354 37.7045 50.7232C35.4603 52.2422 33.011 53.5019 30.4278 54.4698C30.1896 54.5591 29.9503 54.6458 29.7099 54.7301C29.616 54.763 29.522 54.7955 29.4278 54.8277V31.272H58.8678V25.128H1.65181V31.272H6.64381ZM21.0678 49.72C21.401 49.6927 21.7344 49.6653 22.0678 49.6378V47.144H13.6838V50.3027C14.0156 50.2775 14.349 50.2521 14.6838 50.2264C16.7711 50.0661 18.9148 49.8962 21.0678 49.72ZM14.6838 49.2234C16.7714 49.063 18.9152 48.8929 21.0678 48.7166V48.144H14.6838V49.2234ZM22.0678 31.272H13.6838V33.832H22.0678V31.272ZM21.0678 32.832V32.272H14.6838V32.832H21.0678ZM22.0678 39.144H13.6838V41.832H22.0678V39.144ZM21.0678 40.832V40.144H14.6838V40.832H21.0678ZM30.4278 53.3999C32.7823 52.4886 35.014 51.3287 37.0669 49.9477C34.9578 47.3075 33.1955 44.3382 31.7751 41.0796L31.5347 40.528H30.4278V53.3999ZM43.43 45.7801C43.6555 45.5318 43.8767 45.2799 44.0935 45.0244C45.2785 43.6279 46.3312 42.1256 47.2285 40.528C47.4135 40.1987 47.5918 39.8653 47.7634 39.528H39.1091C39.2743 39.8651 39.4471 40.1985 39.6272 40.528C40.5004 42.125 41.5479 43.631 42.7583 45.0316C42.9769 45.2845 43.2008 45.5341 43.43 45.7801ZM43.422 44.269C44.408 43.0951 45.2967 41.8457 46.074 40.528H40.7742C41.5324 41.8428 42.4171 43.0931 43.422 44.269ZM16.5638 17.896V15.208H43.7638V17.896H16.5638ZM42.7638 16.896V16.208H17.5638V16.896H42.7638ZM16.5638 10.6V7.976H43.7638V10.6H16.5638ZM42.7638 9.6V8.976H17.5638V9.6H42.7638ZM117.044 22.184H137.076V29.288H130.996V60.776H123.572V29.288H117.041C117.039 29.6165 117.035 29.95 117.029 30.288C116.875 39.4598 115.396 51.9789 107.83 60.4623C107.6 60.72 107.365 60.9739 107.124 61.224C106.973 60.9631 106.777 60.6786 106.547 60.3806C105.532 59.0684 103.853 57.4947 102.477 56.5231C102.173 56.3081 101.884 56.1227 101.62 55.976C101.855 55.7262 102.084 55.4733 102.306 55.2175C109.088 47.4116 109.748 36.8818 109.748 28.392V6.056L114.268 7.31532C114.916 7.15588 115.566 6.99046 116.215 6.8196C121.692 5.37806 127.11 3.54844 130.676 1.64L136.82 7.208C136.491 7.3565 136.156 7.50305 135.816 7.64764C130.573 9.87781 124.116 11.6431 118.044 12.9436C117.709 13.0152 117.376 13.0854 117.044 13.1543V22.184ZM118.044 13.9661V21.184H138.076V30.288H131.996V61.776H122.572V30.288H118.029C117.872 39.7828 116.309 53.1417 107.844 61.9182L106.921 62.8743L106.258 61.7237C105.85 61.0179 104.99 60.0249 103.973 59.0624C102.961 58.1051 101.894 57.2724 101.134 56.8502L100.01 56.2256L100.892 55.2899C102.601 53.4784 103.941 51.4941 104.993 49.4031L101.375 53.9125L100.592 52.9644C99.881 52.102 98.843 50.9723 97.6918 49.776V62.032H88.2038V51.1988C86.1472 53.8161 83.9475 56.1352 81.7704 57.9041L80.9535 58.5679L80.3324 57.718C79.1408 56.0874 76.9673 53.6155 75.4787 52.4842L74.3434 51.6213L75.5414 50.8479C79.218 48.4744 83.0702 44.4554 85.9222 40.272H76.8758V31.808H88.2038V28.944H76.6838V20.608H82.4642C82.1351 18.8097 81.5162 16.6709 80.7942 14.9561L80.6476 14.608H77.5158V6.336H88.2038V0.512001H97.6918V6.336H108.316V14.608H105.396L105.36 14.6938C105.11 15.2997 104.864 15.9006 104.622 16.4905C104.019 17.9623 103.445 19.3656 102.903 20.608H108.748V4.73935L114.284 6.28146C120.281 4.7921 126.376 2.80733 130.204 0.758335L130.825 0.425829L138.622 7.49205L137.231 8.11959C131.675 10.625 124.607 12.5701 118.044 13.9661ZM108.747 28.944H97.6918V31.808H108.252V37.9417C108.636 34.8736 108.736 31.8193 108.747 28.944ZM107.902 40.272H98.9437C101.609 42.221 105.273 45.1003 106.413 46.0502C107.078 44.1638 107.558 42.2235 107.902 40.272ZM107.252 39.272V32.808H96.6918V27.944H107.828V21.608H101.355C101.504 21.291 101.656 20.957 101.81 20.608C102.394 19.2918 103.02 17.7627 103.689 16.1301C103.807 15.8418 103.926 15.5504 104.047 15.2563C104.135 15.0415 104.224 14.8253 104.314 14.608C104.354 14.5096 104.395 14.4109 104.436 14.312L100.705 13.608H107.316V7.336H96.6918V1.512H89.2038V7.336H78.5158V13.608H85.7304L81.7158 14.568C81.7214 14.5813 81.727 14.5946 81.7326 14.608C81.8537 14.8974 81.9721 15.1983 82.087 15.5074C82.6934 17.1403 83.1996 19.0028 83.48 20.608C83.5256 20.8689 83.5652 21.1231 83.5983 21.3683C83.6092 21.4492 83.6194 21.5291 83.6289 21.608H77.6838V27.944H89.2038V32.808H77.8758V39.272H87.7636C87.5578 39.6055 87.3451 39.9391 87.1258 40.272C84.3884 44.4292 80.6448 48.4896 76.9534 51.0997C76.6631 51.305 76.373 51.5013 76.0838 51.688C76.3373 51.8806 76.6068 52.107 76.8858 52.3582C78.1055 53.4564 79.5057 55.0291 80.5336 56.332C80.7548 56.6123 80.9586 56.8801 81.1398 57.128C81.395 56.9207 81.6507 56.7053 81.9066 56.4825C84.0502 54.6157 86.2068 52.2215 88.2038 49.5561C88.542 49.1047 88.8756 48.6456 89.2038 48.1799V61.032H96.6918V47.3277C97.0273 47.6641 97.3621 48.0029 97.6918 48.34C98.8126 49.486 99.8741 50.6117 100.703 51.5542C100.944 51.829 101.166 52.0883 101.364 52.328L105.78 46.824C104.544 45.7944 100.327 42.487 97.6918 40.5997C97.5316 40.4849 97.3772 40.3754 97.2297 40.272C97.038 40.1376 96.858 40.0135 96.6918 39.9015V39.272H107.252ZM99.3478 21.608L95.0918 20.712C95.106 20.6776 95.1202 20.6429 95.1344 20.608C95.2429 20.3423 95.3539 20.0614 95.4663 19.7689C96.072 18.1932 96.7181 16.2817 97.2133 14.608C97.3154 14.2629 97.4111 13.9279 97.4987 13.608H87.8199C87.9697 13.93 88.1147 14.2648 88.2539 14.608C89.0703 16.6209 89.6894 18.9216 89.9557 20.608C89.9612 20.6429 89.9666 20.6776 89.9718 20.712L86.5946 21.608H99.3478ZM90.9675 20.608H94.0532L94.1671 20.3313C94.8239 18.7363 95.5893 16.5347 96.1697 14.608H89.3295C90.1209 16.6489 90.7089 18.9012 90.9605 20.5622L90.9675 20.608ZM203.975 18.664C203.853 18.9994 203.729 19.3327 203.604 19.664C200.33 28.3504 196.028 35.6173 190.631 41.657C190.408 41.9066 190.183 42.1541 189.956 42.3995C190.221 42.6036 190.488 42.8056 190.758 43.0055C196.96 47.6034 204.466 51.0726 213.373 53.2143C213.751 53.3052 214.132 53.3938 214.516 53.48C214.259 53.7281 213.99 54.0117 213.713 54.3223C211.993 56.2551 209.995 59.2301 208.948 61.16C198.995 58.5589 190.901 54.5158 184.267 49.0945C184.004 48.8792 183.742 48.6618 183.483 48.4421C183.219 48.655 182.952 48.8659 182.684 49.0748C175.899 54.3538 167.848 58.3483 158.452 61.288C157.678 59.6304 155.76 56.6373 154.262 54.6558C154.024 54.3421 153.798 54.0537 153.588 53.8C153.942 53.7068 154.294 53.6121 154.644 53.5159C163.332 51.1262 170.701 47.7801 176.831 43.2891C177.101 43.0911 177.369 42.8909 177.634 42.6885C177.414 42.4379 177.195 42.1852 176.979 41.9304C171.704 35.7195 167.61 28.2789 164.347 19.664C164.267 19.4529 164.187 19.2411 164.108 19.0286C164.063 18.9073 164.018 18.7858 163.974 18.664H154.74V11.112H179.892V1H187.828V11.112H213.364V18.664H203.975ZM188.828 10.112H214.364V19.664H204.672C201.348 28.5963 196.955 36.0631 191.433 42.2608C197.774 46.9429 205.502 50.4295 214.735 52.5043L216.545 52.911L215.21 54.1994C213.455 55.894 211.016 59.4456 209.827 61.6371L209.453 62.3256L208.695 62.1275C198.534 59.472 190.255 55.3218 183.467 49.7318C176.551 55.151 168.336 59.2435 158.75 62.2424L157.916 62.5036L157.546 61.7109C156.693 59.8834 154.311 56.2427 152.817 54.4376L151.819 53.2312L153.333 52.8329C162.359 50.4592 169.933 47.0878 176.176 42.5292C170.758 36.1365 166.585 28.4866 163.278 19.664H153.74V10.112H178.892V0H188.828V10.112ZM194.973 18.664H172.5C172.631 18.9992 172.766 19.3325 172.902 19.664C175.462 25.8754 178.894 31.4413 183.261 36.2343C183.486 36.4813 183.713 36.7262 183.943 36.9691C184.17 36.7242 184.395 36.4769 184.618 36.2271C188.751 31.5875 192.059 26.1022 194.589 19.664C194.719 19.3332 194.847 18.9999 194.973 18.664ZM193.514 19.664H173.985C176.47 25.5832 179.766 30.8965 183.935 35.4898C187.875 31.049 191.056 25.8105 193.514 19.664ZM230.476 47.424H255.5V46.608H237.388V23.552H284.06V46.608H265.564V47.424H290.908V55.504H265.564V62.096H255.5V55.504H230.476V47.424ZM256.5 54.504V61.096H264.564V54.504H289.908V48.424H264.564V45.608H283.06V24.552H238.388V45.608H256.5V48.424H231.476V54.504H256.5ZM234.828 4.224H255.436V0H265.564V4.224H286.876V12.24H278.391C277.891 13.2105 277.41 14.1259 276.954 14.976H290.588V22.992H230.732V14.976H244.786C244.423 14.0242 243.992 13.064 243.545 12.24H234.828V4.224ZM252.341 11.24C252.528 11.5628 252.71 11.8982 252.885 12.24C253.349 13.1465 253.758 14.0976 254.058 14.976C254.107 15.1167 254.152 15.2556 254.194 15.3921C254.257 15.5923 254.312 15.7874 254.361 15.976H267.168C267.231 15.837 267.295 15.6948 267.36 15.55C267.444 15.3628 267.528 15.171 267.614 14.976C267.997 14.097 268.39 13.1508 268.739 12.24C268.87 11.8999 268.994 11.5648 269.11 11.24H252.341ZM267.667 12.24H254.002C254.447 13.1572 254.833 14.1028 255.112 14.976H266.521C266.905 14.11 267.305 13.1615 267.667 12.24ZM245.761 11.24H235.828V5.224H256.436V1H264.564V5.224H285.876V11.24H277.375L277.748 11.304C277.586 11.6204 277.426 11.9312 277.267 12.2361C277.267 12.2374 277.266 12.2387 277.265 12.24C276.759 13.2164 276.274 14.1321 275.818 14.976C275.631 15.3216 275.449 15.6552 275.272 15.976H289.588V21.992H231.732V15.976H246.197C246.092 15.649 245.977 15.3137 245.854 14.976C245.537 14.1106 245.163 13.2288 244.767 12.4261C244.736 12.3636 244.705 12.3015 244.674 12.24C244.543 11.9816 244.41 11.7325 244.276 11.496L245.761 11.24ZM245.876 40.488V37.48H275.252V40.488H245.876ZM274.252 39.488V38.48H246.876V39.488H274.252ZM245.876 32.68V29.672H275.252V32.68H245.876ZM274.252 31.68V30.672H246.876V31.68H274.252ZM9.20381 3.048V22.824H51.4438V3.048H9.20381Z" fill="black"/>
</svg>
