<svg width="4403" height="130" viewBox="0 0 4403 130" fill="none" xmlns="http://www.w3.org/2000/svg">
<path d="M52.3734 76.593C56.4067 76.593 51.5236 70.5584 48.5779 67.5411C50.1187 65.9105 59.7943 66.8616 64.4395 67.5411C80.8297 72.2369 113.61 83.3431 113.61 90.201C113.61 97.059 142.841 108.924 157.456 114C180.705 114 181.532 98.7735 179.039 91.1602C176.377 87.6433 168.333 80.6095 157.456 80.6095C146.58 80.6095 150.243 86.6442 153.434 89.6615C154.703 89.6615 161.289 90.0212 164.424 90.201C168.004 93.9897 165.916 97.5346 164.424 98.8334C148.619 98.8334 131.738 91.2201 130.775 90.201C130.004 89.3857 130.907 86.7041 131.455 85.4652C134.287 83.9466 139.952 79.7103 139.952 74.9145C139.952 70.1188 142.255 54.1329 143.407 46.7394C143.879 39.8056 143.566 25.9378 138.536 25.9378C132.248 25.9378 133.437 46.7394 131.455 46.7394C129.868 46.7394 124.789 44.7012 122.447 43.6821C114.471 35.2416 101.45 38.2869 95.936 40.8646C90.7696 35.3974 64.3639 32.3521 51.8069 31.5129C46.3875 31.8526 35.1296 32.0884 33.4528 30.3139C31.3568 28.0959 12.7761 21.0821 11.3599 21.0821C10.2269 21.0821 8.69741 19.1638 8.07428 18.2046C8.07428 17.1256 4.95862 16.3463 4.95862 17.785C4.95862 18.936 4.35437 19.1038 4.05224 19.0439H1.10652C-0.989466 19.0439 1.38978 22.2211 0.653348 22.2211C-0.0830812 22.2211 -0.13973 23.1802 0.200161 23.5399C0.472073 23.8277 0.313458 24.4591 0.200161 24.7389C0.200161 26.2975 2.52275 27.1967 3.59907 28.3357C4.46012 29.2469 6.79026 28.7154 7.8477 28.3357C13.014 28.3357 19.404 34.77 21.9532 37.9872C23.3127 39.4259 23.917 49.0174 24.0491 53.6333C20.6502 53.6333 20.0649 58.6289 20.1971 61.1267C16.3903 65.1552 19.1774 74.7147 21.0468 78.9909C21.6699 82.7276 23.596 90.1651 26.3151 90.0212C29.0342 89.8773 31.64 83.8866 32.6031 80.9092C37.2709 81.0531 41.4591 76.9727 42.9697 74.9145H44.1027C45.179 75.474 48.34 76.593 52.3734 76.593Z" fill="#FCC8D1"/>
<path d="M208.96 82V74.128H211.36V52.528H208.96V44.656H241.36V59.152H230.608V52.528H224.8V60.112H229.024V65.584H224.8V74.128H230.608V66.544H241.36V82H208.96ZM275.867 74.128V82H263.195V78.736C262.491 79.76 261.499 80.672 260.219 81.472C258.971 82.272 257.435 82.672 255.611 82.672C253.211 82.672 251.323 82.032 249.947 80.752C248.571 79.472 247.883 77.664 247.883 75.328C247.883 69.28 253.019 66.176 263.291 66.016C263.195 64.928 262.779 64.192 262.043 63.808C261.307 63.392 260.059 63.184 258.299 63.184C256.859 63.184 255.307 63.344 253.643 63.664C252.011 63.952 250.507 64.352 249.131 64.864V56.032C250.827 55.616 252.667 55.28 254.651 55.024C256.635 54.768 258.571 54.64 260.459 54.64C265.227 54.64 268.635 55.504 270.683 57.232C272.731 58.96 273.755 61.632 273.755 65.248V74.128H275.867ZM263.195 70.768C261.755 70.768 260.635 70.96 259.835 71.344C259.067 71.728 258.683 72.368 258.683 73.264C258.683 73.808 258.843 74.256 259.163 74.608C259.515 74.928 259.995 75.088 260.603 75.088C261.435 75.088 262.075 74.736 262.523 74.032C262.971 73.328 263.195 72.336 263.195 71.056V70.768ZM294.07 82.672C290.678 82.672 288.118 81.856 286.39 80.224C284.694 78.56 283.846 75.776 283.846 71.872V63.184H281.734V55.312C282.95 55.312 283.862 55.008 284.47 54.4C285.078 53.76 285.382 52.896 285.382 51.808V49.648H295.558V55.312H302.038V63.184H295.558V71.056C295.558 72.112 295.782 72.896 296.23 73.408C296.71 73.888 297.414 74.128 298.342 74.128C299.558 74.128 300.886 73.984 302.326 73.696V81.232C301.43 81.584 300.214 81.904 298.678 82.192C297.174 82.512 295.638 82.672 294.07 82.672ZM366.357 52.528H363.957V74.128H366.357V82H348.213V74.128H350.517V66.208H343.797V74.128H346.101V82H327.957V74.128H330.357V52.528H327.957V44.656H346.101V52.528H343.797V59.824H350.517V52.528H348.213V44.656H366.357V52.528ZM387.277 82.672C382.733 82.672 379.181 81.488 376.621 79.12C374.061 76.72 372.781 73.232 372.781 68.656C372.781 64.08 374.061 60.608 376.621 58.24C379.181 55.84 382.733 54.64 387.277 54.64C391.789 54.64 395.037 55.824 397.021 58.192C399.037 60.528 400.045 63.44 400.045 66.928V70.384H384.493V70.672C384.493 71.856 384.845 72.736 385.549 73.312C386.253 73.856 387.421 74.128 389.053 74.128C391.005 74.128 392.861 73.984 394.621 73.696C396.381 73.408 397.917 73.04 399.229 72.592V80.272C398.109 80.88 396.461 81.44 394.285 81.952C392.141 82.432 389.805 82.672 387.277 82.672ZM390.061 65.104V64.528C390.061 63.44 389.821 62.656 389.341 62.176C388.893 61.696 388.205 61.456 387.277 61.456C386.349 61.456 385.645 61.712 385.165 62.224C384.717 62.704 384.493 63.472 384.493 64.528V65.104H390.061ZM434.257 74.128V82H421.585V78.736C420.881 79.76 419.889 80.672 418.609 81.472C417.361 82.272 415.825 82.672 414.001 82.672C411.601 82.672 409.713 82.032 408.337 80.752C406.961 79.472 406.273 77.664 406.273 75.328C406.273 69.28 411.409 66.176 421.681 66.016C421.585 64.928 421.169 64.192 420.433 63.808C419.697 63.392 418.449 63.184 416.689 63.184C415.249 63.184 413.697 63.344 412.033 63.664C410.401 63.952 408.897 64.352 407.521 64.864V56.032C409.217 55.616 411.057 55.28 413.041 55.024C415.025 54.768 416.961 54.64 418.849 54.64C423.617 54.64 427.025 55.504 429.073 57.232C431.121 58.96 432.145 61.632 432.145 65.248V74.128H434.257ZM421.585 70.768C420.145 70.768 419.025 70.96 418.225 71.344C417.457 71.728 417.073 72.368 417.073 73.264C417.073 73.808 417.233 74.256 417.553 74.608C417.905 74.928 418.385 75.088 418.993 75.088C419.825 75.088 420.465 74.736 420.913 74.032C421.361 73.328 421.585 72.336 421.585 71.056V70.768ZM440.605 82.048V74.128H442.717V52.528H440.605V44.656H453.757V74.128H455.869V82.048H440.605ZM474.042 82.672C470.65 82.672 468.09 81.856 466.362 80.224C464.666 78.56 463.818 75.776 463.818 71.872V63.184H461.706V55.312C462.922 55.312 463.834 55.008 464.442 54.4C465.05 53.76 465.354 52.896 465.354 51.808V49.648H475.53V55.312H482.01V63.184H475.53V71.056C475.53 72.112 475.754 72.896 476.202 73.408C476.682 73.888 477.386 74.128 478.314 74.128C479.53 74.128 480.858 73.984 482.298 73.696V81.232C481.402 81.584 480.186 81.904 478.65 82.192C477.146 82.512 475.61 82.672 474.042 82.672ZM520.514 74.128V82H505.346V74.128H507.362V66.256C507.362 65.2 507.138 64.432 506.69 63.952C506.242 63.44 505.57 63.184 504.674 63.184C502.754 63.184 501.794 64.208 501.794 66.256V74.128H503.81V82H488.642V74.128H490.754V52.528H488.642V44.656H501.794V59.056C502.978 57.584 504.258 56.48 505.634 55.744C507.01 55.008 508.61 54.64 510.434 54.64C513.09 54.64 515.074 55.472 516.386 57.136C517.73 58.8 518.402 61.088 518.402 64V74.128H520.514ZM529.168 52.672V44.656H538.96V52.672H529.168ZM526.864 82V74.128H528.976V63.184H526.864V55.312H540.016V74.128H542.128V82H526.864ZM562.562 82.672C558.018 82.672 554.466 81.488 551.906 79.12C549.346 76.72 548.066 73.232 548.066 68.656C548.066 64.08 549.346 60.608 551.906 58.24C554.466 55.84 558.018 54.64 562.562 54.64C567.074 54.64 570.322 55.824 572.306 58.192C574.322 60.528 575.33 63.44 575.33 66.928V70.384H559.778V70.672C559.778 71.856 560.13 72.736 560.834 73.312C561.538 73.856 562.706 74.128 564.338 74.128C566.29 74.128 568.146 73.984 569.906 73.696C571.666 73.408 573.202 73.04 574.514 72.592V80.272C573.394 80.88 571.746 81.44 569.57 81.952C567.426 82.432 565.09 82.672 562.562 82.672ZM565.346 65.104V64.528C565.346 63.44 565.106 62.656 564.626 62.176C564.178 61.696 563.49 61.456 562.562 61.456C561.634 61.456 560.93 61.712 560.45 62.224C560.002 62.704 559.778 63.472 559.778 64.528V65.104H565.346ZM602.054 54.64C602.694 54.64 603.302 54.704 603.878 54.832C604.454 54.96 604.934 55.12 605.318 55.312V64.48C604.006 63.936 602.598 63.664 601.094 63.664C599.078 63.664 597.526 64.192 596.438 65.248C595.35 66.304 594.806 67.872 594.806 69.952V74.128H599.126V82H581.654V74.128H583.766V63.184H581.654V55.312H594.806V58.816C595.702 57.472 596.726 56.448 597.878 55.744C599.03 55.008 600.422 54.64 602.054 54.64ZM642.717 82.672C639.325 82.672 636.765 81.856 635.037 80.224C633.341 78.56 632.493 75.776 632.493 71.872V63.184H630.381V55.312C631.597 55.312 632.509 55.008 633.117 54.4C633.725 53.76 634.029 52.896 634.029 51.808V49.648H644.205V55.312H650.685V63.184H644.205V71.056C644.205 72.112 644.429 72.896 644.877 73.408C645.357 73.888 646.061 74.128 646.989 74.128C648.205 74.128 649.533 73.984 650.973 73.696V81.232C650.077 81.584 648.861 81.904 647.325 82.192C645.821 82.512 644.285 82.672 642.717 82.672ZM689.189 74.128V82H674.021V74.128H676.037V66.256C676.037 65.2 675.813 64.432 675.365 63.952C674.917 63.44 674.245 63.184 673.349 63.184C671.429 63.184 670.469 64.208 670.469 66.256V74.128H672.485V82H657.317V74.128H659.429V52.528H657.317V44.656H670.469V59.056C671.653 57.584 672.933 56.48 674.309 55.744C675.685 55.008 677.285 54.64 679.109 54.64C681.765 54.64 683.749 55.472 685.061 57.136C686.405 58.8 687.077 61.088 687.077 64V74.128H689.189ZM723.523 74.128V82H710.851V78.736C710.147 79.76 709.155 80.672 707.875 81.472C706.627 82.272 705.091 82.672 703.267 82.672C700.867 82.672 698.979 82.032 697.603 80.752C696.227 79.472 695.539 77.664 695.539 75.328C695.539 69.28 700.675 66.176 710.947 66.016C710.851 64.928 710.435 64.192 709.699 63.808C708.963 63.392 707.715 63.184 705.955 63.184C704.515 63.184 702.963 63.344 701.299 63.664C699.667 63.952 698.163 64.352 696.787 64.864V56.032C698.483 55.616 700.323 55.28 702.307 55.024C704.291 54.768 706.227 54.64 708.115 54.64C712.883 54.64 716.291 55.504 718.339 57.232C720.387 58.96 721.411 61.632 721.411 65.248V74.128H723.523ZM710.851 70.768C709.411 70.768 708.291 70.96 707.491 71.344C706.723 71.728 706.339 72.368 706.339 73.264C706.339 73.808 706.499 74.256 706.819 74.608C707.171 74.928 707.651 75.088 708.259 75.088C709.091 75.088 709.731 74.736 710.179 74.032C710.627 73.328 710.851 72.336 710.851 71.056V70.768ZM761.742 74.128V82H746.574V74.128H748.59V66.256C748.59 65.2 748.366 64.432 747.918 63.952C747.47 63.44 746.798 63.184 745.902 63.184C743.982 63.184 743.022 64.208 743.022 66.256V74.128H745.038V82H729.87V74.128H731.982V63.184H729.87V55.312H743.022V59.056C745.326 56.112 748.206 54.64 751.662 54.64C754.318 54.64 756.302 55.472 757.614 57.136C758.958 58.8 759.63 61.088 759.63 64V74.128H761.742ZM816.179 55.312V63.184H814.355L808.067 79.84C806.499 84.032 804.707 87.168 802.691 89.248C800.675 91.36 798.019 92.416 794.723 92.416C793.379 92.416 792.019 92.272 790.643 91.984C789.267 91.728 788.019 91.36 786.899 90.88V82.192H793.523V82.672C793.523 83.472 793.939 83.872 794.771 83.872C795.507 83.872 796.067 83.52 796.451 82.816L788.867 63.184H787.043V55.312H801.299V63.184H799.667L802.163 70.672L804.467 63.184H802.835V55.312H816.179ZM836.715 82.672C832.171 82.672 828.619 81.488 826.059 79.12C823.499 76.72 822.219 73.232 822.219 68.656C822.219 64.08 823.499 60.608 826.059 58.24C828.619 55.84 832.171 54.64 836.715 54.64C841.323 54.64 844.891 55.856 847.419 58.288C849.947 60.688 851.211 64.144 851.211 68.656C851.211 73.232 849.931 76.72 847.371 79.12C844.811 81.488 841.259 82.672 836.715 82.672ZM836.715 74.128C837.643 74.128 838.331 73.888 838.779 73.408C839.259 72.896 839.499 72.112 839.499 71.056V66.256C839.499 65.2 839.259 64.432 838.779 63.952C838.331 63.44 837.643 63.184 836.715 63.184C835.787 63.184 835.083 63.44 834.603 63.952C834.155 64.432 833.931 65.2 833.931 66.256V71.056C833.931 72.112 834.155 72.896 834.603 73.408C835.083 73.888 835.787 74.128 836.715 74.128ZM889.123 74.128V82H875.971V78.256C873.667 81.2 870.787 82.672 867.331 82.672C864.675 82.672 862.675 81.84 861.331 80.176C860.019 78.512 859.363 76.224 859.363 73.312V63.184H857.251V55.312H870.403V71.056C870.403 72.112 870.627 72.896 871.075 73.408C871.555 73.888 872.259 74.128 873.187 74.128C874.115 74.128 874.803 73.888 875.251 73.408C875.731 72.896 875.971 72.112 875.971 71.056V63.184H873.379V55.312H887.011V74.128H889.123ZM896.301 82V74.128H903.789V82H896.301Z" fill="black"/>
<path d="M2637.37 75.593C2641.41 75.593 2636.52 69.5584 2633.58 66.5411C2635.12 64.9105 2644.79 65.8616 2649.44 66.5411C2665.83 71.2369 2698.61 82.3431 2698.61 89.201C2698.61 96.059 2727.84 107.924 2742.46 113C2765.7 113 2766.53 97.7735 2764.04 90.1602C2761.38 86.6433 2753.33 79.6095 2742.46 79.6095C2731.58 79.6095 2735.24 85.6442 2738.43 88.6615C2739.7 88.6615 2746.29 89.0212 2749.42 89.201C2753 92.9897 2750.92 96.5346 2749.42 97.8334C2733.62 97.8334 2716.74 90.2201 2715.77 89.201C2715 88.3857 2715.91 85.7041 2716.45 84.4652C2719.29 82.9466 2724.95 78.7103 2724.95 73.9145C2724.95 69.1188 2727.26 53.1329 2728.41 45.7394C2728.88 38.8056 2728.57 24.9378 2723.54 24.9378C2717.25 24.9378 2718.44 45.7394 2716.45 45.7394C2714.87 45.7394 2709.79 43.7012 2707.45 42.6821C2699.47 34.2416 2686.45 37.2869 2680.94 39.8646C2675.77 34.3974 2649.36 31.3521 2636.81 30.5129C2631.39 30.8526 2620.13 31.0884 2618.45 29.3139C2616.36 27.0959 2597.78 20.0821 2596.36 20.0821C2595.23 20.0821 2593.7 18.1638 2593.07 17.2046C2593.07 16.1256 2589.96 15.3463 2589.96 16.785C2589.96 17.936 2589.35 18.1038 2589.05 18.0439H2586.11C2584.01 18.0439 2586.39 21.2211 2585.65 21.2211C2584.92 21.2211 2584.86 22.1802 2585.2 22.5399C2585.47 22.8277 2585.31 23.4591 2585.2 23.7389C2585.2 25.2975 2587.52 26.1967 2588.6 27.3357C2589.46 28.2469 2591.79 27.7154 2592.85 27.3357C2598.01 27.3357 2604.4 33.77 2606.95 36.9872C2608.31 38.4259 2608.92 48.0174 2609.05 52.6333C2605.65 52.6333 2605.06 57.6289 2605.2 60.1267C2601.39 64.1552 2604.18 73.7147 2606.05 77.9909C2606.67 81.7276 2608.6 89.1651 2611.32 89.0212C2614.03 88.8773 2616.64 82.8866 2617.6 79.9092C2622.27 80.0531 2626.46 75.9727 2627.97 73.9145H2629.1C2630.18 74.474 2633.34 75.593 2637.37 75.593Z" fill="#FCC8D1"/>
<path d="M2793.96 81V73.128H2796.36V51.528H2793.96V43.656H2826.36V58.152H2815.61V51.528H2809.8V59.112H2814.02V64.584H2809.8V73.128H2815.61V65.544H2826.36V81H2793.96ZM2860.87 73.128V81H2848.19V77.736C2847.49 78.76 2846.5 79.672 2845.22 80.472C2843.97 81.272 2842.43 81.672 2840.61 81.672C2838.21 81.672 2836.32 81.032 2834.95 79.752C2833.57 78.472 2832.88 76.664 2832.88 74.328C2832.88 68.28 2838.02 65.176 2848.29 65.016C2848.19 63.928 2847.78 63.192 2847.04 62.808C2846.31 62.392 2845.06 62.184 2843.3 62.184C2841.86 62.184 2840.31 62.344 2838.64 62.664C2837.01 62.952 2835.51 63.352 2834.13 63.864V55.032C2835.83 54.616 2837.67 54.28 2839.65 54.024C2841.63 53.768 2843.57 53.64 2845.46 53.64C2850.23 53.64 2853.63 54.504 2855.68 56.232C2857.73 57.96 2858.75 60.632 2858.75 64.248V73.128H2860.87ZM2848.19 69.768C2846.75 69.768 2845.63 69.96 2844.83 70.344C2844.07 70.728 2843.68 71.368 2843.68 72.264C2843.68 72.808 2843.84 73.256 2844.16 73.608C2844.51 73.928 2844.99 74.088 2845.6 74.088C2846.43 74.088 2847.07 73.736 2847.52 73.032C2847.97 72.328 2848.19 71.336 2848.19 70.056V69.768ZM2879.07 81.672C2875.68 81.672 2873.12 80.856 2871.39 79.224C2869.69 77.56 2868.85 74.776 2868.85 70.872V62.184H2866.73V54.312C2867.95 54.312 2868.86 54.008 2869.47 53.4C2870.08 52.76 2870.38 51.896 2870.38 50.808V48.648H2880.56V54.312H2887.04V62.184H2880.56V70.056C2880.56 71.112 2880.78 71.896 2881.23 72.408C2881.71 72.888 2882.41 73.128 2883.34 73.128C2884.56 73.128 2885.89 72.984 2887.33 72.696V80.232C2886.43 80.584 2885.21 80.904 2883.68 81.192C2882.17 81.512 2880.64 81.672 2879.07 81.672ZM2951.36 51.528H2948.96V73.128H2951.36V81H2933.21V73.128H2935.52V65.208H2928.8V73.128H2931.1V81H2912.96V73.128H2915.36V51.528H2912.96V43.656H2931.1V51.528H2928.8V58.824H2935.52V51.528H2933.21V43.656H2951.36V51.528ZM2972.28 81.672C2967.73 81.672 2964.18 80.488 2961.62 78.12C2959.06 75.72 2957.78 72.232 2957.78 67.656C2957.78 63.08 2959.06 59.608 2961.62 57.24C2964.18 54.84 2967.73 53.64 2972.28 53.64C2976.79 53.64 2980.04 54.824 2982.02 57.192C2984.04 59.528 2985.05 62.44 2985.05 65.928V69.384H2969.49V69.672C2969.49 70.856 2969.85 71.736 2970.55 72.312C2971.25 72.856 2972.42 73.128 2974.05 73.128C2976.01 73.128 2977.86 72.984 2979.62 72.696C2981.38 72.408 2982.92 72.04 2984.23 71.592V79.272C2983.11 79.88 2981.46 80.44 2979.29 80.952C2977.14 81.432 2974.81 81.672 2972.28 81.672ZM2975.06 64.104V63.528C2975.06 62.44 2974.82 61.656 2974.34 61.176C2973.89 60.696 2973.21 60.456 2972.28 60.456C2971.35 60.456 2970.65 60.712 2970.17 61.224C2969.72 61.704 2969.49 62.472 2969.49 63.528V64.104H2975.06ZM3019.26 73.128V81H3006.59V77.736C3005.88 78.76 3004.89 79.672 3003.61 80.472C3002.36 81.272 3000.83 81.672 2999 81.672C2996.6 81.672 2994.71 81.032 2993.34 79.752C2991.96 78.472 2991.27 76.664 2991.27 74.328C2991.27 68.28 2996.41 65.176 3006.68 65.016C3006.59 63.928 3006.17 63.192 3005.43 62.808C3004.7 62.392 3003.45 62.184 3001.69 62.184C3000.25 62.184 2998.7 62.344 2997.03 62.664C2995.4 62.952 2993.9 63.352 2992.52 63.864V55.032C2994.22 54.616 2996.06 54.28 2998.04 54.024C3000.03 53.768 3001.96 53.64 3003.85 53.64C3008.62 53.64 3012.03 54.504 3014.07 56.232C3016.12 57.96 3017.15 60.632 3017.15 64.248V73.128H3019.26ZM3006.59 69.768C3005.15 69.768 3004.03 69.96 3003.23 70.344C3002.46 70.728 3002.07 71.368 3002.07 72.264C3002.07 72.808 3002.23 73.256 3002.55 73.608C3002.91 73.928 3003.39 74.088 3003.99 74.088C3004.83 74.088 3005.47 73.736 3005.91 73.032C3006.36 72.328 3006.59 71.336 3006.59 70.056V69.768ZM3025.6 81.048V73.128H3027.72V51.528H3025.6V43.656H3038.76V73.128H3040.87V81.048H3025.6ZM3059.04 81.672C3055.65 81.672 3053.09 80.856 3051.36 79.224C3049.67 77.56 3048.82 74.776 3048.82 70.872V62.184H3046.71V54.312C3047.92 54.312 3048.83 54.008 3049.44 53.4C3050.05 52.76 3050.35 51.896 3050.35 50.808V48.648H3060.53V54.312H3067.01V62.184H3060.53V70.056C3060.53 71.112 3060.75 71.896 3061.2 72.408C3061.68 72.888 3062.39 73.128 3063.31 73.128C3064.53 73.128 3065.86 72.984 3067.3 72.696V80.232C3066.4 80.584 3065.19 80.904 3063.65 81.192C3062.15 81.512 3060.61 81.672 3059.04 81.672ZM3105.51 73.128V81H3090.35V73.128H3092.36V65.256C3092.36 64.2 3092.14 63.432 3091.69 62.952C3091.24 62.44 3090.57 62.184 3089.67 62.184C3087.75 62.184 3086.79 63.208 3086.79 65.256V73.128H3088.81V81H3073.64V73.128H3075.75V51.528H3073.64V43.656H3086.79V58.056C3087.98 56.584 3089.26 55.48 3090.63 54.744C3092.01 54.008 3093.61 53.64 3095.43 53.64C3098.09 53.64 3100.07 54.472 3101.39 56.136C3102.73 57.8 3103.4 60.088 3103.4 63V73.128H3105.51ZM3114.17 51.672V43.656H3123.96V51.672H3114.17ZM3111.86 81V73.128H3113.98V62.184H3111.86V54.312H3125.02V73.128H3127.13V81H3111.86ZM3147.56 81.672C3143.02 81.672 3139.47 80.488 3136.91 78.12C3134.35 75.72 3133.07 72.232 3133.07 67.656C3133.07 63.08 3134.35 59.608 3136.91 57.24C3139.47 54.84 3143.02 53.64 3147.56 53.64C3152.07 53.64 3155.32 54.824 3157.31 57.192C3159.32 59.528 3160.33 62.44 3160.33 65.928V69.384H3144.78V69.672C3144.78 70.856 3145.13 71.736 3145.83 72.312C3146.54 72.856 3147.71 73.128 3149.34 73.128C3151.29 73.128 3153.15 72.984 3154.91 72.696C3156.67 72.408 3158.2 72.04 3159.51 71.592V79.272C3158.39 79.88 3156.75 80.44 3154.57 80.952C3152.43 81.432 3150.09 81.672 3147.56 81.672ZM3150.35 64.104V63.528C3150.35 62.44 3150.11 61.656 3149.63 61.176C3149.18 60.696 3148.49 60.456 3147.56 60.456C3146.63 60.456 3145.93 60.712 3145.45 61.224C3145 61.704 3144.78 62.472 3144.78 63.528V64.104H3150.35ZM3187.05 53.64C3187.69 53.64 3188.3 53.704 3188.88 53.832C3189.45 53.96 3189.93 54.12 3190.32 54.312V63.48C3189.01 62.936 3187.6 62.664 3186.09 62.664C3184.08 62.664 3182.53 63.192 3181.44 64.248C3180.35 65.304 3179.81 66.872 3179.81 68.952V73.128H3184.13V81H3166.65V73.128H3168.77V62.184H3166.65V54.312H3179.81V57.816C3180.7 56.472 3181.73 55.448 3182.88 54.744C3184.03 54.008 3185.42 53.64 3187.05 53.64ZM3227.72 81.672C3224.32 81.672 3221.76 80.856 3220.04 79.224C3218.34 77.56 3217.49 74.776 3217.49 70.872V62.184H3215.38V54.312C3216.6 54.312 3217.51 54.008 3218.12 53.4C3218.72 52.76 3219.03 51.896 3219.03 50.808V48.648H3229.2V54.312H3235.68V62.184H3229.2V70.056C3229.2 71.112 3229.43 71.896 3229.88 72.408C3230.36 72.888 3231.06 73.128 3231.99 73.128C3233.2 73.128 3234.53 72.984 3235.97 72.696V80.232C3235.08 80.584 3233.86 80.904 3232.32 81.192C3230.82 81.512 3229.28 81.672 3227.72 81.672ZM3274.19 73.128V81H3259.02V73.128H3261.04V65.256C3261.04 64.2 3260.81 63.432 3260.37 62.952C3259.92 62.44 3259.25 62.184 3258.35 62.184C3256.43 62.184 3255.47 63.208 3255.47 65.256V73.128H3257.49V81H3242.32V73.128H3244.43V51.528H3242.32V43.656H3255.47V58.056C3256.65 56.584 3257.93 55.48 3259.31 54.744C3260.69 54.008 3262.29 53.64 3264.11 53.64C3266.77 53.64 3268.75 54.472 3270.06 56.136C3271.41 57.8 3272.08 60.088 3272.08 63V73.128H3274.19ZM3308.52 73.128V81H3295.85V77.736C3295.15 78.76 3294.15 79.672 3292.87 80.472C3291.63 81.272 3290.09 81.672 3288.27 81.672C3285.87 81.672 3283.98 81.032 3282.6 79.752C3281.23 78.472 3280.54 76.664 3280.54 74.328C3280.54 68.28 3285.67 65.176 3295.95 65.016C3295.85 63.928 3295.43 63.192 3294.7 62.808C3293.96 62.392 3292.71 62.184 3290.95 62.184C3289.51 62.184 3287.96 62.344 3286.3 62.664C3284.67 62.952 3283.16 63.352 3281.79 63.864V55.032C3283.48 54.616 3285.32 54.28 3287.31 54.024C3289.29 53.768 3291.23 53.64 3293.11 53.64C3297.88 53.64 3301.29 54.504 3303.34 56.232C3305.39 57.96 3306.41 60.632 3306.41 64.248V73.128H3308.52ZM3295.85 69.768C3294.41 69.768 3293.29 69.96 3292.49 70.344C3291.72 70.728 3291.34 71.368 3291.34 72.264C3291.34 72.808 3291.5 73.256 3291.82 73.608C3292.17 73.928 3292.65 74.088 3293.26 74.088C3294.09 74.088 3294.73 73.736 3295.18 73.032C3295.63 72.328 3295.85 71.336 3295.85 70.056V69.768ZM3346.74 73.128V81H3331.57V73.128H3333.59V65.256C3333.59 64.2 3333.37 63.432 3332.92 62.952C3332.47 62.44 3331.8 62.184 3330.9 62.184C3328.98 62.184 3328.02 63.208 3328.02 65.256V73.128H3330.04V81H3314.87V73.128H3316.98V62.184H3314.87V54.312H3328.02V58.056C3330.33 55.112 3333.21 53.64 3336.66 53.64C3339.32 53.64 3341.3 54.472 3342.61 56.136C3343.96 57.8 3344.63 60.088 3344.63 63V73.128H3346.74ZM3401.18 54.312V62.184H3399.35L3393.07 78.84C3391.5 83.032 3389.71 86.168 3387.69 88.248C3385.67 90.36 3383.02 91.416 3379.72 91.416C3378.38 91.416 3377.02 91.272 3375.64 90.984C3374.27 90.728 3373.02 90.36 3371.9 89.88V81.192H3378.52V81.672C3378.52 82.472 3378.94 82.872 3379.77 82.872C3380.51 82.872 3381.07 82.52 3381.45 81.816L3373.87 62.184H3372.04V54.312H3386.3V62.184H3384.67L3387.16 69.672L3389.47 62.184H3387.83V54.312H3401.18ZM3421.71 81.672C3417.17 81.672 3413.62 80.488 3411.06 78.12C3408.5 75.72 3407.22 72.232 3407.22 67.656C3407.22 63.08 3408.5 59.608 3411.06 57.24C3413.62 54.84 3417.17 53.64 3421.71 53.64C3426.32 53.64 3429.89 54.856 3432.42 57.288C3434.95 59.688 3436.21 63.144 3436.21 67.656C3436.21 72.232 3434.93 75.72 3432.37 78.12C3429.81 80.488 3426.26 81.672 3421.71 81.672ZM3421.71 73.128C3422.64 73.128 3423.33 72.888 3423.78 72.408C3424.26 71.896 3424.5 71.112 3424.5 70.056V65.256C3424.5 64.2 3424.26 63.432 3423.78 62.952C3423.33 62.44 3422.64 62.184 3421.71 62.184C3420.79 62.184 3420.08 62.44 3419.6 62.952C3419.15 63.432 3418.93 64.2 3418.93 65.256V70.056C3418.93 71.112 3419.15 71.896 3419.6 72.408C3420.08 72.888 3420.79 73.128 3421.71 73.128ZM3474.12 73.128V81H3460.97V77.256C3458.67 80.2 3455.79 81.672 3452.33 81.672C3449.67 81.672 3447.67 80.84 3446.33 79.176C3445.02 77.512 3444.36 75.224 3444.36 72.312V62.184H3442.25V54.312H3455.4V70.056C3455.4 71.112 3455.63 71.896 3456.07 72.408C3456.55 72.888 3457.26 73.128 3458.19 73.128C3459.11 73.128 3459.8 72.888 3460.25 72.408C3460.73 71.896 3460.97 71.112 3460.97 70.056V62.184H3458.38V54.312H3472.01V73.128H3474.12ZM3481.3 81V73.128H3488.79V81H3481.3Z" fill="black"/>
<path d="M1006.62 17.4395C1006.67 9.56139 1007.89 -4.32887 1012.41 3.13455C1015.9 8.89767 1016.98 10.8012 1017.15 11.1679C1021.83 12.6041 1031.08 15.7443 1031.08 16.9557C1035.58 14.3988 1044.44 10.2524 1043.89 14.1224C1043.34 17.9923 1038.88 25.4557 1036.73 28.7037C1036.54 32.8961 1034.92 41.4053 1029.91 41.9029C1030.14 44.1834 1030.83 49.1728 1031.77 50.8867C1032.94 53.0289 1032.8 63.4639 1035.69 65.7444C1042.37 65.9978 1056.83 68.5501 1061.18 76.7322C1064.49 81.0859 1071.43 90.1387 1072.76 91.5209C1074.41 93.2485 1078.34 97.6713 1081.09 99.0534C1083.3 100.159 1088.9 101.91 1091.42 102.647C1095.79 103.384 1104.18 105.466 1102.86 107.899C1101.21 110.94 1097.97 112.114 1091.42 110.663C1084.88 109.212 1077.23 106.655 1075.65 106.655C1074.06 106.655 1067.11 106.24 1065.59 102.647C1064.08 99.0534 1058.98 94.5615 1052.29 94.2851C1046.95 94.064 1044.92 93.5019 1044.58 93.2485C1045.02 96.7268 1044.98 103.476 1041.34 102.647C1036.79 101.61 1033.9 95.3217 1034.8 94.2851H1029.49C1029.29 94.2851 1023.29 98.0859 1026.39 100.366C1029.49 102.647 1034.11 101.749 1032.18 106.655C1030.64 110.58 1028.64 116.123 1027.84 118.403C1028.14 120.753 1028.56 125.631 1027.84 126.35L1024.46 129.736C1023.71 130.497 1018.33 129.944 1018.33 123.586C1018.33 118.5 1019.76 112.852 1020.47 110.663C1020.03 109.327 1017.75 106.655 1012.13 106.655C1006.51 106.655 998.4 99.8366 995.047 96.4274L990.776 89.1022C989.926 87.3515 988.227 85.2599 988.227 90.8989C988.227 97.9477 988.433 101.956 983.818 101.956C979.202 101.956 974.449 97.3949 978.582 93.2485C978.858 89.1252 979.409 80.3534 979.409 78.2526C979.409 75.6265 977.48 57.1062 979.409 55.1712C981.338 53.2363 992.98 39.1387 994.014 38.1021C995.047 37.0655 1002.42 31.3297 1003.73 30.0167C1005.04 28.7037 1002 22.0695 1006.62 17.4395Z" fill="#FFC898"/>
<path d="M1153.96 74.128H1156.36V52.528H1153.96V44.656H1175.99C1179.99 44.656 1183.11 45.472 1185.35 47.104C1187.59 48.736 1188.71 51.072 1188.71 54.112C1188.71 56 1188.26 57.6 1187.37 58.912C1186.47 60.192 1185.42 61.168 1184.2 61.84C1183.02 62.48 1181.86 62.912 1180.74 63.136V63.616C1183.02 63.84 1185.06 64.56 1186.89 65.776C1188.71 66.992 1189.62 69.168 1189.62 72.304C1189.62 75.664 1188.36 78.128 1185.83 79.696C1183.3 81.232 1180.02 82 1175.99 82H1153.96V74.128ZM1172.39 60.4C1173.32 60.4 1174.01 60.16 1174.46 59.68C1174.94 59.168 1175.18 58.384 1175.18 57.328V55.6C1175.18 54.544 1174.94 53.776 1174.46 53.296C1174.01 52.784 1173.32 52.528 1172.39 52.528H1169.8V60.4H1172.39ZM1172.73 74.128C1173.66 74.128 1174.34 73.888 1174.79 73.408C1175.27 72.896 1175.51 72.112 1175.51 71.056V68.944C1175.51 67.888 1175.27 67.12 1174.79 66.64C1174.34 66.128 1173.66 65.872 1172.73 65.872H1169.8V74.128H1172.73ZM1210.19 82.672C1205.64 82.672 1202.09 81.488 1199.53 79.12C1196.97 76.72 1195.69 73.232 1195.69 68.656C1195.69 64.08 1196.97 60.608 1199.53 58.24C1202.09 55.84 1205.64 54.64 1210.19 54.64C1214.7 54.64 1217.95 55.824 1219.93 58.192C1221.95 60.528 1222.95 63.44 1222.95 66.928V70.384H1207.4V70.672C1207.4 71.856 1207.75 72.736 1208.46 73.312C1209.16 73.856 1210.33 74.128 1211.96 74.128C1213.91 74.128 1215.77 73.984 1217.53 73.696C1219.29 73.408 1220.83 73.04 1222.14 72.592V80.272C1221.02 80.88 1219.37 81.44 1217.19 81.952C1215.05 82.432 1212.71 82.672 1210.19 82.672ZM1212.97 65.104V64.528C1212.97 63.44 1212.73 62.656 1212.25 62.176C1211.8 61.696 1211.11 61.456 1210.19 61.456C1209.26 61.456 1208.55 61.712 1208.07 62.224C1207.63 62.704 1207.4 63.472 1207.4 64.528V65.104H1212.97ZM1241.04 82.672C1237.65 82.672 1235.09 81.856 1233.36 80.224C1231.66 78.56 1230.81 75.776 1230.81 71.872V63.184H1228.7V55.312C1229.92 55.312 1230.83 55.008 1231.44 54.4C1232.05 53.76 1232.35 52.896 1232.35 51.808V49.648H1242.53V55.312H1249.01V63.184H1242.53V71.056C1242.53 72.112 1242.75 72.896 1243.2 73.408C1243.68 73.888 1244.38 74.128 1245.31 74.128C1246.53 74.128 1247.85 73.984 1249.29 73.696V81.232C1248.4 81.584 1247.18 81.904 1245.65 82.192C1244.14 82.512 1242.61 82.672 1241.04 82.672ZM1267.5 82.672C1264.1 82.672 1261.54 81.856 1259.82 80.224C1258.12 78.56 1257.27 75.776 1257.27 71.872V63.184H1255.16V55.312C1256.38 55.312 1257.29 55.008 1257.9 54.4C1258.5 53.76 1258.81 52.896 1258.81 51.808V49.648H1268.98V55.312H1275.46V63.184H1268.98V71.056C1268.98 72.112 1269.21 72.896 1269.66 73.408C1270.14 73.888 1270.84 74.128 1271.77 74.128C1272.98 74.128 1274.31 73.984 1275.75 73.696V81.232C1274.86 81.584 1273.64 81.904 1272.1 82.192C1270.6 82.512 1269.06 82.672 1267.5 82.672ZM1296.4 82.672C1291.86 82.672 1288.3 81.488 1285.74 79.12C1283.18 76.72 1281.9 73.232 1281.9 68.656C1281.9 64.08 1283.18 60.608 1285.74 58.24C1288.3 55.84 1291.86 54.64 1296.4 54.64C1300.91 54.64 1304.16 55.824 1306.14 58.192C1308.16 60.528 1309.17 63.44 1309.17 66.928V70.384H1293.62V70.672C1293.62 71.856 1293.97 72.736 1294.67 73.312C1295.38 73.856 1296.54 74.128 1298.18 74.128C1300.13 74.128 1301.98 73.984 1303.74 73.696C1305.5 73.408 1307.04 73.04 1308.35 72.592V80.272C1307.23 80.88 1305.58 81.44 1303.41 81.952C1301.26 82.432 1298.93 82.672 1296.4 82.672ZM1299.18 65.104V64.528C1299.18 63.44 1298.94 62.656 1298.46 62.176C1298.02 61.696 1297.33 61.456 1296.4 61.456C1295.47 61.456 1294.77 61.712 1294.29 62.224C1293.84 62.704 1293.62 63.472 1293.62 64.528V65.104H1299.18ZM1335.89 54.64C1336.53 54.64 1337.14 54.704 1337.72 54.832C1338.29 54.96 1338.77 55.12 1339.16 55.312V64.48C1337.84 63.936 1336.44 63.664 1334.93 63.664C1332.92 63.664 1331.36 64.192 1330.28 65.248C1329.19 66.304 1328.64 67.872 1328.64 69.952V74.128H1332.96V82H1315.49V74.128H1317.6V63.184H1315.49V55.312H1328.64V58.816C1329.54 57.472 1330.56 56.448 1331.72 55.744C1332.87 55.008 1334.26 54.64 1335.89 54.64ZM1383.42 82.672C1377.37 82.672 1372.7 81.136 1369.4 78.064C1366.14 74.992 1364.51 70.08 1364.51 63.328C1364.51 50.432 1370.78 43.984 1383.32 43.984C1386.36 43.984 1389.18 44.352 1391.77 45.088C1394.39 45.824 1396.35 46.64 1397.63 47.536V59.536H1386.11V56.08C1386.11 54.864 1385.83 53.968 1385.29 53.392C1384.75 52.816 1383.93 52.528 1382.84 52.528C1381.75 52.528 1380.94 52.816 1380.39 53.392C1379.85 53.968 1379.58 54.864 1379.58 56.08V70.576C1379.58 71.792 1379.85 72.688 1380.39 73.264C1380.94 73.84 1381.75 74.128 1382.84 74.128C1383.93 74.128 1384.75 73.84 1385.29 73.264C1385.83 72.688 1386.11 71.792 1386.11 70.576V66.688H1397.63V79.12C1396.31 80.016 1394.36 80.832 1391.77 81.568C1389.21 82.304 1386.43 82.672 1383.42 82.672ZM1436.01 74.128V82H1420.84V74.128H1422.86V66.256C1422.86 65.2 1422.63 64.432 1422.19 63.952C1421.74 63.44 1421.07 63.184 1420.17 63.184C1418.25 63.184 1417.29 64.208 1417.29 66.256V74.128H1419.31V82H1404.14V74.128H1406.25V52.528H1404.14V44.656H1417.29V59.056C1418.47 57.584 1419.75 56.48 1421.13 55.744C1422.51 55.008 1424.11 54.64 1425.93 54.64C1428.59 54.64 1430.57 55.472 1431.88 57.136C1433.23 58.8 1433.9 61.088 1433.9 64V74.128H1436.01ZM1456.66 82.672C1452.12 82.672 1448.57 81.488 1446.01 79.12C1443.45 76.72 1442.17 73.232 1442.17 68.656C1442.17 64.08 1443.45 60.608 1446.01 58.24C1448.57 55.84 1452.12 54.64 1456.66 54.64C1461.27 54.64 1464.84 55.856 1467.37 58.288C1469.9 60.688 1471.16 64.144 1471.16 68.656C1471.16 73.232 1469.88 76.72 1467.32 79.12C1464.76 81.488 1461.21 82.672 1456.66 82.672ZM1456.66 74.128C1457.59 74.128 1458.28 73.888 1458.73 73.408C1459.21 72.896 1459.45 72.112 1459.45 71.056V66.256C1459.45 65.2 1459.21 64.432 1458.73 63.952C1458.28 63.44 1457.59 63.184 1456.66 63.184C1455.74 63.184 1455.03 63.44 1454.55 63.952C1454.1 64.432 1453.88 65.2 1453.88 66.256V71.056C1453.88 72.112 1454.1 72.896 1454.55 73.408C1455.03 73.888 1455.74 74.128 1456.66 74.128ZM1479.79 52.672V44.656H1489.59V52.672H1479.79ZM1477.49 82V74.128H1479.6V63.184H1477.49V55.312H1490.64V74.128H1492.75V82H1477.49ZM1513.23 82.672C1508.66 82.672 1505.09 81.488 1502.53 79.12C1499.97 76.72 1498.69 73.232 1498.69 68.656C1498.69 64.08 1499.97 60.608 1502.53 58.24C1505.09 55.84 1508.64 54.64 1513.19 54.64C1515.39 54.64 1517.51 54.944 1519.52 55.552C1521.54 56.16 1523.11 56.848 1524.23 57.616V67.12H1515.97V66.256C1515.97 65.2 1515.75 64.432 1515.3 63.952C1514.85 63.44 1514.15 63.184 1513.19 63.184C1511.33 63.184 1510.4 64.208 1510.4 66.256V70.384C1510.4 72.88 1511.83 74.128 1514.67 74.128C1517.33 74.128 1520.42 73.84 1523.94 73.264V80.8C1522.85 81.28 1521.31 81.712 1519.33 82.096C1517.38 82.48 1515.35 82.672 1513.23 82.672ZM1544.94 82.672C1540.4 82.672 1536.84 81.488 1534.28 79.12C1531.72 76.72 1530.44 73.232 1530.44 68.656C1530.44 64.08 1531.72 60.608 1534.28 58.24C1536.84 55.84 1540.4 54.64 1544.94 54.64C1549.45 54.64 1552.7 55.824 1554.68 58.192C1556.7 60.528 1557.71 63.44 1557.71 66.928V70.384H1542.16V70.672C1542.16 71.856 1542.51 72.736 1543.21 73.312C1543.92 73.856 1545.08 74.128 1546.72 74.128C1548.67 74.128 1550.52 73.984 1552.28 73.696C1554.04 73.408 1555.58 73.04 1556.89 72.592V80.272C1555.77 80.88 1554.12 81.44 1551.95 81.952C1549.8 82.432 1547.47 82.672 1544.94 82.672ZM1547.72 65.104V64.528C1547.72 63.44 1547.48 62.656 1547 62.176C1546.56 61.696 1545.87 61.456 1544.94 61.456C1544.01 61.456 1543.31 61.712 1542.83 62.224C1542.38 62.704 1542.16 63.472 1542.16 64.528V65.104H1547.72ZM1583.13 74.128H1585.24V63.184H1583.13V55.312H1585.33C1585.33 51.408 1586.28 48.544 1588.17 46.72C1590.09 44.896 1592.87 43.984 1596.52 43.984C1598.28 43.984 1599.85 44.112 1601.22 44.368C1602.63 44.624 1603.65 44.912 1604.29 45.232V52.768C1602.6 52.608 1601.03 52.528 1599.59 52.528C1598.34 52.528 1597.48 52.736 1597 53.152C1596.52 53.568 1596.28 54.288 1596.28 55.312H1600.02V63.184H1596.28V74.128H1600.02V82H1583.13V74.128ZM1620.65 82.672C1616.11 82.672 1612.56 81.488 1610 79.12C1607.44 76.72 1606.16 73.232 1606.16 68.656C1606.16 64.08 1607.44 60.608 1610 58.24C1612.56 55.84 1616.11 54.64 1620.65 54.64C1625.26 54.64 1628.83 55.856 1631.36 58.288C1633.88 60.688 1635.15 64.144 1635.15 68.656C1635.15 73.232 1633.87 76.72 1631.31 79.12C1628.75 81.488 1625.2 82.672 1620.65 82.672ZM1620.65 74.128C1621.58 74.128 1622.27 73.888 1622.72 73.408C1623.2 72.896 1623.44 72.112 1623.44 71.056V66.256C1623.44 65.2 1623.2 64.432 1622.72 63.952C1622.27 63.44 1621.58 63.184 1620.65 63.184C1619.72 63.184 1619.02 63.44 1618.54 63.952C1618.09 64.432 1617.87 65.2 1617.87 66.256V71.056C1617.87 72.112 1618.09 72.896 1618.54 73.408C1619.02 73.888 1619.72 74.128 1620.65 74.128ZM1661.97 54.64C1662.61 54.64 1663.22 54.704 1663.8 54.832C1664.37 54.96 1664.85 55.12 1665.24 55.312V64.48C1663.92 63.936 1662.52 63.664 1661.01 63.664C1659 63.664 1657.44 64.192 1656.36 65.248C1655.27 66.304 1654.72 67.872 1654.72 69.952V74.128H1659.04V82H1641.57V74.128H1643.68V63.184H1641.57V55.312H1654.72V58.816C1655.62 57.472 1656.64 56.448 1657.8 55.744C1658.95 55.008 1660.34 54.64 1661.97 54.64ZM1705.13 82.672C1700.56 82.672 1696.99 81.488 1694.43 79.12C1691.87 76.72 1690.59 73.232 1690.59 68.656C1690.59 64.08 1691.87 60.608 1694.43 58.24C1696.99 55.84 1700.54 54.64 1705.08 54.64C1707.29 54.64 1709.4 54.944 1711.42 55.552C1713.44 56.16 1715 56.848 1716.12 57.616V67.12H1707.87V66.256C1707.87 65.2 1707.64 64.432 1707.2 63.952C1706.75 63.44 1706.04 63.184 1705.08 63.184C1703.23 63.184 1702.3 64.208 1702.3 66.256V70.384C1702.3 72.88 1703.72 74.128 1706.57 74.128C1709.23 74.128 1712.32 73.84 1715.84 73.264V80.8C1714.75 81.28 1713.21 81.712 1711.23 82.096C1709.28 82.48 1707.24 82.672 1705.13 82.672ZM1750.52 74.128V82H1737.84V78.736C1737.14 79.76 1736.15 80.672 1734.87 81.472C1733.62 82.272 1732.08 82.672 1730.26 82.672C1727.86 82.672 1725.97 82.032 1724.6 80.752C1723.22 79.472 1722.53 77.664 1722.53 75.328C1722.53 69.28 1727.67 66.176 1737.94 66.016C1737.84 64.928 1737.43 64.192 1736.69 63.808C1735.96 63.392 1734.71 63.184 1732.95 63.184C1731.51 63.184 1729.96 63.344 1728.29 63.664C1726.66 63.952 1725.16 64.352 1723.78 64.864V56.032C1725.48 55.616 1727.32 55.28 1729.3 55.024C1731.28 54.768 1733.22 54.64 1735.11 54.64C1739.88 54.64 1743.28 55.504 1745.33 57.232C1747.38 58.96 1748.4 61.632 1748.4 65.248V74.128H1750.52ZM1737.84 70.768C1736.4 70.768 1735.28 70.96 1734.48 71.344C1733.72 71.728 1733.33 72.368 1733.33 73.264C1733.33 73.808 1733.49 74.256 1733.81 74.608C1734.16 74.928 1734.64 75.088 1735.25 75.088C1736.08 75.088 1736.72 74.736 1737.17 74.032C1737.62 73.328 1737.84 72.336 1737.84 71.056V70.768ZM1768.72 82.672C1765.33 82.672 1762.77 81.856 1761.04 80.224C1759.34 78.56 1758.5 75.776 1758.5 71.872V63.184H1756.38V55.312C1757.6 55.312 1758.51 55.008 1759.12 54.4C1759.73 53.76 1760.03 52.896 1760.03 51.808V49.648H1770.21V55.312H1776.69V63.184H1770.21V71.056C1770.21 72.112 1770.43 72.896 1770.88 73.408C1771.36 73.888 1772.06 74.128 1772.99 74.128C1774.21 74.128 1775.54 73.984 1776.98 73.696V81.232C1776.08 81.584 1774.86 81.904 1773.33 82.192C1771.82 82.512 1770.29 82.672 1768.72 82.672ZM1794.98 82.672C1790.95 82.672 1787.06 82.032 1783.32 80.752V73.648H1791.1V74.128C1791.1 75.664 1792.07 76.432 1794.02 76.432C1795.75 76.432 1796.62 75.84 1796.62 74.656C1796.62 74.016 1796.36 73.536 1795.85 73.216C1795.37 72.896 1794.5 72.624 1793.26 72.4L1790.86 71.968C1785.83 71.072 1783.32 68.224 1783.32 63.424C1783.32 60.64 1784.38 58.48 1786.49 56.944C1788.6 55.408 1791.45 54.64 1795.03 54.64C1799.03 54.64 1802.41 55.312 1805.16 56.656V63.328H1797.86V62.848C1797.86 62.208 1797.64 61.728 1797.19 61.408C1796.78 61.056 1796.15 60.88 1795.32 60.88C1793.72 60.88 1792.92 61.392 1792.92 62.416C1792.92 62.96 1793.14 63.376 1793.59 63.664C1794.04 63.952 1794.86 64.224 1796.04 64.48L1798.78 65.008C1801.62 65.552 1803.66 66.56 1804.87 68.032C1806.09 69.504 1806.7 71.392 1806.7 73.696C1806.7 76.608 1805.67 78.832 1803.62 80.368C1801.61 81.904 1798.73 82.672 1794.98 82.672ZM1814.07 82V74.128H1821.55V82H1814.07Z" fill="black"/>
<path d="M3585.62 16.4395C3585.67 8.56139 3586.89 -5.32887 3591.41 2.13455C3594.9 7.89767 3595.98 9.80123 3596.15 10.1679C3600.83 11.6041 3610.08 14.7443 3610.08 15.9557C3614.58 13.3988 3623.44 9.25245 3622.89 13.1224C3622.34 16.9923 3617.88 24.4557 3615.73 27.7037C3615.54 31.8961 3613.92 40.4053 3608.91 40.9029C3609.14 43.1834 3609.83 48.1728 3610.77 49.8867C3611.94 52.0289 3611.8 62.4639 3614.69 64.7444C3621.37 64.9978 3635.83 67.5501 3640.18 75.7322C3643.49 80.0859 3650.43 89.1387 3651.76 90.5209C3653.41 92.2485 3657.34 96.6713 3660.09 98.0534C3662.3 99.1591 3667.9 100.91 3670.42 101.647C3674.79 102.384 3683.18 104.466 3681.86 106.899C3680.21 109.94 3676.97 111.114 3670.42 109.663C3663.88 108.212 3656.23 105.655 3654.65 105.655C3653.06 105.655 3646.11 105.24 3644.59 101.647C3643.08 98.0534 3637.98 93.5615 3631.29 93.2851C3625.95 93.064 3623.92 92.5019 3623.58 92.2485C3624.02 95.7268 3623.98 102.476 3620.34 101.647C3615.79 100.61 3612.9 94.3217 3613.8 93.2851H3608.49C3608.29 93.2851 3602.29 97.0859 3605.39 99.3664C3608.49 101.647 3613.11 100.749 3611.18 105.655C3609.64 109.58 3607.64 115.123 3606.84 117.403C3607.14 119.753 3607.56 124.631 3606.84 125.35L3603.46 128.736C3602.71 129.497 3597.33 128.944 3597.33 122.586C3597.33 117.5 3598.76 111.852 3599.47 109.663C3599.03 108.327 3596.75 105.655 3591.13 105.655C3585.51 105.655 3577.4 98.8366 3574.05 95.4274L3569.78 88.1022C3568.93 86.3515 3567.23 84.2599 3567.23 89.8989C3567.23 96.9477 3567.43 100.956 3562.82 100.956C3558.2 100.956 3553.45 96.3949 3557.58 92.2485C3557.86 88.1252 3558.41 79.3534 3558.41 77.2526C3558.41 74.6265 3556.48 56.1062 3558.41 54.1712C3560.34 52.2363 3571.98 38.1387 3573.01 37.1021C3574.05 36.0655 3581.42 30.3297 3582.73 29.0167C3584.04 27.7037 3581 21.0695 3585.62 16.4395Z" fill="#FFC898"/>
<path d="M3732.96 73.128H3735.36V51.528H3732.96V43.656H3754.99C3758.99 43.656 3762.11 44.472 3764.35 46.104C3766.59 47.736 3767.71 50.072 3767.71 53.112C3767.71 55 3767.26 56.6 3766.37 57.912C3765.47 59.192 3764.42 60.168 3763.2 60.84C3762.02 61.48 3760.86 61.912 3759.74 62.136V62.616C3762.02 62.84 3764.06 63.56 3765.89 64.776C3767.71 65.992 3768.62 68.168 3768.62 71.304C3768.62 74.664 3767.36 77.128 3764.83 78.696C3762.3 80.232 3759.02 81 3754.99 81H3732.96V73.128ZM3751.39 59.4C3752.32 59.4 3753.01 59.16 3753.46 58.68C3753.94 58.168 3754.18 57.384 3754.18 56.328V54.6C3754.18 53.544 3753.94 52.776 3753.46 52.296C3753.01 51.784 3752.32 51.528 3751.39 51.528H3748.8V59.4H3751.39ZM3751.73 73.128C3752.66 73.128 3753.34 72.888 3753.79 72.408C3754.27 71.896 3754.51 71.112 3754.51 70.056V67.944C3754.51 66.888 3754.27 66.12 3753.79 65.64C3753.34 65.128 3752.66 64.872 3751.73 64.872H3748.8V73.128H3751.73ZM3789.19 81.672C3784.64 81.672 3781.09 80.488 3778.53 78.12C3775.97 75.72 3774.69 72.232 3774.69 67.656C3774.69 63.08 3775.97 59.608 3778.53 57.24C3781.09 54.84 3784.64 53.64 3789.19 53.64C3793.7 53.64 3796.95 54.824 3798.93 57.192C3800.95 59.528 3801.95 62.44 3801.95 65.928V69.384H3786.4V69.672C3786.4 70.856 3786.75 71.736 3787.46 72.312C3788.16 72.856 3789.33 73.128 3790.96 73.128C3792.91 73.128 3794.77 72.984 3796.53 72.696C3798.29 72.408 3799.83 72.04 3801.14 71.592V79.272C3800.02 79.88 3798.37 80.44 3796.19 80.952C3794.05 81.432 3791.71 81.672 3789.19 81.672ZM3791.97 64.104V63.528C3791.97 62.44 3791.73 61.656 3791.25 61.176C3790.8 60.696 3790.11 60.456 3789.19 60.456C3788.26 60.456 3787.55 60.712 3787.07 61.224C3786.63 61.704 3786.4 62.472 3786.4 63.528V64.104H3791.97ZM3820.04 81.672C3816.65 81.672 3814.09 80.856 3812.36 79.224C3810.66 77.56 3809.81 74.776 3809.81 70.872V62.184H3807.7V54.312C3808.92 54.312 3809.83 54.008 3810.44 53.4C3811.05 52.76 3811.35 51.896 3811.35 50.808V48.648H3821.53V54.312H3828.01V62.184H3821.53V70.056C3821.53 71.112 3821.75 71.896 3822.2 72.408C3822.68 72.888 3823.38 73.128 3824.31 73.128C3825.53 73.128 3826.85 72.984 3828.29 72.696V80.232C3827.4 80.584 3826.18 80.904 3824.65 81.192C3823.14 81.512 3821.61 81.672 3820.04 81.672ZM3846.5 81.672C3843.1 81.672 3840.54 80.856 3838.82 79.224C3837.12 77.56 3836.27 74.776 3836.27 70.872V62.184H3834.16V54.312C3835.38 54.312 3836.29 54.008 3836.9 53.4C3837.5 52.76 3837.81 51.896 3837.81 50.808V48.648H3847.98V54.312H3854.46V62.184H3847.98V70.056C3847.98 71.112 3848.21 71.896 3848.66 72.408C3849.14 72.888 3849.84 73.128 3850.77 73.128C3851.98 73.128 3853.31 72.984 3854.75 72.696V80.232C3853.86 80.584 3852.64 80.904 3851.1 81.192C3849.6 81.512 3848.06 81.672 3846.5 81.672ZM3875.4 81.672C3870.86 81.672 3867.3 80.488 3864.74 78.12C3862.18 75.72 3860.9 72.232 3860.9 67.656C3860.9 63.08 3862.18 59.608 3864.74 57.24C3867.3 54.84 3870.86 53.64 3875.4 53.64C3879.91 53.64 3883.16 54.824 3885.14 57.192C3887.16 59.528 3888.17 62.44 3888.17 65.928V69.384H3872.62V69.672C3872.62 70.856 3872.97 71.736 3873.67 72.312C3874.38 72.856 3875.54 73.128 3877.18 73.128C3879.13 73.128 3880.98 72.984 3882.74 72.696C3884.5 72.408 3886.04 72.04 3887.35 71.592V79.272C3886.23 79.88 3884.58 80.44 3882.41 80.952C3880.26 81.432 3877.93 81.672 3875.4 81.672ZM3878.18 64.104V63.528C3878.18 62.44 3877.94 61.656 3877.46 61.176C3877.02 60.696 3876.33 60.456 3875.4 60.456C3874.47 60.456 3873.77 60.712 3873.29 61.224C3872.84 61.704 3872.62 62.472 3872.62 63.528V64.104H3878.18ZM3914.89 53.64C3915.53 53.64 3916.14 53.704 3916.72 53.832C3917.29 53.96 3917.77 54.12 3918.16 54.312V63.48C3916.84 62.936 3915.44 62.664 3913.93 62.664C3911.92 62.664 3910.36 63.192 3909.28 64.248C3908.19 65.304 3907.64 66.872 3907.64 68.952V73.128H3911.96V81H3894.49V73.128H3896.6V62.184H3894.49V54.312H3907.64V57.816C3908.54 56.472 3909.56 55.448 3910.72 54.744C3911.87 54.008 3913.26 53.64 3914.89 53.64ZM3962.42 81.672C3956.37 81.672 3951.7 80.136 3948.4 77.064C3945.14 73.992 3943.51 69.08 3943.51 62.328C3943.51 49.432 3949.78 42.984 3962.32 42.984C3965.36 42.984 3968.18 43.352 3970.77 44.088C3973.39 44.824 3975.35 45.64 3976.63 46.536V58.536H3965.11V55.08C3965.11 53.864 3964.83 52.968 3964.29 52.392C3963.75 51.816 3962.93 51.528 3961.84 51.528C3960.75 51.528 3959.94 51.816 3959.39 52.392C3958.85 52.968 3958.58 53.864 3958.58 55.08V69.576C3958.58 70.792 3958.85 71.688 3959.39 72.264C3959.94 72.84 3960.75 73.128 3961.84 73.128C3962.93 73.128 3963.75 72.84 3964.29 72.264C3964.83 71.688 3965.11 70.792 3965.11 69.576V65.688H3976.63V78.12C3975.31 79.016 3973.36 79.832 3970.77 80.568C3968.21 81.304 3965.43 81.672 3962.42 81.672ZM4015.01 73.128V81H3999.84V73.128H4001.86V65.256C4001.86 64.2 4001.63 63.432 4001.19 62.952C4000.74 62.44 4000.07 62.184 3999.17 62.184C3997.25 62.184 3996.29 63.208 3996.29 65.256V73.128H3998.31V81H3983.14V73.128H3985.25V51.528H3983.14V43.656H3996.29V58.056C3997.47 56.584 3998.75 55.48 4000.13 54.744C4001.51 54.008 4003.11 53.64 4004.93 53.64C4007.59 53.64 4009.57 54.472 4010.88 56.136C4012.23 57.8 4012.9 60.088 4012.9 63V73.128H4015.01ZM4035.66 81.672C4031.12 81.672 4027.57 80.488 4025.01 78.12C4022.45 75.72 4021.17 72.232 4021.17 67.656C4021.17 63.08 4022.45 59.608 4025.01 57.24C4027.57 54.84 4031.12 53.64 4035.66 53.64C4040.27 53.64 4043.84 54.856 4046.37 57.288C4048.9 59.688 4050.16 63.144 4050.16 67.656C4050.16 72.232 4048.88 75.72 4046.32 78.12C4043.76 80.488 4040.21 81.672 4035.66 81.672ZM4035.66 73.128C4036.59 73.128 4037.28 72.888 4037.73 72.408C4038.21 71.896 4038.45 71.112 4038.45 70.056V65.256C4038.45 64.2 4038.21 63.432 4037.73 62.952C4037.28 62.44 4036.59 62.184 4035.66 62.184C4034.74 62.184 4034.03 62.44 4033.55 62.952C4033.1 63.432 4032.88 64.2 4032.88 65.256V70.056C4032.88 71.112 4033.1 71.896 4033.55 72.408C4034.03 72.888 4034.74 73.128 4035.66 73.128ZM4058.79 51.672V43.656H4068.59V51.672H4058.79ZM4056.49 81V73.128H4058.6V62.184H4056.49V54.312H4069.64V73.128H4071.75V81H4056.49ZM4092.23 81.672C4087.66 81.672 4084.09 80.488 4081.53 78.12C4078.97 75.72 4077.69 72.232 4077.69 67.656C4077.69 63.08 4078.97 59.608 4081.53 57.24C4084.09 54.84 4087.64 53.64 4092.19 53.64C4094.39 53.64 4096.51 53.944 4098.52 54.552C4100.54 55.16 4102.11 55.848 4103.23 56.616V66.12H4094.97V65.256C4094.97 64.2 4094.75 63.432 4094.3 62.952C4093.85 62.44 4093.15 62.184 4092.19 62.184C4090.33 62.184 4089.4 63.208 4089.4 65.256V69.384C4089.4 71.88 4090.83 73.128 4093.67 73.128C4096.33 73.128 4099.42 72.84 4102.94 72.264V79.8C4101.85 80.28 4100.31 80.712 4098.33 81.096C4096.38 81.48 4094.35 81.672 4092.23 81.672ZM4123.94 81.672C4119.4 81.672 4115.84 80.488 4113.28 78.12C4110.72 75.72 4109.44 72.232 4109.44 67.656C4109.44 63.08 4110.72 59.608 4113.28 57.24C4115.84 54.84 4119.4 53.64 4123.94 53.64C4128.45 53.64 4131.7 54.824 4133.68 57.192C4135.7 59.528 4136.71 62.44 4136.71 65.928V69.384H4121.16V69.672C4121.16 70.856 4121.51 71.736 4122.21 72.312C4122.92 72.856 4124.08 73.128 4125.72 73.128C4127.67 73.128 4129.52 72.984 4131.28 72.696C4133.04 72.408 4134.58 72.04 4135.89 71.592V79.272C4134.77 79.88 4133.12 80.44 4130.95 80.952C4128.8 81.432 4126.47 81.672 4123.94 81.672ZM4126.72 64.104V63.528C4126.72 62.44 4126.48 61.656 4126 61.176C4125.56 60.696 4124.87 60.456 4123.94 60.456C4123.01 60.456 4122.31 60.712 4121.83 61.224C4121.38 61.704 4121.16 62.472 4121.16 63.528V64.104H4126.72ZM4162.13 73.128H4164.24V62.184H4162.13V54.312H4164.33C4164.33 50.408 4165.28 47.544 4167.17 45.72C4169.09 43.896 4171.87 42.984 4175.52 42.984C4177.28 42.984 4178.85 43.112 4180.22 43.368C4181.63 43.624 4182.65 43.912 4183.29 44.232V51.768C4181.6 51.608 4180.03 51.528 4178.59 51.528C4177.34 51.528 4176.48 51.736 4176 52.152C4175.52 52.568 4175.28 53.288 4175.28 54.312H4179.02V62.184H4175.28V73.128H4179.02V81H4162.13V73.128ZM4199.65 81.672C4195.11 81.672 4191.56 80.488 4189 78.12C4186.44 75.72 4185.16 72.232 4185.16 67.656C4185.16 63.08 4186.44 59.608 4189 57.24C4191.56 54.84 4195.11 53.64 4199.65 53.64C4204.26 53.64 4207.83 54.856 4210.36 57.288C4212.88 59.688 4214.15 63.144 4214.15 67.656C4214.15 72.232 4212.87 75.72 4210.31 78.12C4207.75 80.488 4204.2 81.672 4199.65 81.672ZM4199.65 73.128C4200.58 73.128 4201.27 72.888 4201.72 72.408C4202.2 71.896 4202.44 71.112 4202.44 70.056V65.256C4202.44 64.2 4202.2 63.432 4201.72 62.952C4201.27 62.44 4200.58 62.184 4199.65 62.184C4198.72 62.184 4198.02 62.44 4197.54 62.952C4197.09 63.432 4196.87 64.2 4196.87 65.256V70.056C4196.87 71.112 4197.09 71.896 4197.54 72.408C4198.02 72.888 4198.72 73.128 4199.65 73.128ZM4240.97 53.64C4241.61 53.64 4242.22 53.704 4242.8 53.832C4243.37 53.96 4243.85 54.12 4244.24 54.312V63.48C4242.92 62.936 4241.52 62.664 4240.01 62.664C4238 62.664 4236.44 63.192 4235.36 64.248C4234.27 65.304 4233.72 66.872 4233.72 68.952V73.128H4238.04V81H4220.57V73.128H4222.68V62.184H4220.57V54.312H4233.72V57.816C4234.62 56.472 4235.64 55.448 4236.8 54.744C4237.95 54.008 4239.34 53.64 4240.97 53.64ZM4284.13 81.672C4279.56 81.672 4275.99 80.488 4273.43 78.12C4270.87 75.72 4269.59 72.232 4269.59 67.656C4269.59 63.08 4270.87 59.608 4273.43 57.24C4275.99 54.84 4279.54 53.64 4284.08 53.64C4286.29 53.64 4288.4 53.944 4290.42 54.552C4292.44 55.16 4294 55.848 4295.12 56.616V66.12H4286.87V65.256C4286.87 64.2 4286.64 63.432 4286.2 62.952C4285.75 62.44 4285.04 62.184 4284.08 62.184C4282.23 62.184 4281.3 63.208 4281.3 65.256V69.384C4281.3 71.88 4282.72 73.128 4285.57 73.128C4288.23 73.128 4291.32 72.84 4294.84 72.264V79.8C4293.75 80.28 4292.21 80.712 4290.23 81.096C4288.28 81.48 4286.24 81.672 4284.13 81.672ZM4329.52 73.128V81H4316.84V77.736C4316.14 78.76 4315.15 79.672 4313.87 80.472C4312.62 81.272 4311.08 81.672 4309.26 81.672C4306.86 81.672 4304.97 81.032 4303.6 79.752C4302.22 78.472 4301.53 76.664 4301.53 74.328C4301.53 68.28 4306.67 65.176 4316.94 65.016C4316.84 63.928 4316.43 63.192 4315.69 62.808C4314.96 62.392 4313.71 62.184 4311.95 62.184C4310.51 62.184 4308.96 62.344 4307.29 62.664C4305.66 62.952 4304.16 63.352 4302.78 63.864V55.032C4304.48 54.616 4306.32 54.28 4308.3 54.024C4310.28 53.768 4312.22 53.64 4314.11 53.64C4318.88 53.64 4322.28 54.504 4324.33 56.232C4326.38 57.96 4327.4 60.632 4327.4 64.248V73.128H4329.52ZM4316.84 69.768C4315.4 69.768 4314.28 69.96 4313.48 70.344C4312.72 70.728 4312.33 71.368 4312.33 72.264C4312.33 72.808 4312.49 73.256 4312.81 73.608C4313.16 73.928 4313.64 74.088 4314.25 74.088C4315.08 74.088 4315.72 73.736 4316.17 73.032C4316.62 72.328 4316.84 71.336 4316.84 70.056V69.768ZM4347.72 81.672C4344.33 81.672 4341.77 80.856 4340.04 79.224C4338.34 77.56 4337.5 74.776 4337.5 70.872V62.184H4335.38V54.312C4336.6 54.312 4337.51 54.008 4338.12 53.4C4338.73 52.76 4339.03 51.896 4339.03 50.808V48.648H4349.21V54.312H4355.69V62.184H4349.21V70.056C4349.21 71.112 4349.43 71.896 4349.88 72.408C4350.36 72.888 4351.06 73.128 4351.99 73.128C4353.21 73.128 4354.54 72.984 4355.98 72.696V80.232C4355.08 80.584 4353.86 80.904 4352.33 81.192C4350.82 81.512 4349.29 81.672 4347.72 81.672ZM4373.98 81.672C4369.95 81.672 4366.06 81.032 4362.32 79.752V72.648H4370.1V73.128C4370.1 74.664 4371.07 75.432 4373.02 75.432C4374.75 75.432 4375.62 74.84 4375.62 73.656C4375.62 73.016 4375.36 72.536 4374.85 72.216C4374.37 71.896 4373.5 71.624 4372.26 71.4L4369.86 70.968C4364.83 70.072 4362.32 67.224 4362.32 62.424C4362.32 59.64 4363.38 57.48 4365.49 55.944C4367.6 54.408 4370.45 53.64 4374.03 53.64C4378.03 53.64 4381.41 54.312 4384.16 55.656V62.328H4376.86V61.848C4376.86 61.208 4376.64 60.728 4376.19 60.408C4375.78 60.056 4375.15 59.88 4374.32 59.88C4372.72 59.88 4371.92 60.392 4371.92 61.416C4371.92 61.96 4372.14 62.376 4372.59 62.664C4373.04 62.952 4373.86 63.224 4375.04 63.48L4377.78 64.008C4380.62 64.552 4382.66 65.56 4383.87 67.032C4385.09 68.504 4385.7 70.392 4385.7 72.696C4385.7 75.608 4384.67 77.832 4382.62 79.368C4380.61 80.904 4377.73 81.672 4373.98 81.672ZM4393.07 81V73.128H4400.55V81H4393.07Z" fill="black"/>
<path d="M2078.91 82.672C2073.89 82.672 2070 81.568 2067.25 79.36C2064.53 77.152 2063.17 73.568 2063.17 68.608V52.528H2060.77V44.656H2078.53V52.528H2076.61V71.056C2076.61 72.112 2076.83 72.896 2077.28 73.408C2077.76 73.888 2078.46 74.128 2079.39 74.128C2080.32 74.128 2081.01 73.888 2081.46 73.408C2081.94 72.896 2082.18 72.112 2082.18 71.056V52.528H2080.26V44.656H2096.72V52.528H2094.32V68.608C2094.32 73.568 2092.99 77.152 2090.34 79.36C2087.68 81.568 2083.87 82.672 2078.91 82.672ZM2135.04 74.128V82H2119.87V74.128H2121.88V66.256C2121.88 65.2 2121.66 64.432 2121.21 63.952C2120.76 63.44 2120.09 63.184 2119.2 63.184C2117.28 63.184 2116.32 64.208 2116.32 66.256V74.128H2118.33V82H2103.16V74.128H2105.28V63.184H2103.16V55.312H2116.32V59.056C2118.62 56.112 2121.5 54.64 2124.96 54.64C2127.61 54.64 2129.6 55.472 2130.91 57.136C2132.25 58.8 2132.92 61.088 2132.92 64V74.128H2135.04ZM2143.69 52.672V44.656H2153.48V52.672H2143.69ZM2141.39 82V74.128H2143.5V63.184H2141.39V55.312H2154.54V74.128H2156.65V82H2141.39ZM2176.36 84.784H2179.68V78.736C2178.88 79.76 2177.84 80.672 2176.56 81.472C2175.31 82.272 2173.87 82.672 2172.24 82.672C2168.97 82.672 2166.51 81.456 2164.84 79.024C2163.21 76.592 2162.4 73.136 2162.4 68.656C2162.4 64.176 2163.21 60.72 2164.84 58.288C2166.51 55.856 2168.97 54.64 2172.24 54.64C2173.87 54.64 2175.31 55.04 2176.56 55.84C2177.84 56.64 2178.88 57.552 2179.68 58.576V55.312H2192.83V63.184H2190.72V92.656H2176.36V84.784ZM2176.89 74.128C2177.82 74.128 2178.51 73.888 2178.96 73.408C2179.44 72.896 2179.68 72.112 2179.68 71.056V66.256C2179.68 65.2 2179.44 64.432 2178.96 63.952C2178.51 63.44 2177.82 63.184 2176.89 63.184C2175.96 63.184 2175.26 63.44 2174.78 63.952C2174.33 64.432 2174.11 65.2 2174.11 66.256V71.056C2174.11 72.112 2174.33 72.896 2174.78 73.408C2175.26 73.888 2175.96 74.128 2176.89 74.128ZM2230.48 74.128V82H2217.32V78.256C2215.02 81.2 2212.14 82.672 2208.68 82.672C2206.03 82.672 2204.03 81.84 2202.68 80.176C2201.37 78.512 2200.72 76.224 2200.72 73.312V63.184H2198.6V55.312H2211.76V71.056C2211.76 72.112 2211.98 72.896 2212.43 73.408C2212.91 73.888 2213.61 74.128 2214.54 74.128C2215.47 74.128 2216.16 73.888 2216.6 73.408C2217.08 72.896 2217.32 72.112 2217.32 71.056V63.184H2214.73V55.312H2228.36V74.128H2230.48ZM2250.9 82.672C2246.36 82.672 2242.81 81.488 2240.25 79.12C2237.69 76.72 2236.41 73.232 2236.41 68.656C2236.41 64.08 2237.69 60.608 2240.25 58.24C2242.81 55.84 2246.36 54.64 2250.9 54.64C2255.41 54.64 2258.66 55.824 2260.65 58.192C2262.66 60.528 2263.67 63.44 2263.67 66.928V70.384H2248.12V70.672C2248.12 71.856 2248.47 72.736 2249.17 73.312C2249.88 73.856 2251.05 74.128 2252.68 74.128C2254.63 74.128 2256.49 73.984 2258.25 73.696C2260.01 73.408 2261.54 73.04 2262.85 72.592V80.272C2261.73 80.88 2260.09 81.44 2257.91 81.952C2255.77 82.432 2253.43 82.672 2250.9 82.672ZM2253.69 65.104V64.528C2253.69 63.44 2253.45 62.656 2252.97 62.176C2252.52 61.696 2251.83 61.456 2250.9 61.456C2249.97 61.456 2249.27 61.712 2248.79 62.224C2248.34 62.704 2248.12 63.472 2248.12 64.528V65.104H2253.69ZM2289.09 74.128H2291.2V63.184H2289.09V55.312H2291.3C2291.3 51.408 2292.24 48.544 2294.13 46.72C2296.05 44.896 2298.83 43.984 2302.48 43.984C2304.24 43.984 2305.81 44.112 2307.19 44.368C2308.59 44.624 2309.62 44.912 2310.26 45.232V52.768C2308.56 52.608 2306.99 52.528 2305.55 52.528C2304.31 52.528 2303.44 52.736 2302.96 53.152C2302.48 53.568 2302.24 54.288 2302.24 55.312H2305.99V63.184H2302.24V74.128H2305.99V82H2289.09V74.128ZM2326.61 82.672C2322.07 82.672 2318.52 81.488 2315.96 79.12C2313.4 76.72 2312.12 73.232 2312.12 68.656C2312.12 64.08 2313.4 60.608 2315.96 58.24C2318.52 55.84 2322.07 54.64 2326.61 54.64C2331.22 54.64 2334.79 55.856 2337.32 58.288C2339.85 60.688 2341.11 64.144 2341.11 68.656C2341.11 73.232 2339.83 76.72 2337.27 79.12C2334.71 81.488 2331.16 82.672 2326.61 82.672ZM2326.61 74.128C2327.54 74.128 2328.23 73.888 2328.68 73.408C2329.16 72.896 2329.4 72.112 2329.4 71.056V66.256C2329.4 65.2 2329.16 64.432 2328.68 63.952C2328.23 63.44 2327.54 63.184 2326.61 63.184C2325.69 63.184 2324.98 63.44 2324.5 63.952C2324.05 64.432 2323.83 65.2 2323.83 66.256V71.056C2323.83 72.112 2324.05 72.896 2324.5 73.408C2324.98 73.888 2325.69 74.128 2326.61 74.128ZM2367.94 54.64C2368.58 54.64 2369.18 54.704 2369.76 54.832C2370.34 54.96 2370.82 55.12 2371.2 55.312V64.48C2369.89 63.936 2368.48 63.664 2366.98 63.664C2364.96 63.664 2363.41 64.192 2362.32 65.248C2361.23 66.304 2360.69 67.872 2360.69 69.952V74.128H2365.01V82H2347.54V74.128H2349.65V63.184H2347.54V55.312H2360.69V58.816C2361.58 57.472 2362.61 56.448 2363.76 55.744C2364.91 55.008 2366.3 54.64 2367.94 54.64ZM2425.64 55.312V63.184H2423.81L2417.53 79.84C2415.96 84.032 2414.17 87.168 2412.15 89.248C2410.13 91.36 2407.48 92.416 2404.18 92.416C2402.84 92.416 2401.48 92.272 2400.1 91.984C2398.73 91.728 2397.48 91.36 2396.36 90.88V82.192H2402.98V82.672C2402.98 83.472 2403.4 83.872 2404.23 83.872C2404.97 83.872 2405.53 83.52 2405.91 82.816L2398.33 63.184H2396.5V55.312H2410.76V63.184H2409.13L2411.62 70.672L2413.93 63.184H2412.29V55.312H2425.64ZM2446.17 82.672C2441.63 82.672 2438.08 81.488 2435.52 79.12C2432.96 76.72 2431.68 73.232 2431.68 68.656C2431.68 64.08 2432.96 60.608 2435.52 58.24C2438.08 55.84 2441.63 54.64 2446.17 54.64C2450.78 54.64 2454.35 55.856 2456.88 58.288C2459.41 60.688 2460.67 64.144 2460.67 68.656C2460.67 73.232 2459.39 76.72 2456.83 79.12C2454.27 81.488 2450.72 82.672 2446.17 82.672ZM2446.17 74.128C2447.1 74.128 2447.79 73.888 2448.24 73.408C2448.72 72.896 2448.96 72.112 2448.96 71.056V66.256C2448.96 65.2 2448.72 64.432 2448.24 63.952C2447.79 63.44 2447.1 63.184 2446.17 63.184C2445.25 63.184 2444.54 63.44 2444.06 63.952C2443.61 64.432 2443.39 65.2 2443.39 66.256V71.056C2443.39 72.112 2443.61 72.896 2444.06 73.408C2444.54 73.888 2445.25 74.128 2446.17 74.128ZM2498.58 74.128V82H2485.43V78.256C2483.13 81.2 2480.25 82.672 2476.79 82.672C2474.13 82.672 2472.13 81.84 2470.79 80.176C2469.48 78.512 2468.82 76.224 2468.82 73.312V63.184H2466.71V55.312H2479.86V71.056C2479.86 72.112 2480.09 72.896 2480.53 73.408C2481.01 73.888 2481.72 74.128 2482.65 74.128C2483.57 74.128 2484.26 73.888 2484.71 73.408C2485.19 72.896 2485.43 72.112 2485.43 71.056V63.184H2482.84V55.312H2496.47V74.128H2498.58ZM2505.76 82V74.128H2513.25V82H2505.76Z" fill="black"/>
<path d="M1909.62 13C1906.78 13 1908.44 18.2513 1909.62 20.877C1909.06 21.5666 1907.88 22.9457 1907.58 22.9457C1907.29 22.9457 1905.71 26.9593 1904.97 28.9662C1902.69 31.247 1903.3 34.9336 1903.3 37.0553C1903.3 38.7527 1901.64 39.6368 1900.82 39.8666L1899.47 35.7027L1900.37 31.6714C1901.03 27.7815 1901.26 20.0018 1896.9 20.0018C1891.46 20.0018 1894.26 30.2392 1892.83 31.6714C1891.69 32.8171 1891.94 38.903 1892.2 41.8027C1890.01 44.004 1891.14 55.9919 1893.02 57.875C1894.9 59.758 1895.82 69.2263 1895.82 70.6055C1895.82 71.7088 1899.43 74.6898 1901.24 76.0424C1903.23 78.0369 1905.29 82.4607 1906.08 84.4233C1904.46 83.9194 1901.24 83.0654 1901.24 83.6807C1901.24 84.4499 1905.02 91.8495 1906.08 92.9103C1906.92 93.759 1904.33 100.92 1902.93 104.394C1901.54 105.994 1898.56 109.391 1897.78 110.176C1896.8 111.157 1892.6 115.003 1893.02 115.427C1893.36 115.767 1901.86 115.569 1906.08 115.427C1907.22 116.285 1910.66 118 1915.27 118C1919.88 118 1922.99 116.285 1923.97 115.427H1925.9C1926.16 115.427 1931.1 112.643 1932.08 111.661C1933.06 110.68 1933.24 108.558 1933.24 106.94C1933.24 105.646 1934.94 105.287 1935.78 105.27C1942.94 105.27 1955.23 94.1038 1959.3 90.0194C1963.37 85.9351 1972.49 86.492 1972.99 85.9881C1973.4 85.585 1980.14 85.8202 1983.46 85.9881C1986.64 84.6355 1993 81.3044 1993 78.8007C1993 75.6711 1989.88 75.8833 1989.19 75.8833C1988.51 75.8833 1987.08 76.5994 1986.26 76.5994C1985.61 76.5994 1981.42 78.5443 1979.42 79.5168C1978.27 79.5168 1972.7 78.7035 1970.06 78.2968C1966.77 77.731 1959.8 76.5994 1958.19 76.5994C1956.59 76.5994 1952.57 77.2006 1950.77 77.5011C1950.77 75.7772 1949.55 73.072 1949.55 71.242C1949.55 69.778 1960.02 69.4297 1965.25 69.4385C1969.84 64.8343 1965.28 61.9859 1962.42 61.1372C1955.92 61.5792 1942.36 61.9063 1940.14 59.6785C1937.92 57.4506 1935.13 49.8742 1934.01 46.3645L1931.26 39.6014C1931.26 36.3339 1923.65 33.5721 1919.85 32.5996C1917.93 32.4317 1913.91 31.8942 1913.11 31.0879C1912.3 30.2816 1912.19 29.3375 1912.23 28.9662L1915.85 20.877C1914.96 18.2513 1912.45 13 1909.62 13Z" fill="#AAE3E2"/>
</svg>
