<svg width="349" height="172" viewBox="0 0 349 172" fill="none" xmlns="http://www.w3.org/2000/svg">
<path d="M122.791 171.29V151.355H127.713L133.13 162.406L138.517 151.355H143.408V171.29H138.424V159.837L134.492 167.885H131.737L127.775 159.837V171.29H122.791Z" fill="black"/>
<path d="M153.203 171.29V151.355H158.187V171.29H153.203Z" fill="black"/>
<path d="M177.923 171.6C174.476 171.6 171.855 170.733 170.06 169C168.264 167.246 167.367 164.779 167.367 161.601C167.367 158.279 168.285 155.689 170.122 153.831C171.958 151.974 174.662 151.045 178.232 151.045C179.45 151.045 180.544 151.117 181.514 151.262C182.504 151.406 183.443 151.623 184.331 151.912V156.184C183.443 155.854 182.514 155.627 181.545 155.503C180.595 155.379 179.615 155.317 178.604 155.317C176.457 155.317 174.889 155.833 173.898 156.865C172.928 157.876 172.443 159.455 172.443 161.601C172.443 163.562 172.908 165.017 173.836 165.966C174.765 166.895 176.138 167.359 177.954 167.359C179.151 167.359 180.265 167.194 181.297 166.864V163.087H176.994V159.961H185.476V169.836C184.774 170.29 183.794 170.702 182.535 171.074C181.297 171.425 179.759 171.6 177.923 171.6Z" fill="black"/>
<path d="M203.997 171.6C200.757 171.6 198.291 170.775 196.599 169.124C194.906 167.473 194.06 164.903 194.06 161.415C194.06 157.721 194.906 155.069 196.599 153.46C198.291 151.85 200.757 151.045 203.997 151.045C207.237 151.045 209.703 151.85 211.396 153.46C213.088 155.069 213.934 157.721 213.934 161.415C213.934 164.903 213.088 167.473 211.396 169.124C209.703 170.775 207.237 171.6 203.997 171.6ZM203.997 167.359C205.669 167.359 206.886 166.884 207.65 165.935C208.434 164.965 208.826 163.459 208.826 161.415C208.826 159.187 208.434 157.618 207.65 156.71C206.886 155.781 205.669 155.317 203.997 155.317C202.305 155.317 201.067 155.781 200.282 156.71C199.519 157.618 199.137 159.187 199.137 161.415C199.137 163.459 199.519 164.965 200.282 165.935C201.067 166.884 202.305 167.359 203.997 167.359Z" fill="black"/>
<path d="M232.444 171.6C229.204 171.6 226.738 170.775 225.046 169.124C223.353 167.473 222.507 164.903 222.507 161.415C222.507 157.721 223.353 155.069 225.046 153.46C226.738 151.85 229.204 151.045 232.444 151.045C235.684 151.045 238.15 151.85 239.843 153.46C241.535 155.069 242.381 157.721 242.381 161.415C242.381 164.903 241.535 167.473 239.843 169.124C238.15 170.775 235.684 171.6 232.444 171.6ZM232.444 167.359C234.116 167.359 235.333 166.884 236.097 165.935C236.881 164.965 237.273 163.459 237.273 161.415C237.273 159.187 236.881 157.618 236.097 156.71C235.333 155.781 234.116 155.317 232.444 155.317C230.752 155.317 229.514 155.781 228.729 156.71C227.966 157.618 227.584 159.187 227.584 161.415C227.584 163.459 227.966 164.965 228.729 165.935C229.514 166.884 230.752 167.359 232.444 167.359Z" fill="black"/>
<path fill-rule="evenodd" clip-rule="evenodd" d="M109.791 4.1277C109.948 4.12945 110.154 4.14472 110.413 4.18648C110.95 4.27293 111.531 4.44342 112.026 4.64014C112.461 4.81273 112.688 4.94954 112.754 4.98882C112.773 5.00014 112.778 5.00336 112.771 4.99699C113.558 5.70537 114.449 6.23846 115.176 6.66436C115.255 6.71013 115.331 6.75466 115.405 6.79815C116.081 7.19251 116.609 7.50085 117.072 7.86101C117.626 8.29183 118.162 8.7623 118.753 9.28008C118.811 9.33174 118.871 9.38387 118.931 9.43648C119.572 9.99817 120.278 10.61 121.034 11.1645C121.253 11.3254 121.468 11.4815 121.677 11.6343C123.018 12.6107 124.17 13.4497 125.243 14.5229C125.493 14.7721 125.735 15.0343 126.009 15.3318L126.022 15.3454C126.284 15.6295 126.577 15.9475 126.889 16.2592C127.309 16.6798 127.788 17.0222 128.109 17.252C128.146 17.2784 128.181 17.3032 128.213 17.3266C128.589 17.5971 128.763 17.7417 128.877 17.8755C129.51 18.6169 130.314 19.2948 130.955 19.8343C131.117 19.971 131.269 20.0989 131.405 20.2166C132.175 20.8846 132.66 21.3995 132.937 21.9531C133.447 22.9725 134.686 23.3857 135.706 22.876C136.725 22.3663 137.138 21.1266 136.629 20.1072C135.966 18.7812 134.942 17.8216 134.109 17.0989C133.871 16.8921 133.652 16.707 133.45 16.5357C132.86 16.0371 132.409 15.6553 132.018 15.197C131.545 14.6422 130.993 14.2421 130.627 13.9783C130.605 13.9623 130.583 13.9466 130.562 13.9313C130.178 13.6549 129.976 13.5094 129.807 13.3406C129.559 13.0926 129.318 12.831 129.043 12.5333L129.032 12.5212C128.769 12.2366 128.475 11.9176 128.162 11.6044C126.842 10.2848 125.406 9.24096 124.079 8.27652C123.875 8.12807 123.673 7.98149 123.475 7.83608C122.88 7.39977 122.296 6.89708 121.651 6.33216C121.59 6.27876 121.529 6.22469 121.466 6.17006C120.891 5.66542 120.262 5.11326 119.606 4.60298C118.911 4.0621 118.133 3.60951 117.494 3.23762C117.414 3.19128 117.337 3.1462 117.262 3.10235C116.526 2.67175 115.971 2.32442 115.532 1.92906C114.999 1.44959 114.217 1.06938 113.551 0.804381C112.819 0.513758 111.946 0.252745 111.07 0.111556C110.239 -0.0223701 109.184 -0.0858159 108.209 0.215915C107.697 0.37459 107.133 0.657185 106.662 1.15268C106.174 1.66567 105.886 2.30273 105.788 2.98959C105.752 3.23521 105.711 3.49203 105.667 3.76013C105.518 4.68056 105.347 5.73402 105.347 6.92424V9.13715C105.347 9.81533 105.521 10.4157 105.616 10.7417C105.622 10.7608 105.627 10.779 105.632 10.7962C105.746 11.1914 105.755 11.2711 105.755 11.316C105.755 12.7032 106.048 14.062 106.289 15.1809L106.293 15.1998C106.55 16.39 106.753 17.3317 106.778 18.2277C106.82 19.7484 107.174 21.1358 107.493 22.3145C107.528 22.4429 107.562 22.5685 107.595 22.6917C107.887 23.7599 108.128 24.6456 108.231 25.5704C108.345 26.6012 108.522 27.6683 108.688 28.6736C108.748 29.0344 108.806 29.3872 108.86 29.7276C109.071 31.0688 109.228 32.3059 109.228 33.4905C109.228 34.6303 110.152 35.5543 111.292 35.5543C112.432 35.5543 113.356 34.6303 113.356 33.4905C113.356 31.97 113.156 30.4715 112.937 29.0841C112.872 28.675 112.807 28.2809 112.744 27.897C112.584 26.93 112.434 26.0279 112.333 25.1146C112.192 23.8478 111.861 22.6397 111.579 21.6113C111.544 21.4833 111.51 21.3581 111.477 21.2359C111.161 20.069 110.931 19.0984 110.903 18.1131C110.868 16.8259 110.592 15.5493 110.362 14.486C110.349 14.427 110.336 14.3687 110.324 14.311C110.07 13.1343 109.883 12.1955 109.883 11.316C109.883 10.6345 109.708 10.0333 109.613 9.70531C109.608 9.68695 109.603 9.66946 109.598 9.65285C109.483 9.25468 109.474 9.17827 109.474 9.13715V6.92424C109.474 6.09421 109.575 5.47178 109.709 4.63889C109.735 4.47742 109.762 4.30803 109.791 4.1277Z" fill="black"/>
<path fill-rule="evenodd" clip-rule="evenodd" d="M145.774 20.9146C143.977 20.3618 141.1 20.3641 138.908 20.6381C138.367 20.7057 137.875 20.8225 137.269 20.9661C137.115 21.0026 136.954 21.0408 136.783 21.0803C135.99 21.2637 135.039 21.4597 133.966 21.4597C132.826 21.4597 131.902 20.5358 131.902 19.396C131.902 18.2562 132.826 17.3323 133.966 17.3323C134.55 17.3323 135.125 17.2275 135.853 17.059C135.972 17.0316 136.097 17.0016 136.229 16.9701C136.851 16.8219 137.61 16.6408 138.396 16.5425C140.794 16.2427 144.36 16.1611 146.988 16.9696C147.353 17.082 147.738 17.1478 148.217 17.2047C148.347 17.2201 148.502 17.2364 148.672 17.2544C149.046 17.2938 149.491 17.3407 149.889 17.4008C150.579 17.5049 151.26 17.6604 151.853 17.7955C151.921 17.8111 151.988 17.8265 152.054 17.8414C152.725 17.9937 153.288 18.1135 153.826 18.1733C154.562 18.2551 155.308 18.4818 155.835 18.6421C155.902 18.6626 155.966 18.682 156.026 18.6998C156.666 18.8915 157.009 18.9664 157.252 18.9664C158.084 18.9664 158.809 19.2277 159.201 19.3689C159.225 19.3774 159.247 19.3855 159.268 19.3931C159.746 19.5636 159.847 19.5792 159.908 19.5792C161.047 19.5792 161.971 20.5032 161.971 21.643C161.971 22.7827 161.047 23.7067 159.908 23.7067C159.066 23.7067 158.338 23.4449 157.941 23.3021C157.92 23.2943 157.899 23.287 157.88 23.28C157.394 23.1064 157.302 23.0939 157.252 23.0939C156.325 23.0939 155.438 22.8323 154.843 22.6543C154.783 22.6362 154.725 22.6188 154.668 22.602C154.067 22.4214 153.704 22.3126 153.37 22.2755C152.575 22.1872 151.807 22.0177 151.141 21.8666C151.074 21.8516 151.009 21.8368 150.945 21.8222C150.33 21.6821 149.802 21.5619 149.273 21.482C148.957 21.4343 148.691 21.4067 148.383 21.3748C148.19 21.3548 147.98 21.333 147.731 21.3034C147.153 21.2349 146.486 21.1336 145.774 20.9146Z" fill="black"/>
<path fill-rule="evenodd" clip-rule="evenodd" d="M181.924 11.1498C181.483 11.2462 181.009 11.4364 180.458 11.6812C180.03 11.8716 179.654 12.097 179.16 12.3937C179.074 12.4455 178.984 12.4994 178.89 12.5556C178.297 12.9097 177.554 13.3363 176.652 13.637C176.248 13.7717 175.799 13.8937 175.397 14.0026L175.367 14.0107C174.956 14.1223 174.57 14.2268 174.197 14.3439C173.372 14.6027 172.92 14.8337 172.723 15.0102C171.47 16.1316 170.072 16.9789 168.806 17.7105C168.578 17.8422 168.355 17.9695 168.138 18.0939C167.097 18.6902 166.174 19.2187 165.32 19.8394C164.906 20.1405 164.501 20.5678 164.004 21.156C163.905 21.273 163.798 21.4016 163.685 21.5377C163.291 22.0121 162.823 22.5771 162.343 23.0568C161.991 23.4087 161.613 23.7069 161.304 23.9429C161.189 24.0308 161.087 24.1073 160.993 24.1776C160.804 24.3196 160.65 24.4359 160.488 24.5679C160.301 24.7208 160.112 24.8399 159.967 24.9249C159.817 25.0132 159.663 25.0936 159.532 25.161C159.423 25.2167 159.33 25.2632 159.246 25.3054C159.094 25.3813 158.97 25.4435 158.831 25.5203C158.783 25.5463 158.743 25.5693 158.71 25.5892C158.344 26.364 157.515 26.858 156.616 26.7581C155.483 26.6322 154.667 25.6119 154.793 24.4791C154.894 23.5678 155.425 22.9612 155.774 22.6419C156.137 22.3101 156.545 22.0671 156.84 21.9048C157.051 21.7886 157.298 21.6644 157.483 21.5718C157.548 21.5389 157.606 21.51 157.651 21.4868C157.836 21.3925 157.898 21.3525 157.899 21.3536C158.123 21.1712 158.377 20.9808 158.588 20.822C158.666 20.7634 158.738 20.7092 158.801 20.6611C159.079 20.449 159.276 20.2871 159.424 20.1383C159.756 19.8065 160.052 19.4509 160.414 19.0144C160.549 18.8518 160.694 18.678 160.853 18.4901C161.385 17.8604 162.055 17.1105 162.893 16.5013C163.946 15.7356 165.101 15.0751 166.145 14.4783C166.348 14.3622 166.547 14.2485 166.74 14.1369C167.981 13.4201 169.058 12.7507 169.971 11.9342C170.876 11.1241 172.074 10.684 172.962 10.4056C173.414 10.2638 173.869 10.1405 174.261 10.0342L174.317 10.019C174.742 9.90361 175.075 9.81212 175.347 9.72133C175.799 9.57069 176.22 9.34279 176.775 9.0115C176.846 8.96908 176.92 8.92401 176.998 8.87691C177.484 8.58384 178.101 8.21211 178.781 7.90948L178.813 7.89535C179.844 7.43688 182.013 6.47252 184.195 7.26575C185.166 7.61891 185.737 8.34508 186.047 9.00873C186.34 9.63593 186.447 10.2947 186.493 10.8077C186.54 11.3395 186.532 11.8607 186.518 12.2703C186.511 12.4826 186.503 12.6424 186.497 12.7725C186.489 12.9404 186.484 13.0589 186.484 13.1771C186.484 13.3416 186.497 13.5559 186.52 13.8809L186.523 13.9238C186.544 14.2132 186.569 14.5729 186.577 14.9357C186.592 15.597 186.577 16.7584 185.991 17.7472C185.809 18.0542 185.561 18.6748 185.356 19.4388C185.152 20.2003 185.054 20.8661 185.054 21.223C185.054 22.1176 184.848 23.0992 184.613 23.9279C184.371 24.7817 184.056 25.6243 183.748 26.2833C183.683 26.422 183.595 26.7303 183.528 27.2249C183.464 27.6879 183.435 28.1825 183.418 28.622C183.404 28.9887 183.331 29.3008 183.262 29.5341C183.206 29.7222 183.136 29.9097 183.095 30.0192C183.089 30.0349 183.084 30.049 183.079 30.0612C183.036 30.1778 183.018 30.2377 183.011 30.2616C183.006 31.1031 182.829 31.8788 182.69 32.4539C182.668 32.5457 182.647 32.6322 182.627 32.7144C182.504 33.222 182.422 33.5609 182.388 33.9001C182.305 34.736 182.162 35.6234 181.915 36.4911C181.914 36.5003 181.909 36.529 181.903 36.5844C181.896 36.659 181.891 36.7151 181.886 36.7924C181.881 36.8482 181.876 36.915 181.868 37.0077C181.854 37.1822 181.83 37.4323 181.776 37.6961C181.723 37.9582 181.627 38.3151 181.424 38.6803C181.425 38.6782 181.412 38.7012 181.389 38.7571C181.366 38.8106 181.339 38.8806 181.309 38.9669C181.249 39.1409 181.188 39.3508 181.133 39.5738C181.012 40.0649 180.968 40.4308 180.968 40.5378C180.968 41.3181 180.837 42.0215 180.74 42.5375C180.736 42.5569 180.732 42.576 180.729 42.5949C180.623 43.1605 180.56 43.5282 180.56 43.9082C180.56 45.048 179.636 45.972 178.496 45.972C177.356 45.972 176.432 45.048 176.432 43.9082C176.432 43.1133 176.566 42.4028 176.663 41.881L176.672 41.8355C176.779 41.2648 176.841 40.9055 176.841 40.5378C176.841 39.9345 176.977 39.1894 177.125 38.5877C177.259 38.0435 177.464 37.3639 177.74 36.8191C177.744 36.7844 177.749 36.734 177.756 36.6612C177.758 36.6371 177.76 36.6022 177.763 36.5608C177.772 36.4465 177.785 36.2819 177.798 36.1536C177.819 35.9563 177.856 35.6742 177.942 35.3748C178.105 34.8034 178.214 34.1648 178.281 33.4894C178.346 32.8385 178.506 32.1861 178.626 31.7003C178.644 31.6257 178.662 31.555 178.677 31.4889C178.815 30.9179 178.884 30.5452 178.884 30.2222C178.884 29.5066 179.098 28.9275 179.202 28.6456L179.208 28.6301C179.216 28.6096 179.222 28.5909 179.229 28.5738C179.267 28.4708 179.285 28.4231 179.297 28.3852C179.316 27.9085 179.353 27.2913 179.438 26.6648C179.525 26.0351 179.68 25.2403 180.008 24.5378C180.216 24.0922 180.456 23.4586 180.642 22.8035C180.834 22.1233 180.926 21.5634 180.926 21.223C180.926 20.3538 181.121 19.295 181.37 18.3688C181.613 17.4644 181.968 16.4579 182.412 15.692C182.415 15.6759 182.421 15.6492 182.427 15.6099C182.447 15.4792 182.457 15.2905 182.451 15.0273C182.445 14.7661 182.426 14.4941 182.403 14.1772L182.402 14.1557C182.382 13.8674 182.356 13.5084 182.356 13.1771C182.356 12.9766 182.369 12.6882 182.38 12.4368C182.385 12.3221 182.39 12.215 182.393 12.1275C182.405 11.7714 182.406 11.4501 182.381 11.1728C182.379 11.1436 182.376 11.1158 182.373 11.0894C182.248 11.0932 182.1 11.1113 181.924 11.1498ZM177.731 36.8782C177.73 36.8815 177.73 36.8832 177.73 36.8831C177.73 36.883 177.73 36.8817 177.731 36.879C177.731 36.8788 177.731 36.8785 177.731 36.8782Z" fill="black"/>
<path fill-rule="evenodd" clip-rule="evenodd" d="M177.495 49.3088C178.536 49.7717 179.005 50.9913 178.542 52.0328C178.312 52.5503 178.166 53.1103 177.969 53.8614C177.929 54.0165 177.886 54.1797 177.84 54.3524C177.597 55.2623 177.262 56.4219 176.589 57.4801C176.288 57.9526 176.194 58.7478 176.194 60.1148C176.194 61.0146 176.408 61.9599 176.699 63.1852C176.707 63.2181 176.715 63.2513 176.723 63.2846C176.989 64.401 177.317 65.7794 177.317 67.1949C177.317 67.5702 177.314 67.9276 177.31 68.2711C177.301 69.3288 177.293 70.2561 177.382 71.1785C177.495 72.3422 177.755 73.2883 178.273 74.1026C178.566 74.5637 178.85 75.0816 179.088 75.5159C179.178 75.6809 179.262 75.8338 179.337 75.9669C179.647 76.5148 179.911 76.9229 180.211 77.2532C180.651 77.7369 180.915 78.2949 181.079 78.679C181.167 78.8846 181.247 79.0909 181.313 79.2654C181.322 79.2887 181.331 79.3114 181.339 79.3336C181.398 79.4887 181.448 79.6191 181.5 79.747C181.598 79.9862 181.669 80.1201 181.709 80.1881C182.668 80.6152 183.164 81.7086 182.825 82.7249C182.464 83.8062 181.296 84.3905 180.214 84.0301C178.581 83.4856 177.945 81.9597 177.678 81.3055C177.567 81.0316 177.509 80.8769 177.46 80.745C177.409 80.6084 177.367 80.4962 177.284 80.3012C177.194 80.091 177.145 80.0195 177.144 80.0159C176.535 79.3427 176.094 78.6187 175.743 77.9962C175.611 77.7618 175.497 77.5532 175.391 77.3595C175.184 76.9821 175.009 76.6617 174.791 76.3185C173.805 74.7692 173.424 73.1233 173.274 71.5779C173.161 70.4156 173.173 69.1872 173.183 68.0849C173.186 67.777 173.189 67.4789 173.189 67.1949C173.189 66.3063 172.976 65.3681 172.684 64.1398C172.677 64.1112 172.67 64.0824 172.663 64.0534C172.396 62.9318 172.066 61.5449 172.066 60.1148V60.1074C172.066 58.9155 172.066 56.8984 173.106 55.2641C173.409 54.7889 173.615 54.1764 173.852 53.2893C173.884 53.1694 173.917 53.0415 173.951 52.9072C174.145 52.1586 174.39 51.212 174.771 50.3565C175.234 49.3149 176.453 48.8459 177.495 49.3088Z" fill="black"/>
<path fill-rule="evenodd" clip-rule="evenodd" d="M202.296 26.2999C202.298 26.601 202.3 26.9047 202.3 27.2099C202.3 29.4671 202.5 31.6515 202.712 33.9472L202.715 33.9758C202.923 36.2363 203.142 38.6056 203.142 41.0892C203.142 42.229 202.218 43.1529 201.078 43.1529C199.938 43.1529 199.014 42.229 199.014 41.0892C199.014 38.8147 198.814 36.6211 198.602 34.3264L198.597 34.274C198.389 32.0218 198.172 29.6683 198.172 27.2099C198.172 26.9684 198.17 26.7069 198.167 26.4293C198.15 24.6484 198.127 22.2056 198.713 20.1653C199.068 18.9283 199.693 17.6398 200.833 16.6641C202.005 15.6615 203.513 15.1655 205.289 15.1655C207.32 15.1655 208.46 15.8409 209.468 16.4378C209.665 16.5548 209.858 16.6689 210.051 16.7742C210.302 16.9111 210.597 17.0532 210.968 17.2296L211.015 17.2521C211.357 17.4147 211.753 17.6033 212.143 17.8091C212.844 18.1792 213.74 18.7107 214.437 19.4934C214.56 19.5484 214.823 19.672 215.083 19.8724C215.41 20.1249 215.75 20.5087 215.939 21.0565C215.953 21.0754 216.023 21.1703 216.248 21.3641C216.356 21.4579 216.449 21.5328 216.564 21.6252C216.637 21.6841 216.718 21.7501 216.819 21.8327C217.036 22.0115 217.315 22.2489 217.577 22.5307C217.833 22.8064 218.062 23.1207 218.238 23.3684C218.341 23.514 218.417 23.6239 218.487 23.7262C218.571 23.8476 218.648 23.9583 218.753 24.1051C218.916 24.3319 219.042 24.4917 219.144 24.6009C219.173 24.6321 219.195 24.6531 219.209 24.6662C220.599 25.3898 221.388 26.6693 221.879 27.5391C222.007 27.7648 222.129 27.9919 222.24 28.1968L222.256 28.2271C222.374 28.4469 222.48 28.6415 222.585 28.8259C222.8 29.2034 222.966 29.4489 223.112 29.6127C223.645 30.2125 224.007 30.9333 224.253 31.4667C224.4 31.7844 224.499 32.015 224.584 32.2137C224.684 32.4461 224.765 32.6348 224.881 32.8679C225.162 33.4286 225.305 34.0249 225.385 34.3592C225.394 34.3958 225.402 34.4292 225.409 34.4591C225.497 34.8178 225.536 34.8958 225.535 34.8961C226.164 35.844 225.907 37.1224 224.96 37.7536C224.012 38.3859 222.73 38.1296 222.098 37.1813C221.67 36.5387 221.498 35.8415 221.407 35.4681L221.401 35.4454C221.284 34.9691 221.247 34.8293 221.19 34.7138C221.048 34.4305 220.863 34.0066 220.71 33.6578C220.629 33.4718 220.557 33.3072 220.506 33.1967C220.287 32.7228 220.133 32.4735 220.027 32.3549C219.596 31.8694 219.262 31.3306 219 30.8711C218.866 30.6369 218.738 30.3997 218.622 30.1849L218.613 30.1672C218.497 29.9523 218.392 29.7584 218.286 29.5701C217.813 28.7328 217.52 28.4359 217.294 28.3228C216.78 28.0657 216.389 27.6991 216.122 27.4128C215.844 27.1135 215.599 26.7888 215.401 26.514C215.216 26.2554 215.076 26.0536 214.964 25.8912C214.784 25.6293 214.673 25.4696 214.552 25.3392C214.485 25.2667 214.38 25.1711 214.196 25.0199C214.155 24.9857 214.101 24.9427 214.042 24.8941C213.895 24.7752 213.707 24.6234 213.552 24.4895C213.205 24.1906 212.703 23.7251 212.332 23.0633C212.307 23.0499 212.281 23.0357 212.255 23.0208C212.015 22.8845 211.684 22.6581 211.395 22.2857C211.241 22.0885 210.893 21.8165 210.216 21.4593C209.903 21.2942 209.575 21.138 209.213 20.9655L209.193 20.9561C208.842 20.7887 208.442 20.5983 208.074 20.3977C207.776 20.2347 207.499 20.0732 207.273 19.941C207.205 19.9013 207.142 19.8643 207.084 19.8307C206.812 19.6734 206.629 19.5747 206.463 19.5009C206.203 19.3853 205.906 19.2929 205.289 19.2929C204.31 19.2929 203.809 19.5497 203.517 19.7999C203.193 20.0771 202.899 20.5415 202.68 21.3048C202.275 22.716 202.285 24.461 202.296 26.2999Z" fill="black"/>
<path fill-rule="evenodd" clip-rule="evenodd" d="M225.371 32.5948C224.476 32.7949 223.346 33.0475 222.131 33.0475C220.991 33.0475 220.067 32.1236 220.067 30.9838C220.067 29.844 220.991 28.9201 222.131 28.9201C222.854 28.9201 223.574 28.767 224.552 28.5486C224.575 28.5435 224.598 28.5383 224.622 28.533C225.521 28.332 226.658 28.0779 227.885 28.0779C229.177 28.0779 230.449 28.1442 231.664 28.2106C231.737 28.2146 231.809 28.2186 231.882 28.2226C233.033 28.2858 234.13 28.3459 235.224 28.3588C238.08 28.3924 241.082 29.1849 243.545 30.4167C244.445 30.8666 245.119 31.4987 245.57 31.9213C245.583 31.9335 245.595 31.9454 245.608 31.9572C246.126 32.4424 246.372 32.6563 246.633 32.7871C247.653 33.2968 248.066 34.5365 247.556 35.5559C247.046 36.5754 245.807 36.9886 244.787 36.4788C243.942 36.0564 243.289 35.4424 242.859 35.0379C242.834 35.0142 242.809 34.9912 242.786 34.969C242.291 34.505 242.011 34.2644 241.699 34.1084C239.749 33.1331 237.358 32.5117 235.175 32.486C233.989 32.472 232.808 32.4072 231.676 32.345C231.597 32.3406 231.517 32.3363 231.438 32.332C230.218 32.2652 229.05 32.2054 227.885 32.2054C227.153 32.2054 226.427 32.3591 225.451 32.5769C225.425 32.5828 225.398 32.5888 225.371 32.5948Z" fill="black"/>
<path fill-rule="evenodd" clip-rule="evenodd" d="M272.965 77.6594C272.325 77.6695 271.666 77.6798 270.974 77.6798H264.767C263.219 77.6798 261.683 77.8113 260.045 77.9528L260.003 77.9564C258.406 78.0945 256.71 78.2412 254.973 78.2412C253.834 78.2412 252.91 77.3172 252.91 76.1775C252.91 75.0377 253.834 74.1137 254.973 74.1137C256.518 74.1137 258.052 73.9823 259.69 73.8407L259.727 73.8375C261.326 73.6992 263.025 73.5523 264.767 73.5523H270.974C271.527 73.5523 272.112 73.5434 272.715 73.5342C274.102 73.513 275.585 73.4903 277.002 73.5713C277.68 73.61 278.318 73.7866 278.73 73.9005C278.761 73.909 278.79 73.9172 278.819 73.925C279.306 74.0587 279.539 74.1094 279.73 74.1144C282.97 74.1997 287.39 74.7567 290.638 76.2723C291.443 76.6477 292.319 76.9113 293.362 77.2168C293.399 77.2276 293.436 77.2385 293.474 77.2495C294.444 77.533 295.568 77.8618 296.651 78.3518C297.151 78.578 297.694 78.729 298.419 78.9308C298.534 78.9629 298.654 78.9964 298.779 79.0316C299.606 79.2642 300.659 79.5774 301.634 80.1623C302.804 80.8641 304.16 81.3137 305.782 81.8195C305.875 81.8485 305.968 81.8778 306.063 81.9073C307.545 82.3679 309.25 82.8978 310.83 83.7484C312.008 84.3829 313.245 84.9256 314.574 85.5085L314.701 85.5642C316.05 86.1562 317.492 86.7926 318.885 87.5666C320.684 88.5659 322.647 89.3664 324.737 90.1763C325.048 90.2969 325.363 90.4181 325.681 90.5403C327.456 91.2227 329.314 91.9374 331.086 92.7766C333.99 94.152 336.304 95.7921 338.683 97.7384C341.182 99.7834 343.092 102.881 344.615 105.353C344.852 105.738 345.079 106.107 345.298 106.455C345.59 106.918 345.755 107.416 345.858 107.758C345.913 107.942 345.963 108.128 346.006 108.286L346.012 108.311C346.054 108.467 346.09 108.6 346.128 108.73C346.232 109.089 346.307 109.237 346.328 109.279C346.655 109.524 346.862 109.812 346.956 109.948C347.088 110.139 347.202 110.341 347.295 110.525C347.484 110.895 347.659 111.322 347.795 111.735C347.926 112.132 348.057 112.621 348.101 113.097C348.122 113.324 348.137 113.679 348.05 114.066C347.97 114.425 347.704 115.209 346.845 115.638C345.826 116.148 344.586 115.734 344.076 114.715C343.837 114.236 343.801 113.708 343.936 113.23C343.919 113.168 343.899 113.1 343.875 113.027C343.796 112.789 343.7 112.56 343.619 112.401C343.619 112.4 343.618 112.399 343.618 112.398C342.677 111.595 342.332 110.458 342.165 109.884C342.114 109.711 342.068 109.538 342.029 109.391L342.019 109.357C341.976 109.194 341.94 109.063 341.904 108.944C341.84 108.73 341.803 108.653 341.801 108.648C341.801 108.646 341.802 108.649 341.805 108.654C341.55 108.248 341.299 107.843 341.049 107.44C339.483 104.916 337.986 102.501 336.069 100.933C333.839 99.1082 331.813 97.6881 329.319 96.5067C327.7 95.7399 326.008 95.0888 324.23 94.4045C323.905 94.2794 323.577 94.1532 323.246 94.025C321.144 93.2106 318.949 92.3238 316.88 91.1747C315.68 90.5079 314.409 89.9434 313.043 89.3439C312.983 89.3177 312.923 89.2915 312.863 89.2652C311.576 88.7006 310.201 88.0979 308.873 87.3826C307.655 86.7267 306.301 86.3048 304.719 85.8118C304.664 85.7946 304.609 85.7773 304.553 85.7599C302.976 85.2682 301.163 84.693 299.511 83.7016C299.056 83.4287 298.483 83.2359 297.662 83.005C297.564 82.9774 297.46 82.9488 297.353 82.9191C296.651 82.7256 295.765 82.4813 294.95 82.1124C294.137 81.7445 293.257 81.4867 292.203 81.1781L292.198 81.1766C291.194 80.8827 290.023 80.5402 288.893 80.0125C286.406 78.8522 282.654 78.3203 279.621 78.2405C278.876 78.2209 278.195 78.034 277.758 77.914L277.727 77.9054C277.209 77.7633 276.973 77.7039 276.766 77.692C275.501 77.6197 274.272 77.6389 272.965 77.6594Z" fill="black"/>
<path fill-rule="evenodd" clip-rule="evenodd" d="M160.577 116.603C161.04 117.645 160.571 118.864 159.53 119.327C154.114 121.734 147.945 123.347 142.077 123.999C141.453 124.068 140.825 124.143 140.192 124.219C137.636 124.523 134.995 124.838 132.211 124.838H99.4624C98.4608 124.838 97.4136 124.961 96.2127 125.104L96.1718 125.109C95.0267 125.246 93.7383 125.4 92.4448 125.4C92.167 125.4 91.8761 125.436 91.4695 125.499C91.425 125.506 91.3779 125.514 91.3284 125.522C90.9767 125.577 90.5079 125.652 90.0345 125.677C90.0332 125.678 89.9887 125.684 89.8664 125.718C89.8608 125.72 89.8495 125.723 89.8333 125.728C89.7251 125.76 89.4021 125.856 89.1639 125.898C89.0049 125.926 88.6733 125.974 88.2812 125.907C87.8298 125.83 87.2458 125.586 86.8299 125.001C86.4581 124.479 86.4061 123.938 86.4058 123.637C86.4054 123.323 86.4614 123.041 86.5128 122.835C86.7892 121.73 87.9097 121.057 89.0154 121.334C89.2235 121.386 89.4162 121.468 89.5901 121.574C89.6614 121.566 89.7348 121.56 89.81 121.556C90.056 121.543 90.3004 121.505 90.6784 121.445C90.7283 121.438 90.7805 121.429 90.8354 121.421C91.262 121.355 91.8238 121.272 92.4448 121.272C93.467 121.272 94.5261 121.149 95.7238 121.006L95.7922 120.998C96.9272 120.862 98.1976 120.711 99.4624 120.711H132.211C134.726 120.711 137.064 120.433 139.592 120.133C140.253 120.054 140.927 119.974 141.621 119.897C147.092 119.289 152.847 117.78 157.853 115.555C158.895 115.092 160.114 115.561 160.577 116.603Z" fill="black"/>
<path fill-rule="evenodd" clip-rule="evenodd" d="M72.8987 108.289C73.9444 108.278 75.1234 108.314 76.2618 108.563C77.8618 108.913 79.3186 109.202 80.7176 109.202C81.7604 109.202 82.83 109.322 83.7568 109.425C84.0265 109.455 84.284 109.484 84.5253 109.508C85.4607 109.602 86.3138 109.965 86.8488 110.192C86.8919 110.211 86.9329 110.228 86.9717 110.245C87.6214 110.518 87.8893 110.6 88.0896 110.607C89.041 110.641 89.9248 110.797 90.6926 110.946C90.8347 110.973 90.9718 111 91.1051 111.026C91.7293 111.149 92.2696 111.255 92.8391 111.321C92.8173 111.318 92.8776 111.318 93.3133 111.329C93.6397 111.338 94.0802 111.353 94.5274 111.397C94.9449 111.439 95.5077 111.517 96.0244 111.702C96.2823 111.795 96.6482 111.955 96.9912 112.243C97.3576 112.551 97.7678 113.07 97.8611 113.817C98.0025 114.948 97.2002 115.979 96.0693 116.12C95.4126 116.203 94.7896 115.967 94.3548 115.533C94.2849 115.523 94.2066 115.513 94.1202 115.505C93.8272 115.476 93.5081 115.463 93.2089 115.455C93.1353 115.454 93.0651 115.452 92.9965 115.451C92.9297 115.449 92.8612 115.448 92.7991 115.446L92.791 115.446C92.699 115.444 92.5192 115.439 92.3624 115.421C91.6172 115.334 90.8906 115.191 90.2633 115.068C90.1416 115.044 90.0236 115.02 89.91 114.998C89.1712 114.856 88.553 114.753 87.9423 114.732C86.9009 114.694 85.9807 114.306 85.4144 114.067C85.3991 114.061 85.384 114.055 85.3692 114.048C84.6789 113.757 84.3804 113.642 84.1146 113.615C83.767 113.581 83.4421 113.545 83.1326 113.51C82.2594 113.413 81.5088 113.329 80.7176 113.329C78.8172 113.329 76.9571 112.941 75.3798 112.596C74.7025 112.447 73.8947 112.406 72.9428 112.416C72.5069 112.421 72.0681 112.436 71.6083 112.451C71.5715 112.452 71.5345 112.453 71.4974 112.455C71.0078 112.471 70.4921 112.487 69.9884 112.487C69.8803 112.487 69.7725 112.487 69.6649 112.487C68.2427 112.486 66.8616 112.485 65.5878 112.711C64.2373 112.951 63.317 113.4 62.7434 114.101C60.7126 116.583 59.6588 120.742 60.2448 123.965C60.4448 125.065 60.8943 126.339 61.5532 127.28C62.2035 128.21 62.8615 128.571 63.5321 128.571C64.6719 128.571 65.5959 129.495 65.5959 130.634C65.5959 131.774 64.6719 132.698 63.5321 132.698C61.0321 132.698 59.2686 131.215 58.1715 129.647C57.0828 128.091 56.4587 126.215 56.1839 124.703C55.3868 120.319 56.7333 114.928 59.5489 111.487C61.0034 109.709 63.0357 108.973 64.8651 108.647C66.5201 108.353 68.2615 108.357 69.6186 108.359C69.7453 108.36 69.8687 108.36 69.9884 108.36C70.4141 108.36 70.8652 108.346 71.3598 108.329C71.3988 108.328 71.4382 108.327 71.4777 108.325C71.9287 108.31 72.4134 108.294 72.8987 108.289Z" fill="black"/>
<path fill-rule="evenodd" clip-rule="evenodd" d="M113.233 36.2709C113.879 37.2101 113.641 38.495 112.702 39.1407C112.622 39.1955 112.407 39.4025 112.134 39.9168C111.875 40.4042 111.635 41.0308 111.43 41.7385C111.016 43.1666 110.812 44.6747 110.789 45.5131C110.778 45.9088 110.763 46.29 110.748 46.6624C110.714 47.5282 110.682 48.3467 110.706 49.1917C110.739 50.3666 110.882 51.361 111.206 52.1825L111.206 52.1826C112.287 54.916 113.286 57.4429 114.657 59.7924C114.697 59.8617 114.738 59.9312 114.778 60.0009C115.069 60.4977 115.363 61.001 115.596 61.4665C115.868 62.0088 116.13 62.6383 116.236 63.348C116.476 64.945 115.846 66.2876 114.868 67.591C114.184 68.5029 112.891 68.6876 111.979 68.0038C111.067 67.3199 110.882 66.0264 111.566 65.1145C112.235 64.2228 112.162 63.9846 112.155 63.9613C112.155 63.9605 112.154 63.9599 112.154 63.9596C112.14 63.8666 112.09 63.6831 111.906 63.3143C111.737 62.9776 111.518 62.6024 111.214 62.0824C111.175 62.0148 111.134 61.9448 111.091 61.8721C109.562 59.2503 108.465 56.4749 107.422 53.8354L107.368 53.7C106.79 52.2393 106.619 50.7 106.58 49.3073C106.552 48.315 106.593 47.2759 106.629 46.3582C106.642 46.0188 106.655 45.6961 106.663 45.3985C106.696 44.1901 106.959 42.3343 107.466 40.5884C107.721 39.709 108.055 38.796 108.49 37.9795C108.909 37.1899 109.507 36.3287 110.364 35.7395C111.303 35.0938 112.588 35.3317 113.233 36.2709Z" fill="black"/>
<path fill-rule="evenodd" clip-rule="evenodd" d="M102.964 65.8873C104.635 65.4795 106.461 65.1311 108.164 65.1311C109.304 65.1311 110.228 66.0551 110.228 67.1948C110.228 68.3346 109.304 69.2586 108.164 69.2586C106.962 69.2586 105.519 69.5125 103.942 69.8971C102.92 70.1464 101.946 70.4225 100.984 70.6952C100.436 70.8505 99.8921 71.0047 99.3451 71.1523C99.1412 71.2073 98.9264 71.3037 98.5749 71.4907C98.5262 71.5166 98.4721 71.5458 98.4134 71.5776C98.1052 71.7443 97.6687 71.9804 97.2072 72.166C95.6888 72.7769 94.0215 73.2001 92.521 73.5809C91.837 73.7545 91.1877 73.9193 90.6029 74.0891C89.726 74.3437 88.7974 74.5528 87.9482 74.7441C87.6032 74.8218 87.2713 74.8966 86.9613 74.9702C85.8224 75.2408 84.8199 75.5277 83.8982 75.9579C81.4191 77.1148 77.9864 77.8462 75.4529 78.1629C73.5948 78.3951 71.7211 78.4523 69.9423 78.4959C69.7975 78.4995 69.6533 78.5029 69.5099 78.5064C67.8594 78.546 66.2952 78.5836 64.758 78.7308C63.0949 78.89 61.6432 79.2438 60.026 79.6378C59.1509 79.851 58.2273 80.0761 57.1957 80.2885C54.6589 80.8108 52.0377 81.5741 49.5475 82.4577C48.9381 82.6739 48.3027 82.8685 47.7012 83.0509C47.6517 83.066 47.6024 83.0809 47.5533 83.0958C46.9918 83.266 46.4573 83.4281 45.9326 83.605C44.7781 83.9941 43.845 84.4008 43.1419 84.9189C42.6739 85.2637 42.2367 85.6703 41.7541 86.153C41.6177 86.2896 41.4693 86.441 41.313 86.6004C40.9599 86.9607 40.5666 87.362 40.1805 87.7246C39.5613 88.3063 38.8485 88.7621 38.2655 89.1183C38.095 89.2224 37.9373 89.3173 37.7895 89.4062C37.3763 89.6546 37.0409 89.8563 36.7234 90.0831C34.9691 91.3361 33.2126 92.6042 31.8369 93.98C30.4642 95.3527 28.8996 96.5433 27.4703 97.6309C27.1327 97.8878 26.8026 98.139 26.4844 98.3854C24.7525 99.7269 23.2651 101.001 22.1386 102.578C21.1383 103.979 19.3783 105.234 18.1707 105.919C17.6771 106.198 17.2195 106.539 16.6416 106.969C16.4946 107.078 16.3399 107.193 16.1749 107.315C15.4269 107.865 14.4967 108.516 13.3972 108.956C12.8991 109.155 12.2946 109.589 11.6899 110.229C11.0967 110.856 10.6051 111.573 10.2972 112.189C9.85547 113.072 9.16479 114.05 8.39322 114.896C7.72304 115.631 6.86374 116.409 5.90954 116.913C5.87472 116.975 5.83179 117.057 5.78088 117.163C5.69416 117.343 5.61216 117.532 5.51884 117.746C5.50792 117.772 5.49684 117.797 5.48558 117.823L5.48164 117.832C5.39863 118.023 5.28145 118.292 5.15605 118.526C5.15273 118.542 5.1482 118.568 5.14373 118.604C5.12746 118.735 5.12166 118.924 5.13207 119.187C5.14159 119.427 5.16158 119.672 5.18463 119.954L5.19148 120.038C5.21487 120.325 5.24404 120.69 5.24404 121.028C5.24404 121.36 5.23515 121.69 5.22634 122.018C5.20456 122.828 5.18325 123.62 5.29787 124.374C5.33301 124.605 5.37619 124.784 5.42076 124.916C5.42117 124.917 5.42159 124.918 5.422 124.919C6.08707 124.908 6.77405 124.852 7.53221 124.788L7.5936 124.783C8.39839 124.716 9.29427 124.641 10.1823 124.641C10.404 124.641 10.6284 124.642 10.8551 124.644C11.538 124.648 12.2416 124.653 12.9528 124.618C13.9251 124.57 14.6332 124.454 15.0456 124.289C16.3189 123.78 17.7188 123.644 18.891 123.587C19.4642 123.559 19.9491 123.549 20.3927 123.539C20.9929 123.526 21.5176 123.515 22.0835 123.464C24.659 123.232 27.2159 123.235 29.6818 123.237C29.9198 123.237 30.1569 123.237 30.3932 123.237C32.5375 123.237 34.6911 123.168 36.8797 123.098L36.9067 123.097C39.0753 123.027 41.279 122.956 43.4772 122.956C44.6282 122.956 45.7312 122.778 47.0134 122.564L47.0898 122.551C48.3081 122.347 49.7033 122.114 51.1966 122.114C52.9127 122.114 54.434 122.638 55.6042 123.042L55.6832 123.069C56.9653 123.51 57.8498 123.799 58.76 123.799C59.8998 123.799 60.8238 124.723 60.8238 125.862C60.8238 127.002 59.8998 127.926 58.76 127.926C57.1064 127.926 55.6172 127.412 54.4696 127.016C54.4258 127.001 54.3825 126.986 54.3397 126.972C53.074 126.536 52.157 126.242 51.1966 126.242C50.0687 126.242 48.9793 126.42 47.6929 126.635L47.6449 126.643C46.4157 126.848 45.0021 127.084 43.4772 127.084C41.3474 127.084 39.2012 127.153 37.0123 127.223L37.0071 127.223C34.8311 127.293 32.6131 127.365 30.3932 127.365C30.1617 127.365 29.9314 127.365 29.7022 127.364C27.204 127.363 24.8324 127.361 22.453 127.575C21.8005 127.633 20.9829 127.654 20.2407 127.673C19.8188 127.683 19.4212 127.694 19.0922 127.71C18.0077 127.763 17.1833 127.88 16.5785 128.122C15.4978 128.554 14.2141 128.688 13.1563 128.74C12.3173 128.782 11.4473 128.776 10.7462 128.771C10.5423 128.77 10.3527 128.768 10.1823 128.768C9.47524 128.768 8.73332 128.83 7.87635 128.901L7.86172 128.903C7.03971 128.971 6.11309 129.049 5.17643 129.049C3.8634 129.049 2.82509 128.441 2.15722 127.519C1.57138 126.71 1.33265 125.753 1.21729 124.994C1.0408 123.834 1.08042 122.438 1.10474 121.581C1.11119 121.354 1.11656 121.165 1.11656 121.028C1.11656 120.885 1.1031 120.686 1.07759 120.372C1.07526 120.344 1.07285 120.314 1.07037 120.284C1.04827 120.015 1.021 119.682 1.00783 119.35C0.982707 118.716 0.96924 117.565 1.51662 116.579C1.54002 116.537 1.59054 116.429 1.70118 116.175C1.71157 116.151 1.7224 116.127 1.73362 116.101C1.82307 115.895 1.9379 115.63 2.06141 115.374C2.19791 115.09 2.38168 114.737 2.61227 114.409C2.80881 114.13 3.21642 113.607 3.88602 113.31C4.22637 113.158 4.75966 112.755 5.34318 112.115C5.90567 111.498 6.3621 110.829 6.60546 110.343C7.10129 109.351 7.83024 108.303 8.6913 107.392C9.54082 106.494 10.624 105.619 11.8643 105.123C12.4426 104.892 13.0152 104.515 13.7298 103.989C13.8433 103.906 13.9632 103.816 14.0887 103.723C14.6803 103.281 15.3952 102.747 16.1358 102.328C17.1358 101.761 18.2913 100.863 18.78 100.179C20.2772 98.0829 22.1735 96.5036 23.957 95.1223C24.3362 94.8285 24.7073 94.5457 25.0702 94.2691C26.4778 93.1964 27.7621 92.2176 28.9183 91.0615C30.5765 89.4032 32.6193 87.9423 34.3243 86.7244C34.7878 86.3933 35.3206 86.0734 35.7665 85.8057C35.89 85.7315 36.0069 85.6614 36.1137 85.5961C36.6703 85.2561 37.068 84.9855 37.3546 84.7163C37.6798 84.4108 37.9669 84.1175 38.2843 83.7933C38.4555 83.6185 38.6354 83.4347 38.8349 83.2351C39.3667 82.7031 39.9758 82.1249 40.6935 81.596C41.9191 80.6929 43.3393 80.1235 44.6141 79.6937C45.2024 79.4954 45.7969 79.3152 46.3476 79.1483C46.3998 79.1325 46.4516 79.1168 46.5029 79.1012C47.1107 78.9169 47.66 78.7478 48.1672 78.5678C50.8029 77.6326 53.6089 76.8129 56.3634 76.2458C57.0906 76.0961 57.8658 75.9087 58.6736 75.7134C60.4653 75.2804 62.4177 74.8085 64.3646 74.6221C66.0566 74.4601 67.7667 74.4193 69.3894 74.3806C69.5407 74.377 69.6913 74.3734 69.8411 74.3697C71.6282 74.3259 73.312 74.2709 74.941 74.0672C77.284 73.7744 80.2332 73.1134 82.1528 72.2176C83.4598 71.6076 84.7877 71.2442 86.0073 70.9545C86.4206 70.8563 86.8097 70.7688 87.1842 70.6845C87.9746 70.5068 88.7003 70.3436 89.4522 70.1253C90.336 69.8687 91.1315 69.6688 91.8809 69.4805C93.2097 69.1465 94.3934 68.8491 95.6667 68.3368C95.893 68.2458 96.0862 68.1419 96.3832 67.9823C96.46 67.941 96.5438 67.896 96.6369 67.8465C97.0426 67.6307 97.5959 67.3491 98.2698 67.1673C98.7163 67.0468 99.213 66.9063 99.7388 66.7575C100.755 66.47 101.88 66.1516 102.964 65.8873ZM5.99353 116.777C5.99352 116.777 5.99294 116.778 5.99179 116.779C5.99296 116.778 5.99354 116.777 5.99353 116.777Z" fill="black"/>
<path fill-rule="evenodd" clip-rule="evenodd" d="M201.254 40.6218C202.394 40.6218 203.318 41.5457 203.318 42.6855C203.318 44.6816 203.167 46.7206 202.997 48.6943C202.958 49.1394 202.919 49.5799 202.88 50.0163C202.745 51.5423 202.613 53.0177 202.537 54.4651C202.449 56.144 201.923 58.0772 201.462 59.4616C201.462 59.4612 201.461 59.4626 201.46 59.4658C201.46 59.4679 201.459 59.4708 201.458 59.4745C201.455 59.4839 201.452 59.4974 201.448 59.5154C201.44 59.5521 201.43 59.6018 201.421 59.6664C201.401 59.7982 201.384 59.9641 201.37 60.1692C201.349 60.4896 201.339 60.826 201.328 61.2078C201.325 61.3366 201.321 61.4707 201.316 61.611C201.3 62.1238 201.274 62.7239 201.197 63.2737C201.131 63.747 200.985 64.5462 200.503 65.2099C199.942 65.9809 199.526 66.7771 199.032 67.7253C198.926 67.9265 198.818 68.1345 198.704 68.3507C198.079 69.5305 197.321 70.868 196.139 72.1155C195.158 73.1504 194.043 74.0928 193.03 74.9477C192.804 75.1388 192.583 75.3256 192.37 75.508C191.148 76.5527 190.107 77.5154 189.304 78.6139C188.672 79.4789 187.927 80.3986 187.237 81.2507C186.79 81.8019 186.367 82.3248 186.011 82.7863C185.01 84.0877 184.19 85.3276 183.632 86.7216C183 88.3026 182.321 89.8065 181.467 91.3448C181.254 91.7273 180.872 92.5565 180.531 93.4489C180.365 93.8862 180.221 94.3067 180.118 94.6661C180.066 94.8451 180.029 94.996 180.004 95.1171C179.992 95.1769 179.984 95.2242 179.979 95.26C179.977 95.2775 179.975 95.291 179.974 95.3005C179.973 95.3092 179.973 95.3136 179.973 95.314C179.932 96.0899 179.697 96.8165 179.529 97.312C179.482 97.4508 179.439 97.575 179.4 97.6882C179.272 98.0578 179.185 98.3106 179.127 98.571C179.018 99.0623 178.862 99.6012 178.744 100.012C178.691 100.193 178.646 100.349 178.615 100.466C178.492 100.931 178.42 101.327 178.42 101.819C178.42 103.329 177.928 104.665 177.566 105.649C177.549 105.695 177.532 105.741 177.515 105.786C177.114 106.881 176.864 107.631 176.864 108.433C176.864 109.573 175.94 110.497 174.8 110.497C173.66 110.497 172.736 109.573 172.736 108.433C172.736 106.828 173.243 105.446 173.618 104.426L173.64 104.364C174.053 103.238 174.292 102.542 174.292 101.819C174.292 100.856 174.446 100.087 174.625 99.4099C174.708 99.0989 174.777 98.8627 174.84 98.6473C174.932 98.3343 175.011 98.0655 175.098 97.6756C175.213 97.1589 175.402 96.6149 175.54 96.2193C175.569 96.1344 175.597 96.0564 175.62 95.987C175.786 95.4975 175.843 95.2492 175.851 95.0971C175.901 94.1528 176.323 92.9019 176.675 91.9786C177.056 90.9772 177.519 89.9528 177.859 89.3403C178.606 87.9958 179.212 86.6589 179.8 85.1886C180.562 83.2833 181.642 81.6958 182.741 80.2685C183.253 79.603 183.721 79.0286 184.173 78.4733C184.777 77.7319 185.354 77.0243 185.972 76.1786C187.077 74.6663 188.435 73.4424 189.687 72.3715C189.943 72.152 190.194 71.9402 190.438 71.7335C191.437 70.8884 192.335 70.1291 193.143 69.2769C193.922 68.454 194.469 67.5294 195.055 66.4207C195.145 66.2516 195.236 66.0749 195.331 65.8925C195.807 64.9773 196.359 63.9154 197.072 62.9108C197.082 62.8686 197.096 62.8004 197.11 62.7002C197.153 62.3927 197.175 61.9912 197.191 61.4787C197.194 61.3738 197.197 61.2628 197.201 61.1478C197.212 60.7482 197.225 60.3005 197.252 59.8939C197.286 59.3921 197.351 58.7409 197.546 58.1563C197.971 56.8813 198.357 55.3673 198.415 54.2482C198.496 52.7186 198.636 51.1438 198.773 49.6058C198.811 49.1804 198.848 48.7578 198.884 48.3398C199.053 46.3822 199.191 44.4926 199.191 42.6855C199.191 41.5457 200.115 40.6218 201.254 40.6218Z" fill="black"/>
<path fill-rule="evenodd" clip-rule="evenodd" d="M332.156 112.54C333.56 112.406 335.081 112.262 336.63 112.262C338.18 112.262 339.721 112.332 341.205 112.399L341.218 112.4C342.722 112.468 344.167 112.533 345.599 112.533C346.739 112.533 347.663 113.457 347.663 114.597C347.663 115.736 346.739 116.66 345.599 116.66C344.069 116.66 342.541 116.591 341.063 116.524L341.031 116.523C339.528 116.455 338.076 116.39 336.63 116.39C335.298 116.39 333.961 116.514 332.519 116.651L332.458 116.657C331.065 116.789 329.567 116.931 328.053 116.931C326.323 116.931 324.586 117.06 322.759 117.196L322.723 117.199C320.933 117.333 319.054 117.473 317.158 117.473C315.609 117.473 314.059 117.714 312.326 117.989L312.249 118.001C310.59 118.265 308.752 118.556 306.865 118.556H284.925C280.764 118.556 276.608 118.757 272.395 118.96L272.366 118.962C268.179 119.164 263.935 119.369 259.674 119.369C255.566 119.369 251.447 119.503 247.295 119.639L247.263 119.64C243.133 119.775 238.969 119.911 234.814 119.911C230.462 119.911 226.08 119.978 221.674 120.046L221.665 120.046C217.262 120.114 212.835 120.182 208.42 120.182C208.076 120.182 207.81 120.174 207.584 120.167C207.248 120.157 207.001 120.15 206.719 120.175C206.685 120.192 206.624 120.221 206.528 120.269C206.211 120.427 205.6 120.723 204.748 120.723H180.806C180.401 120.723 180.044 120.716 179.71 120.71C179.141 120.699 178.641 120.689 178.096 120.718C178.066 120.73 177.99 120.76 177.836 120.829C177.827 120.833 177.818 120.837 177.809 120.841C177.503 120.978 176.864 121.265 176.036 121.265C174.896 121.265 173.972 120.341 173.972 119.201C173.972 118.085 174.86 117.175 175.968 117.139C175.997 117.127 176.054 117.105 176.15 117.062C176.167 117.054 176.186 117.046 176.207 117.036C176.472 116.915 177.073 116.64 177.818 116.599C178.528 116.56 179.315 116.574 179.995 116.586C180.291 116.591 180.566 116.596 180.806 116.596H204.644C204.655 116.59 204.669 116.584 204.684 116.576C204.697 116.57 204.713 116.561 204.733 116.551C204.935 116.446 205.487 116.158 206.175 116.082C206.787 116.014 207.526 116.033 208.028 116.046C208.186 116.051 208.32 116.054 208.42 116.054C212.798 116.054 217.193 115.987 221.602 115.919L221.627 115.919C226.022 115.851 230.43 115.783 234.814 115.783C238.901 115.783 243.008 115.649 247.161 115.514L247.162 115.514C251.302 115.378 255.487 115.242 259.674 115.242C263.829 115.242 267.982 115.041 272.195 114.838L272.215 114.837C276.406 114.634 280.655 114.429 284.925 114.429H306.865C308.401 114.429 309.944 114.188 311.679 113.913L311.74 113.903C313.405 113.639 315.253 113.345 317.158 113.345C318.887 113.345 320.625 113.217 322.452 113.08L322.488 113.078C324.278 112.944 326.157 112.804 328.053 112.804C329.361 112.804 330.684 112.679 332.129 112.542L332.156 112.54Z" fill="black"/>
<path fill-rule="evenodd" clip-rule="evenodd" d="M72.0174 118.033C72.5873 118.033 73.0492 118.495 73.0492 119.065C73.0492 119.44 73.0392 119.768 73.0296 120.079C73.0161 120.517 73.0037 120.921 73.022 121.374C73.0503 122.079 73.1571 122.679 73.4218 123.208C73.5417 123.448 73.7193 123.658 73.9905 123.961C74.005 123.977 74.0199 123.994 74.0353 124.011C74.2741 124.276 74.6081 124.648 74.8364 125.104C75.0912 125.614 74.8846 126.234 74.3749 126.489C73.8652 126.744 73.2454 126.537 72.9905 126.027C72.8954 125.837 72.741 125.659 72.4535 125.338L72.4448 125.328C72.1889 125.043 71.8333 124.646 71.576 124.131C71.1282 123.236 70.9942 122.309 70.9599 121.457C70.94 120.963 70.9555 120.397 70.9696 119.884C70.9778 119.585 70.9855 119.304 70.9855 119.065C70.9855 118.495 71.4475 118.033 72.0174 118.033Z" fill="black"/>
<path fill-rule="evenodd" clip-rule="evenodd" d="M78.9269 116.43C79.4968 116.43 79.9588 116.892 79.9588 117.462C79.9588 119.526 80.8341 121.161 82.3652 122.692C82.7682 123.095 82.7682 123.748 82.3652 124.151C81.9622 124.554 81.3089 124.554 80.9059 124.151C79.1082 122.353 77.895 120.223 77.895 117.462C77.895 116.892 78.357 116.43 78.9269 116.43Z" fill="black"/>
<path fill-rule="evenodd" clip-rule="evenodd" d="M161.016 107.407C159.173 109.963 159.07 114.107 159.776 117.403L155.74 118.268C154.949 114.577 154.796 108.974 157.669 104.993C159.167 102.916 161.416 101.393 164.512 100.842C167.545 100.303 171.293 100.71 175.876 102.238L174.571 106.153C170.372 104.754 167.357 104.529 165.235 104.906C163.176 105.272 161.876 106.215 161.016 107.407Z" fill="black"/>
<path fill-rule="evenodd" clip-rule="evenodd" d="M188.922 106.409C186.243 106.409 184.296 106.616 183.069 107.842C182.954 107.957 182.849 108.056 182.764 108.135C182.743 108.154 182.724 108.171 182.707 108.187C182.648 108.243 182.607 108.281 182.565 108.321C182.477 108.406 182.442 108.448 182.409 108.495C182.25 108.725 182.077 108.933 181.968 109.063C181.957 109.076 181.947 109.089 181.937 109.1C181.81 109.253 181.762 109.315 181.733 109.361C181.276 110.072 181.053 110.58 181.012 110.994C180.946 111.652 180.788 112.29 180.671 112.76C180.653 112.833 180.636 112.902 180.62 112.966C180.489 113.506 180.422 113.867 180.422 114.209C180.422 114.44 180.408 114.713 180.396 114.934C180.394 114.978 180.392 115.019 180.39 115.058C180.377 115.331 180.368 115.567 180.373 115.781C180.378 115.952 180.39 116.067 180.402 116.14C181.009 116.987 180.89 118.173 180.093 118.881C179.241 119.638 177.937 119.562 177.18 118.71C176.332 117.756 176.262 116.482 176.247 115.882C176.238 115.506 176.253 115.142 176.267 114.856C176.271 114.791 176.274 114.733 176.276 114.679C176.287 114.463 176.294 114.324 176.294 114.209C176.294 113.34 176.469 112.57 176.609 111.993C176.631 111.901 176.652 111.816 176.672 111.734C176.792 111.247 176.871 110.925 176.905 110.583C177.048 109.151 177.731 107.954 178.261 107.129C178.443 106.847 178.64 106.61 178.762 106.463L178.763 106.461C178.909 106.287 178.967 106.216 179.016 106.146C179.356 105.654 179.842 105.208 180.057 105.011C180.1 104.971 180.132 104.942 180.15 104.924C182.747 102.327 186.47 102.282 188.922 102.282C190.062 102.282 190.986 103.206 190.986 104.346C190.986 105.485 190.062 106.409 188.922 106.409ZM180.418 116.212C180.418 116.212 180.417 116.209 180.416 116.204C180.417 116.209 180.418 116.212 180.418 116.212Z" fill="black"/>
<path fill-rule="evenodd" clip-rule="evenodd" d="M190.683 111.958C189.785 111.958 188.767 112.478 187.661 113.1C187.44 113.224 187.162 113.362 186.934 113.475C186.811 113.536 186.703 113.59 186.626 113.631C186.344 113.779 186.125 113.918 185.927 114.105C185.846 114.182 185.759 114.277 185.633 114.413L185.633 114.414C185.518 114.539 185.372 114.698 185.213 114.847C184.911 115.133 184.422 115.524 183.748 115.595C183.182 115.655 182.674 115.244 182.614 114.677C182.555 114.111 182.964 113.604 183.53 113.543C183.532 113.542 183.61 113.523 183.797 113.346C183.894 113.255 183.992 113.15 184.113 113.018C184.119 113.011 184.125 113.004 184.132 112.997C184.239 112.88 184.373 112.734 184.51 112.605C184.899 112.237 185.3 111.996 185.665 111.804C185.853 111.705 185.996 111.635 186.128 111.571C186.297 111.488 186.448 111.415 186.649 111.302L186.651 111.301C187.658 110.735 189.151 109.894 190.683 109.894C191.253 109.894 191.715 110.356 191.715 110.926C191.715 111.496 191.253 111.958 190.683 111.958Z" fill="black"/>
<path fill-rule="evenodd" clip-rule="evenodd" d="M167.797 112.069C167.774 112.069 167.751 112.069 167.728 112.07C167.544 112.073 167.275 112.123 167.03 112.225C166.767 112.335 166.672 112.444 166.658 112.468C166.576 112.605 166.499 112.733 166.425 112.855C165.953 113.638 165.654 114.132 165.654 114.751C165.654 115.321 165.192 115.783 164.622 115.783C164.052 115.783 163.59 115.321 163.59 114.751C163.59 113.504 164.237 112.462 164.695 111.722C164.763 111.613 164.826 111.51 164.883 111.414C165.218 110.85 165.774 110.513 166.235 110.321C166.712 110.122 167.239 110.014 167.693 110.006C167.736 110.006 167.781 110.005 167.827 110.004C168.317 109.994 168.963 109.981 169.589 110.137C170.142 110.276 170.478 110.836 170.339 111.389C170.201 111.942 169.641 112.278 169.088 112.139C168.74 112.052 168.36 112.059 167.797 112.069Z" fill="black"/>
<path fill-rule="evenodd" clip-rule="evenodd" d="M259.07 31.4047C258.337 31.5559 257.439 31.7411 256.519 31.7952C256.111 31.8192 255.497 31.9298 254.897 32.1274C254.255 32.3384 253.883 32.5655 253.76 32.6821C253.251 33.1648 252.686 33.3476 252.464 33.4196L252.452 33.4232C252.407 33.4381 252.388 33.4439 252.373 33.4487C252.366 33.4508 252.36 33.4526 252.353 33.455C252.277 33.5137 252.185 33.5899 252.05 33.7031C252.044 33.7081 252.038 33.7133 252.031 33.7185C251.865 33.8584 251.62 34.0637 251.345 34.2529C251.307 34.2789 251.248 34.3221 251.173 34.377C250.865 34.6023 250.287 35.0254 249.786 35.2755C249.72 35.3086 249.633 35.3682 249.375 35.592C249.357 35.6082 249.336 35.626 249.315 35.6451C249.091 35.8409 248.706 36.1787 248.235 36.4496C247.949 36.6142 247.669 36.8742 247.2 37.3439C246.498 38.0456 245.73 38.7147 245.02 39.3339C244.769 39.5526 244.525 39.7651 244.294 39.9707C243.442 40.7279 242.138 40.6512 241.381 39.7993C240.623 38.9474 240.7 37.643 241.552 36.8857C241.85 36.6207 242.134 36.3733 242.407 36.1352C243.08 35.549 243.687 35.0197 244.281 34.4254C244.293 34.4133 244.305 34.401 244.318 34.3885C244.736 33.9703 245.368 33.3377 246.176 32.8727C246.273 32.8166 246.364 32.7409 246.668 32.4769L246.673 32.4722C246.93 32.249 247.363 31.8728 247.941 31.5838C248.111 31.4984 248.23 31.4111 248.432 31.2619C248.57 31.1603 248.747 31.0298 249.006 30.8516C249.103 30.7852 249.208 30.6995 249.398 30.5403C249.406 30.5336 249.414 30.5267 249.422 30.5197C249.587 30.3818 249.827 30.1799 250.096 29.9942C250.358 29.8128 250.607 29.7007 250.794 29.6285C250.905 29.5857 251.028 29.5454 251.106 29.5204C251.858 28.881 252.813 28.4678 253.607 28.2067C254.507 27.9105 255.473 27.7221 256.276 27.6748C256.883 27.6392 257.49 27.5149 258.279 27.3535C258.342 27.3405 258.407 27.3272 258.473 27.3138C259.296 27.1458 260.313 26.9468 261.396 26.9468C262.567 26.9468 263.694 27.1829 264.68 27.4495C265.235 27.5993 265.882 27.8013 266.459 27.981C266.811 28.091 267.137 28.1926 267.399 28.269C268.051 28.4592 268.595 28.7849 268.97 29.0264C269.18 29.161 269.324 29.2592 269.446 29.3414C269.603 29.4483 269.721 29.5283 269.89 29.6266C271.015 30.2829 271.534 31.3438 271.793 31.876C272.238 32.7929 272.66 33.9047 272.66 35.2407C272.66 35.987 272.523 36.5807 272.38 37.0647C272.313 37.2921 272.262 37.4494 272.219 37.5818C272.157 37.7741 272.112 37.9138 272.059 38.139C271.9 38.8244 271.577 39.4231 271.349 39.8214C271.228 40.0317 271.135 40.1867 271.058 40.316C270.947 40.5008 270.868 40.6332 270.784 40.8C270.297 41.7749 269.746 42.7391 269.155 43.6619C268.957 43.9712 268.789 44.3286 268.561 44.8318C268.549 44.8584 268.536 44.8856 268.524 44.9133C268.32 45.363 268.058 45.941 267.72 46.4934C267.438 46.9522 267.174 47.3672 266.921 47.7636C266.479 48.4553 266.074 49.09 265.682 49.8006C265.055 50.9374 264.314 51.9925 263.649 52.9392C263.573 53.0475 263.498 53.1545 263.424 53.2599C262.678 54.3262 262.039 55.2744 261.557 56.2752C261.052 57.3247 260.797 58.2631 260.472 59.4601C260.375 59.8187 260.271 60.2005 260.153 60.6155C260.153 60.614 260.153 60.6132 260.153 60.6132C260.154 60.6133 260.141 60.6865 260.147 61.0406C260.148 61.0627 260.148 61.087 260.149 61.1132C260.155 61.3918 260.166 61.8943 260.069 62.4197L260.07 62.4327L260.07 62.4338C260.071 62.4533 260.072 62.4785 260.074 62.5047C260.078 62.6011 260.086 62.7943 260.068 63.0134C260.049 63.2392 259.997 63.5597 259.841 63.9058C259.815 63.9649 259.79 64.0174 259.769 64.061C259.765 64.0684 259.762 64.0756 259.758 64.0826C259.719 64.7128 259.518 65.2693 259.394 65.5953C259.302 65.8374 259.24 65.9893 259.192 66.1049C259.136 66.2412 259.1 66.3271 259.062 66.4509C258.83 67.2055 258.325 68.224 257.725 68.9094C257.634 69.0133 257.532 69.1369 257.417 69.2744C256.852 69.9553 256.004 70.9755 254.916 71.6152C254.837 71.6621 254.76 71.7032 254.7 71.7343C254.639 71.766 254.576 71.7974 254.525 71.8233L254.515 71.8281C254.43 71.8706 254.365 71.9033 254.307 71.9337C254.258 71.9944 254.205 72.0543 254.148 72.1127C254.121 72.1411 254.093 72.1685 254.064 72.1951C253.734 72.896 253.022 73.3812 252.196 73.3812C251.056 73.3812 250.132 72.4572 250.132 71.3175C250.132 71.068 250.144 70.5811 250.369 70.0881C250.502 69.7969 250.703 69.5133 250.986 69.2782C251.102 69.1815 251.217 69.1059 251.322 69.0469C251.492 68.8634 251.654 68.7387 251.749 68.6692C251.945 68.5255 252.143 68.412 252.286 68.3342C252.421 68.2609 252.557 68.1927 252.651 68.1454L252.675 68.1333C252.796 68.0727 252.824 68.0573 252.824 68.0576C253.238 67.8141 253.511 67.4909 254.02 66.8899C254.189 66.6902 254.384 66.4598 254.619 66.1914C254.761 66.0289 255.019 65.5578 255.117 65.2371C255.19 65.0005 255.278 64.7744 255.348 64.6017C255.375 64.5342 255.398 64.4753 255.42 64.4213C255.463 64.3156 255.499 64.2282 255.536 64.1296C255.588 63.9925 255.617 63.9024 255.632 63.8416C255.635 63.8319 255.637 63.8241 255.638 63.818C255.644 63.3837 255.731 63.0173 255.858 62.6921C255.886 62.6205 255.915 62.554 255.941 62.4971C255.94 62.4578 255.939 62.4133 255.939 62.3659C255.938 62.2104 255.945 61.9562 256.012 61.6654C256.012 61.6658 256.019 61.6314 256.023 61.5335C256.026 61.4313 256.024 61.3238 256.021 61.1425L256.021 61.1151C256.02 61.1021 256.02 61.0885 256.02 61.0743C256.014 60.7469 256.002 60.1206 256.184 59.4816C256.269 59.1861 256.351 58.8801 256.436 58.5653C256.775 57.3081 257.152 55.9105 257.838 54.4847C258.481 53.1498 259.298 51.9573 260.043 50.8932C260.117 50.7873 260.19 50.6827 260.263 50.5793C260.946 49.6057 261.556 48.7362 262.068 47.8068C262.518 46.9915 263.053 46.1517 263.542 45.3838C263.777 45.0145 264.001 44.6618 264.201 44.3365C264.4 44.0106 264.567 43.6452 264.802 43.1265L264.804 43.1208C265.02 42.646 265.3 42.0294 265.679 41.437C266.195 40.6301 266.673 39.7923 267.092 38.9541C267.241 38.6564 267.462 38.2847 267.622 38.0157C267.681 37.9173 267.731 37.8326 267.767 37.7703C267.965 37.4254 268.025 37.2664 268.039 37.2041C268.108 36.9095 268.185 36.6507 268.252 36.4348C268.282 36.3415 268.306 36.2658 268.327 36.1984C268.362 36.09 268.39 36.0031 268.421 35.899C268.5 35.6289 268.533 35.4513 268.533 35.2407C268.533 34.8008 268.403 34.344 268.08 33.6793C267.963 33.4373 267.89 33.31 267.83 33.2277C267.812 33.2036 267.8 33.1893 267.793 33.182C267.531 33.0279 267.2 32.806 266.964 32.6483C266.869 32.5848 266.79 32.5317 266.737 32.4976C266.444 32.3091 266.307 32.2499 266.244 32.2314C265.797 32.1012 265.419 31.982 265.057 31.8682C264.581 31.7182 264.135 31.5777 263.604 31.4341C262.762 31.2066 262.038 31.0743 261.396 31.0743C260.776 31.0743 260.129 31.1884 259.298 31.358C259.224 31.3731 259.148 31.3887 259.07 31.4047ZM267.787 33.1756C267.787 33.1756 267.787 33.1759 267.788 33.1768C267.787 33.176 267.787 33.1756 267.787 33.1756ZM253.042 72.7784L253.043 72.778C253.04 72.779 253.039 72.7792 253.042 72.7784ZM251.235 29.4774C251.235 29.4774 251.232 29.4788 251.224 29.4816C251.231 29.4787 251.235 29.4773 251.235 29.4774Z" fill="black"/>
<path fill-rule="evenodd" clip-rule="evenodd" d="M255.256 70.7595C254.879 69.9914 254.045 69.5101 253.148 69.6222C252.017 69.7635 251.215 70.795 251.356 71.926C251.397 72.2556 251.505 72.5059 251.565 72.6299C251.632 72.7708 251.703 72.8856 251.754 72.963C251.854 73.1145 251.961 73.2489 252.024 73.3271C252.056 73.3666 252.089 73.4057 252.114 73.4364C252.116 73.4393 252.119 73.4422 252.121 73.445C252.142 73.4707 252.159 73.4905 252.172 73.5073C252.179 73.5196 252.186 73.5335 252.194 73.5495C252.202 73.5639 252.211 73.5822 252.222 73.603C252.25 73.6573 252.287 73.7282 252.319 73.7894C252.367 73.8797 252.431 73.9968 252.503 74.1158C252.565 74.2167 252.671 74.382 252.816 74.5501C252.825 74.5631 252.841 74.5853 252.861 74.6171C252.906 74.688 252.958 74.7782 253.005 74.8712C253.035 74.931 253.058 74.9803 253.073 75.0167C253.213 76.0206 254.075 76.7935 255.117 76.7935C256.257 76.7935 257.181 75.8695 257.181 74.7297C257.181 74.2737 257.052 73.8784 256.982 73.6828C256.895 73.4387 256.787 73.2031 256.684 73.0005C256.516 72.6707 256.272 72.254 256.006 71.9302C255.996 71.9126 255.983 71.8886 255.966 71.8565C255.944 71.8142 255.925 71.778 255.902 71.7342C255.889 71.7083 255.874 71.6798 255.857 71.6457C255.819 71.5726 255.761 71.4634 255.699 71.358C255.636 71.2494 255.572 71.1597 255.529 71.1013C255.483 71.0392 255.439 70.9828 255.404 70.9389C255.368 70.8947 255.332 70.8513 255.305 70.8178L255.3 70.8118C255.283 70.792 255.269 70.775 255.256 70.7595ZM253.096 75.0746C253.096 75.0746 253.096 75.0741 253.095 75.073C253.096 75.0741 253.096 75.0746 253.096 75.0746ZM252.809 74.5401C252.809 74.5401 252.809 74.5407 252.81 74.542C252.809 74.5408 252.809 74.5402 252.809 74.5401ZM252.21 73.5554C252.21 73.5553 252.209 73.553 252.205 73.5488C252.209 73.5533 252.21 73.5554 252.21 73.5554Z" fill="black"/>
<path fill-rule="evenodd" clip-rule="evenodd" d="M65.3473 120.253C65.9171 120.253 66.3791 120.715 66.3791 121.284C66.3791 121.484 66.3382 121.667 66.2676 121.832C66.2251 121.931 66.1758 122.012 66.1382 122.069C66.1374 122.084 66.1366 122.1 66.1356 122.12C66.1338 122.157 66.1315 122.204 66.1278 122.267C66.1178 122.44 66.096 122.703 65.9894 122.996C65.9582 123.082 65.9372 123.202 65.9326 123.397C65.9292 123.539 65.9321 123.631 65.9356 123.741C65.9387 123.839 65.9423 123.951 65.9423 124.124C65.9423 124.579 66.162 125.084 66.4886 125.738C66.7435 126.247 66.5369 126.867 66.0272 127.122C65.5174 127.377 64.8976 127.17 64.6428 126.661L64.6362 126.647C64.3406 126.056 63.8785 125.132 63.8785 124.124C63.8785 124.08 63.8768 124.002 63.8748 123.909C63.8709 123.731 63.8658 123.5 63.8694 123.348C63.8767 123.046 63.9103 122.675 64.0499 122.291L64.0499 122.291C64.0525 122.284 64.061 122.26 64.0676 122.147C64.0683 122.134 64.0691 122.117 64.07 122.097C64.0749 121.988 64.0841 121.781 64.1197 121.585C64.1654 121.334 64.2747 121.137 64.3482 121.025C64.4632 120.581 64.8669 120.253 65.3473 120.253ZM64.424 120.919C64.4241 120.919 64.4232 120.921 64.4211 120.924C64.4229 120.921 64.424 120.92 64.424 120.919ZM66.0641 122.175C66.064 122.175 66.0647 122.174 66.066 122.172C66.0648 122.174 66.0641 122.175 66.0641 122.175Z" fill="black"/>
</svg>
