<svg width="525" height="65" viewBox="0 0 525 65" fill="none" xmlns="http://www.w3.org/2000/svg">
<mask id="path-1-outside-1_692_725" maskUnits="userSpaceOnUse" x="0" y="0" width="525" height="65" fill="black">
<rect fill="white" width="525" height="65"/>
<path d="M17.296 27.024V50.576H9.936V34.128H2.768V27.024H17.296ZM17.296 47.568C19.728 51.792 24.272 53.648 30.864 53.904C38.544 54.288 53.712 54.096 62.608 53.392C61.776 55.12 60.56 58.64 60.24 60.88C52.24 61.264 38.608 61.392 30.8 61.008C23.12 60.688 17.936 58.832 14.096 53.904C11.536 56.4 8.848 58.832 5.648 61.584L2 53.968C4.688 52.24 7.824 49.936 10.64 47.568H17.296ZM2.96 8.016L8.848 3.728C12.496 6.544 16.976 10.832 18.96 13.84L12.624 18.704C10.896 15.568 6.608 11.152 2.96 8.016ZM18.32 18.704H61.392V24.016H18.32V18.704ZM30.544 30.288V33.552H48.912V30.288H30.544ZM23.44 26H56.528V37.84H23.44V26ZM37.2 34.128L43.6 36.368C38.8 42.64 30.672 47.824 23.056 50.896C22.16 49.424 20.048 46.608 18.64 45.264C25.872 42.896 33.296 38.928 37.2 34.128ZM54.928 35.152L60.368 38.864C57.04 41.168 53.584 43.472 50.832 44.944L46.8 41.872C49.424 40.208 52.944 37.2 54.928 35.152ZM42.256 36.752C45.84 41.552 53.072 44.944 61.52 46.288C60.048 47.632 58.192 50.256 57.296 52.048C48.272 49.936 40.976 45.072 36.752 38.352L42.256 36.752ZM47.568 8.016V12.432H51.664V8.016H47.568ZM37.712 8.016V12.432H41.744V8.016H37.712ZM27.984 8.016V12.432H31.952V8.016H27.984ZM21.52 3.728H58.448V16.784H21.52V3.728ZM35.472 35.472H42.768V52.688H35.472V35.472Z"/>
<path d="M74.192 9.808H131.28V16.976H74.192V9.808ZM91.472 32.848H119.312V39.248H91.472V32.848ZM85.776 22.032H118.16V28.752H93.392V62.096H85.776V22.032ZM116.624 22.032H124.112V53.84C124.112 57.616 123.408 59.728 120.784 60.944C118.224 62.096 114.576 62.16 109.392 62.16C109.072 60.048 108.048 56.784 107.024 54.8C110.352 54.992 114.128 54.928 115.216 54.928C116.24 54.928 116.624 54.608 116.624 53.712V22.032ZM94.032 2L101.968 3.792C97.488 18.256 89.808 32.976 77.328 41.68C76.24 39.952 73.808 37.2 72.272 35.728C83.664 28.24 90.832 14.48 94.032 2ZM91.472 43.408H119.312V49.808H91.472V43.408Z"/>
<path d="M144.272 41.232H201.872V48.272H144.272V41.232ZM146.256 8.464H200.272V15.504H146.256V8.464ZM160.08 19.472H186V25.872H160.08V19.472ZM160.08 30.224H186V36.624H160.08V30.224ZM155.216 2.192H162.832V45.008H155.216V2.192ZM183.056 2.192H190.864V45.008H183.056V2.192ZM176.336 53.456L181.84 48.72C189.136 51.216 197.392 54.672 202.256 57.104L194.832 61.968C190.736 59.472 183.376 56.016 176.336 53.456ZM163.408 48.08L169.808 53.136C163.984 56.464 155.28 60.048 148.496 62.096C147.344 60.496 145.104 57.936 143.504 56.336C150.224 54.544 158.928 50.96 163.408 48.08Z"/>
<path d="M250.384 2.32H257.552V46.928H250.384V2.32ZM228.752 27.408L266.768 12.624L269.648 19.28L231.696 34.192L228.752 27.408ZM236.56 9.232H244.176V49.872C244.176 53.712 244.816 54.288 249.04 54.288C250.96 54.288 259.728 54.288 261.968 54.288C265.68 54.288 266.384 52.752 266.96 45.456C268.688 46.672 271.76 47.952 273.936 48.464C272.912 58.064 270.608 61.2 262.544 61.2C260.368 61.2 250.384 61.2 248.4 61.2C239.12 61.2 236.56 58.768 236.56 49.872V9.232ZM264.144 13.904H263.696L265.04 12.944L266.384 11.92L271.632 13.968L271.312 15.12C271.248 26.32 271.184 34.064 270.8 36.816C270.48 40.08 269.328 41.744 267.152 42.704C265.232 43.536 262.224 43.664 259.92 43.6C259.792 41.424 259.088 38.224 258.256 36.56C259.6 36.624 261.456 36.624 262.16 36.624C263.056 36.624 263.504 36.432 263.824 35.152C264.08 33.744 264.144 27.344 264.144 13.904ZM226.96 2.32L234.064 4.56C229.968 15.376 223.312 26.896 216.4 34.192C215.696 32.4 213.648 28.24 212.368 26.384C218.192 20.56 223.696 11.472 226.96 2.32ZM220.496 19.984L228.048 12.496V12.56V62.096H220.496V19.984Z"/>
<path d="M304.528 32.912H326.16V53.072H304.528V46.8H318.992V39.184H304.528V32.912ZM301.264 32.912H308.368V56.72H301.264V32.912ZM290.768 13.776H306.832V19.024H290.768V13.776ZM320.464 13.776H336.656V19.024H320.464V13.776ZM333.456 4.496H341.2V52.944C341.2 57.296 340.304 59.472 337.68 60.752C334.992 62.032 330.96 62.16 325.072 62.16C324.816 59.984 323.536 56.336 322.448 54.352C326.16 54.544 330.576 54.48 331.792 54.48C333.008 54.48 333.456 54.032 333.456 52.88V4.496ZM291.408 4.496H311.632V28.496H291.408V22.608H304.464V10.384H291.408V4.496ZM337.616 4.496V10.32H323.28V22.736H337.616V28.56H315.984V4.496H337.616ZM286.992 4.496H294.608V62.16H286.992V4.496Z"/>
<path d="M364.816 17.552V20.624H373.904V17.552H364.816ZM364.816 9.68V12.688H373.904V9.68H364.816ZM358.032 4.56H381.008V25.808H358.032V4.56ZM355.024 29.456H383.888V35.088H355.024V29.456ZM383.632 4.752H413.136V10.128H383.632V4.752ZM366.992 31.248H373.392V56.976L366.992 53.264V31.248ZM370.32 40.272H382.736V45.776H370.32V40.272ZM395.984 6.032L402.96 7.568C401.424 11.152 399.76 14.992 398.416 17.488L392.976 16.08C394.128 13.2 395.344 9.04 395.984 6.032ZM392.464 26.64V29.648H404.112V26.64H392.464ZM392.464 34.512V37.584H404.112V34.512H392.464ZM392.464 18.704V21.712H404.112V18.704H392.464ZM385.616 13.52H411.216V42.832H385.616V13.52ZM390.8 43.28L397.136 45.2C394.384 48.848 389.84 52.496 385.872 54.672C384.784 53.456 382.352 51.216 380.944 50.192C384.784 48.528 388.624 45.904 390.8 43.28ZM357.968 37.584H364.112C363.792 47.376 362.832 56.784 357.968 62.544C357.072 60.944 355.024 58.512 353.488 57.36C357.136 52.88 357.776 45.328 357.968 37.584ZM363.088 42.96C366.672 53.712 374.672 54.8 387.728 54.864C392.016 54.864 409.68 54.864 414.928 54.608C413.904 56.08 412.816 59.024 412.432 60.944H387.728C371.856 60.944 363.088 58.768 358.544 44.304L363.088 42.96ZM399.888 45.584L405.136 42.832C408.592 45.072 412.56 48.528 414.544 50.96L409.04 54.224C407.056 51.664 403.088 47.952 399.888 45.584Z"/>
<path d="M430.544 7.696H445.264V44.496H430.544V37.392H438.352V14.8H430.544V7.696ZM426.704 7.696H433.488V49.744H426.704V7.696ZM453.072 14.864H480.336V20.816H453.072V14.864ZM453.072 24.592H480.336V30.544H453.072V24.592ZM448.784 34.384H478.416V40.784H448.784V34.384ZM448.784 4.624H482.128V11.216H456.016V37.84H448.784V4.624ZM462.864 8.208H469.904V37.328H462.864V8.208ZM476.944 34.384H483.92C483.92 34.384 483.856 36.304 483.792 37.136C483.152 51.6 482.384 57.488 480.784 59.6C479.568 61.136 478.288 61.584 476.56 61.904C475.088 62.096 472.592 62.16 469.904 62.096C469.776 60.112 469.072 57.36 468.112 55.568C470.16 55.76 471.952 55.824 472.912 55.824C473.744 55.824 474.32 55.696 474.832 54.992C475.792 53.84 476.432 48.912 476.944 35.536V34.384ZM446.736 42.96L452.368 44.56C451.6 50.064 450.32 56.336 447.632 60.176L442.128 57.424C444.56 53.84 446.032 48.208 446.736 42.96ZM453.776 44.24L458.832 43.472C459.856 47.632 460.368 53.008 460.24 56.528L454.928 57.424C455.184 53.904 454.672 48.464 453.776 44.24ZM460.88 43.792L465.488 42.448C467.024 45.968 468.304 50.64 468.688 53.648L463.76 55.184C463.504 52.048 462.288 47.376 460.88 43.792ZM467.856 42.896L472.016 41.424C473.616 44.176 475.088 47.824 475.728 50.256L471.312 51.856C470.8 49.36 469.392 45.648 467.856 42.896Z"/>
<path d="M501.136 44.624V43.472C501.136 41.68 501.477 40.2293 502.16 39.12C502.843 37.968 503.888 36.7733 505.296 35.536C506.448 34.512 507.472 33.68 508.368 33.04C509.264 32.3573 509.968 31.696 510.48 31.056C511.035 30.3733 511.312 29.5413 511.312 28.56C511.312 27.1947 510.757 26.2347 509.648 25.68C508.581 25.0827 506.832 24.784 504.4 24.784C502.523 24.784 500.731 25.0187 499.024 25.488C497.36 25.9147 495.931 26.4907 494.736 27.216V17.232C496.4 16.3787 498.32 15.7173 500.496 15.248C502.672 14.7787 505.125 14.544 507.856 14.544C512.933 14.544 516.816 15.632 519.504 17.808C522.235 19.984 523.6 22.9707 523.6 26.768C523.6 29.1147 523.152 31.0347 522.256 32.528C521.36 34.0213 519.952 35.5573 518.032 37.136C516.581 38.3307 515.301 39.3973 514.192 40.336C513.083 41.2747 512.528 42.448 512.528 43.856V44.624H501.136ZM500.56 56.4V47.888H513.104V56.4H500.56Z"/>
</mask>
<path d="M17.296 27.024V50.576H9.936V34.128H2.768V27.024H17.296ZM17.296 47.568C19.728 51.792 24.272 53.648 30.864 53.904C38.544 54.288 53.712 54.096 62.608 53.392C61.776 55.12 60.56 58.64 60.24 60.88C52.24 61.264 38.608 61.392 30.8 61.008C23.12 60.688 17.936 58.832 14.096 53.904C11.536 56.4 8.848 58.832 5.648 61.584L2 53.968C4.688 52.24 7.824 49.936 10.64 47.568H17.296ZM2.96 8.016L8.848 3.728C12.496 6.544 16.976 10.832 18.96 13.84L12.624 18.704C10.896 15.568 6.608 11.152 2.96 8.016ZM18.32 18.704H61.392V24.016H18.32V18.704ZM30.544 30.288V33.552H48.912V30.288H30.544ZM23.44 26H56.528V37.84H23.44V26ZM37.2 34.128L43.6 36.368C38.8 42.64 30.672 47.824 23.056 50.896C22.16 49.424 20.048 46.608 18.64 45.264C25.872 42.896 33.296 38.928 37.2 34.128ZM54.928 35.152L60.368 38.864C57.04 41.168 53.584 43.472 50.832 44.944L46.8 41.872C49.424 40.208 52.944 37.2 54.928 35.152ZM42.256 36.752C45.84 41.552 53.072 44.944 61.52 46.288C60.048 47.632 58.192 50.256 57.296 52.048C48.272 49.936 40.976 45.072 36.752 38.352L42.256 36.752ZM47.568 8.016V12.432H51.664V8.016H47.568ZM37.712 8.016V12.432H41.744V8.016H37.712ZM27.984 8.016V12.432H31.952V8.016H27.984ZM21.52 3.728H58.448V16.784H21.52V3.728ZM35.472 35.472H42.768V52.688H35.472V35.472Z" fill="white"/>
<path d="M74.192 9.808H131.28V16.976H74.192V9.808ZM91.472 32.848H119.312V39.248H91.472V32.848ZM85.776 22.032H118.16V28.752H93.392V62.096H85.776V22.032ZM116.624 22.032H124.112V53.84C124.112 57.616 123.408 59.728 120.784 60.944C118.224 62.096 114.576 62.16 109.392 62.16C109.072 60.048 108.048 56.784 107.024 54.8C110.352 54.992 114.128 54.928 115.216 54.928C116.24 54.928 116.624 54.608 116.624 53.712V22.032ZM94.032 2L101.968 3.792C97.488 18.256 89.808 32.976 77.328 41.68C76.24 39.952 73.808 37.2 72.272 35.728C83.664 28.24 90.832 14.48 94.032 2ZM91.472 43.408H119.312V49.808H91.472V43.408Z" fill="white"/>
<path d="M144.272 41.232H201.872V48.272H144.272V41.232ZM146.256 8.464H200.272V15.504H146.256V8.464ZM160.08 19.472H186V25.872H160.08V19.472ZM160.08 30.224H186V36.624H160.08V30.224ZM155.216 2.192H162.832V45.008H155.216V2.192ZM183.056 2.192H190.864V45.008H183.056V2.192ZM176.336 53.456L181.84 48.72C189.136 51.216 197.392 54.672 202.256 57.104L194.832 61.968C190.736 59.472 183.376 56.016 176.336 53.456ZM163.408 48.08L169.808 53.136C163.984 56.464 155.28 60.048 148.496 62.096C147.344 60.496 145.104 57.936 143.504 56.336C150.224 54.544 158.928 50.96 163.408 48.08Z" fill="white"/>
<path d="M250.384 2.32H257.552V46.928H250.384V2.32ZM228.752 27.408L266.768 12.624L269.648 19.28L231.696 34.192L228.752 27.408ZM236.56 9.232H244.176V49.872C244.176 53.712 244.816 54.288 249.04 54.288C250.96 54.288 259.728 54.288 261.968 54.288C265.68 54.288 266.384 52.752 266.96 45.456C268.688 46.672 271.76 47.952 273.936 48.464C272.912 58.064 270.608 61.2 262.544 61.2C260.368 61.2 250.384 61.2 248.4 61.2C239.12 61.2 236.56 58.768 236.56 49.872V9.232ZM264.144 13.904H263.696L265.04 12.944L266.384 11.92L271.632 13.968L271.312 15.12C271.248 26.32 271.184 34.064 270.8 36.816C270.48 40.08 269.328 41.744 267.152 42.704C265.232 43.536 262.224 43.664 259.92 43.6C259.792 41.424 259.088 38.224 258.256 36.56C259.6 36.624 261.456 36.624 262.16 36.624C263.056 36.624 263.504 36.432 263.824 35.152C264.08 33.744 264.144 27.344 264.144 13.904ZM226.96 2.32L234.064 4.56C229.968 15.376 223.312 26.896 216.4 34.192C215.696 32.4 213.648 28.24 212.368 26.384C218.192 20.56 223.696 11.472 226.96 2.32ZM220.496 19.984L228.048 12.496V12.56V62.096H220.496V19.984Z" fill="white"/>
<path d="M304.528 32.912H326.16V53.072H304.528V46.8H318.992V39.184H304.528V32.912ZM301.264 32.912H308.368V56.72H301.264V32.912ZM290.768 13.776H306.832V19.024H290.768V13.776ZM320.464 13.776H336.656V19.024H320.464V13.776ZM333.456 4.496H341.2V52.944C341.2 57.296 340.304 59.472 337.68 60.752C334.992 62.032 330.96 62.16 325.072 62.16C324.816 59.984 323.536 56.336 322.448 54.352C326.16 54.544 330.576 54.48 331.792 54.48C333.008 54.48 333.456 54.032 333.456 52.88V4.496ZM291.408 4.496H311.632V28.496H291.408V22.608H304.464V10.384H291.408V4.496ZM337.616 4.496V10.32H323.28V22.736H337.616V28.56H315.984V4.496H337.616ZM286.992 4.496H294.608V62.16H286.992V4.496Z" fill="white"/>
<path d="M364.816 17.552V20.624H373.904V17.552H364.816ZM364.816 9.68V12.688H373.904V9.68H364.816ZM358.032 4.56H381.008V25.808H358.032V4.56ZM355.024 29.456H383.888V35.088H355.024V29.456ZM383.632 4.752H413.136V10.128H383.632V4.752ZM366.992 31.248H373.392V56.976L366.992 53.264V31.248ZM370.32 40.272H382.736V45.776H370.32V40.272ZM395.984 6.032L402.96 7.568C401.424 11.152 399.76 14.992 398.416 17.488L392.976 16.08C394.128 13.2 395.344 9.04 395.984 6.032ZM392.464 26.64V29.648H404.112V26.64H392.464ZM392.464 34.512V37.584H404.112V34.512H392.464ZM392.464 18.704V21.712H404.112V18.704H392.464ZM385.616 13.52H411.216V42.832H385.616V13.52ZM390.8 43.28L397.136 45.2C394.384 48.848 389.84 52.496 385.872 54.672C384.784 53.456 382.352 51.216 380.944 50.192C384.784 48.528 388.624 45.904 390.8 43.28ZM357.968 37.584H364.112C363.792 47.376 362.832 56.784 357.968 62.544C357.072 60.944 355.024 58.512 353.488 57.36C357.136 52.88 357.776 45.328 357.968 37.584ZM363.088 42.96C366.672 53.712 374.672 54.8 387.728 54.864C392.016 54.864 409.68 54.864 414.928 54.608C413.904 56.08 412.816 59.024 412.432 60.944H387.728C371.856 60.944 363.088 58.768 358.544 44.304L363.088 42.96ZM399.888 45.584L405.136 42.832C408.592 45.072 412.56 48.528 414.544 50.96L409.04 54.224C407.056 51.664 403.088 47.952 399.888 45.584Z" fill="white"/>
<path d="M430.544 7.696H445.264V44.496H430.544V37.392H438.352V14.8H430.544V7.696ZM426.704 7.696H433.488V49.744H426.704V7.696ZM453.072 14.864H480.336V20.816H453.072V14.864ZM453.072 24.592H480.336V30.544H453.072V24.592ZM448.784 34.384H478.416V40.784H448.784V34.384ZM448.784 4.624H482.128V11.216H456.016V37.84H448.784V4.624ZM462.864 8.208H469.904V37.328H462.864V8.208ZM476.944 34.384H483.92C483.92 34.384 483.856 36.304 483.792 37.136C483.152 51.6 482.384 57.488 480.784 59.6C479.568 61.136 478.288 61.584 476.56 61.904C475.088 62.096 472.592 62.16 469.904 62.096C469.776 60.112 469.072 57.36 468.112 55.568C470.16 55.76 471.952 55.824 472.912 55.824C473.744 55.824 474.32 55.696 474.832 54.992C475.792 53.84 476.432 48.912 476.944 35.536V34.384ZM446.736 42.96L452.368 44.56C451.6 50.064 450.32 56.336 447.632 60.176L442.128 57.424C444.56 53.84 446.032 48.208 446.736 42.96ZM453.776 44.24L458.832 43.472C459.856 47.632 460.368 53.008 460.24 56.528L454.928 57.424C455.184 53.904 454.672 48.464 453.776 44.24ZM460.88 43.792L465.488 42.448C467.024 45.968 468.304 50.64 468.688 53.648L463.76 55.184C463.504 52.048 462.288 47.376 460.88 43.792ZM467.856 42.896L472.016 41.424C473.616 44.176 475.088 47.824 475.728 50.256L471.312 51.856C470.8 49.36 469.392 45.648 467.856 42.896Z" fill="white"/>
<path d="M501.136 44.624V43.472C501.136 41.68 501.477 40.2293 502.16 39.12C502.843 37.968 503.888 36.7733 505.296 35.536C506.448 34.512 507.472 33.68 508.368 33.04C509.264 32.3573 509.968 31.696 510.48 31.056C511.035 30.3733 511.312 29.5413 511.312 28.56C511.312 27.1947 510.757 26.2347 509.648 25.68C508.581 25.0827 506.832 24.784 504.4 24.784C502.523 24.784 500.731 25.0187 499.024 25.488C497.36 25.9147 495.931 26.4907 494.736 27.216V17.232C496.4 16.3787 498.32 15.7173 500.496 15.248C502.672 14.7787 505.125 14.544 507.856 14.544C512.933 14.544 516.816 15.632 519.504 17.808C522.235 19.984 523.6 22.9707 523.6 26.768C523.6 29.1147 523.152 31.0347 522.256 32.528C521.36 34.0213 519.952 35.5573 518.032 37.136C516.581 38.3307 515.301 39.3973 514.192 40.336C513.083 41.2747 512.528 42.448 512.528 43.856V44.624H501.136ZM500.56 56.4V47.888H513.104V56.4H500.56Z" fill="white"/>
<path d="M17.296 27.024V50.576H9.936V34.128H2.768V27.024H17.296ZM17.296 47.568C19.728 51.792 24.272 53.648 30.864 53.904C38.544 54.288 53.712 54.096 62.608 53.392C61.776 55.12 60.56 58.64 60.24 60.88C52.24 61.264 38.608 61.392 30.8 61.008C23.12 60.688 17.936 58.832 14.096 53.904C11.536 56.4 8.848 58.832 5.648 61.584L2 53.968C4.688 52.24 7.824 49.936 10.64 47.568H17.296ZM2.96 8.016L8.848 3.728C12.496 6.544 16.976 10.832 18.96 13.84L12.624 18.704C10.896 15.568 6.608 11.152 2.96 8.016ZM18.32 18.704H61.392V24.016H18.32V18.704ZM30.544 30.288V33.552H48.912V30.288H30.544ZM23.44 26H56.528V37.84H23.44V26ZM37.2 34.128L43.6 36.368C38.8 42.64 30.672 47.824 23.056 50.896C22.16 49.424 20.048 46.608 18.64 45.264C25.872 42.896 33.296 38.928 37.2 34.128ZM54.928 35.152L60.368 38.864C57.04 41.168 53.584 43.472 50.832 44.944L46.8 41.872C49.424 40.208 52.944 37.2 54.928 35.152ZM42.256 36.752C45.84 41.552 53.072 44.944 61.52 46.288C60.048 47.632 58.192 50.256 57.296 52.048C48.272 49.936 40.976 45.072 36.752 38.352L42.256 36.752ZM47.568 8.016V12.432H51.664V8.016H47.568ZM37.712 8.016V12.432H41.744V8.016H37.712ZM27.984 8.016V12.432H31.952V8.016H27.984ZM21.52 3.728H58.448V16.784H21.52V3.728ZM35.472 35.472H42.768V52.688H35.472V35.472Z" stroke="black" stroke-width="2" mask="url(#path-1-outside-1_692_725)"/>
<path d="M74.192 9.808H131.28V16.976H74.192V9.808ZM91.472 32.848H119.312V39.248H91.472V32.848ZM85.776 22.032H118.16V28.752H93.392V62.096H85.776V22.032ZM116.624 22.032H124.112V53.84C124.112 57.616 123.408 59.728 120.784 60.944C118.224 62.096 114.576 62.16 109.392 62.16C109.072 60.048 108.048 56.784 107.024 54.8C110.352 54.992 114.128 54.928 115.216 54.928C116.24 54.928 116.624 54.608 116.624 53.712V22.032ZM94.032 2L101.968 3.792C97.488 18.256 89.808 32.976 77.328 41.68C76.24 39.952 73.808 37.2 72.272 35.728C83.664 28.24 90.832 14.48 94.032 2ZM91.472 43.408H119.312V49.808H91.472V43.408Z" stroke="black" stroke-width="2" mask="url(#path-1-outside-1_692_725)"/>
<path d="M144.272 41.232H201.872V48.272H144.272V41.232ZM146.256 8.464H200.272V15.504H146.256V8.464ZM160.08 19.472H186V25.872H160.08V19.472ZM160.08 30.224H186V36.624H160.08V30.224ZM155.216 2.192H162.832V45.008H155.216V2.192ZM183.056 2.192H190.864V45.008H183.056V2.192ZM176.336 53.456L181.84 48.72C189.136 51.216 197.392 54.672 202.256 57.104L194.832 61.968C190.736 59.472 183.376 56.016 176.336 53.456ZM163.408 48.08L169.808 53.136C163.984 56.464 155.28 60.048 148.496 62.096C147.344 60.496 145.104 57.936 143.504 56.336C150.224 54.544 158.928 50.96 163.408 48.08Z" stroke="black" stroke-width="2" mask="url(#path-1-outside-1_692_725)"/>
<path d="M250.384 2.32H257.552V46.928H250.384V2.32ZM228.752 27.408L266.768 12.624L269.648 19.28L231.696 34.192L228.752 27.408ZM236.56 9.232H244.176V49.872C244.176 53.712 244.816 54.288 249.04 54.288C250.96 54.288 259.728 54.288 261.968 54.288C265.68 54.288 266.384 52.752 266.96 45.456C268.688 46.672 271.76 47.952 273.936 48.464C272.912 58.064 270.608 61.2 262.544 61.2C260.368 61.2 250.384 61.2 248.4 61.2C239.12 61.2 236.56 58.768 236.56 49.872V9.232ZM264.144 13.904H263.696L265.04 12.944L266.384 11.92L271.632 13.968L271.312 15.12C271.248 26.32 271.184 34.064 270.8 36.816C270.48 40.08 269.328 41.744 267.152 42.704C265.232 43.536 262.224 43.664 259.92 43.6C259.792 41.424 259.088 38.224 258.256 36.56C259.6 36.624 261.456 36.624 262.16 36.624C263.056 36.624 263.504 36.432 263.824 35.152C264.08 33.744 264.144 27.344 264.144 13.904ZM226.96 2.32L234.064 4.56C229.968 15.376 223.312 26.896 216.4 34.192C215.696 32.4 213.648 28.24 212.368 26.384C218.192 20.56 223.696 11.472 226.96 2.32ZM220.496 19.984L228.048 12.496V12.56V62.096H220.496V19.984Z" stroke="black" stroke-width="2" mask="url(#path-1-outside-1_692_725)"/>
<path d="M304.528 32.912H326.16V53.072H304.528V46.8H318.992V39.184H304.528V32.912ZM301.264 32.912H308.368V56.72H301.264V32.912ZM290.768 13.776H306.832V19.024H290.768V13.776ZM320.464 13.776H336.656V19.024H320.464V13.776ZM333.456 4.496H341.2V52.944C341.2 57.296 340.304 59.472 337.68 60.752C334.992 62.032 330.96 62.16 325.072 62.16C324.816 59.984 323.536 56.336 322.448 54.352C326.16 54.544 330.576 54.48 331.792 54.48C333.008 54.48 333.456 54.032 333.456 52.88V4.496ZM291.408 4.496H311.632V28.496H291.408V22.608H304.464V10.384H291.408V4.496ZM337.616 4.496V10.32H323.28V22.736H337.616V28.56H315.984V4.496H337.616ZM286.992 4.496H294.608V62.16H286.992V4.496Z" stroke="black" stroke-width="2" mask="url(#path-1-outside-1_692_725)"/>
<path d="M364.816 17.552V20.624H373.904V17.552H364.816ZM364.816 9.68V12.688H373.904V9.68H364.816ZM358.032 4.56H381.008V25.808H358.032V4.56ZM355.024 29.456H383.888V35.088H355.024V29.456ZM383.632 4.752H413.136V10.128H383.632V4.752ZM366.992 31.248H373.392V56.976L366.992 53.264V31.248ZM370.32 40.272H382.736V45.776H370.32V40.272ZM395.984 6.032L402.96 7.568C401.424 11.152 399.76 14.992 398.416 17.488L392.976 16.08C394.128 13.2 395.344 9.04 395.984 6.032ZM392.464 26.64V29.648H404.112V26.64H392.464ZM392.464 34.512V37.584H404.112V34.512H392.464ZM392.464 18.704V21.712H404.112V18.704H392.464ZM385.616 13.52H411.216V42.832H385.616V13.52ZM390.8 43.28L397.136 45.2C394.384 48.848 389.84 52.496 385.872 54.672C384.784 53.456 382.352 51.216 380.944 50.192C384.784 48.528 388.624 45.904 390.8 43.28ZM357.968 37.584H364.112C363.792 47.376 362.832 56.784 357.968 62.544C357.072 60.944 355.024 58.512 353.488 57.36C357.136 52.88 357.776 45.328 357.968 37.584ZM363.088 42.96C366.672 53.712 374.672 54.8 387.728 54.864C392.016 54.864 409.68 54.864 414.928 54.608C413.904 56.08 412.816 59.024 412.432 60.944H387.728C371.856 60.944 363.088 58.768 358.544 44.304L363.088 42.96ZM399.888 45.584L405.136 42.832C408.592 45.072 412.56 48.528 414.544 50.96L409.04 54.224C407.056 51.664 403.088 47.952 399.888 45.584Z" stroke="black" stroke-width="2" mask="url(#path-1-outside-1_692_725)"/>
<path d="M430.544 7.696H445.264V44.496H430.544V37.392H438.352V14.8H430.544V7.696ZM426.704 7.696H433.488V49.744H426.704V7.696ZM453.072 14.864H480.336V20.816H453.072V14.864ZM453.072 24.592H480.336V30.544H453.072V24.592ZM448.784 34.384H478.416V40.784H448.784V34.384ZM448.784 4.624H482.128V11.216H456.016V37.84H448.784V4.624ZM462.864 8.208H469.904V37.328H462.864V8.208ZM476.944 34.384H483.92C483.92 34.384 483.856 36.304 483.792 37.136C483.152 51.6 482.384 57.488 480.784 59.6C479.568 61.136 478.288 61.584 476.56 61.904C475.088 62.096 472.592 62.16 469.904 62.096C469.776 60.112 469.072 57.36 468.112 55.568C470.16 55.76 471.952 55.824 472.912 55.824C473.744 55.824 474.32 55.696 474.832 54.992C475.792 53.84 476.432 48.912 476.944 35.536V34.384ZM446.736 42.96L452.368 44.56C451.6 50.064 450.32 56.336 447.632 60.176L442.128 57.424C444.56 53.84 446.032 48.208 446.736 42.96ZM453.776 44.24L458.832 43.472C459.856 47.632 460.368 53.008 460.24 56.528L454.928 57.424C455.184 53.904 454.672 48.464 453.776 44.24ZM460.88 43.792L465.488 42.448C467.024 45.968 468.304 50.64 468.688 53.648L463.76 55.184C463.504 52.048 462.288 47.376 460.88 43.792ZM467.856 42.896L472.016 41.424C473.616 44.176 475.088 47.824 475.728 50.256L471.312 51.856C470.8 49.36 469.392 45.648 467.856 42.896Z" stroke="black" stroke-width="2" mask="url(#path-1-outside-1_692_725)"/>
<path d="M501.136 44.624V43.472C501.136 41.68 501.477 40.2293 502.16 39.12C502.843 37.968 503.888 36.7733 505.296 35.536C506.448 34.512 507.472 33.68 508.368 33.04C509.264 32.3573 509.968 31.696 510.48 31.056C511.035 30.3733 511.312 29.5413 511.312 28.56C511.312 27.1947 510.757 26.2347 509.648 25.68C508.581 25.0827 506.832 24.784 504.4 24.784C502.523 24.784 500.731 25.0187 499.024 25.488C497.36 25.9147 495.931 26.4907 494.736 27.216V17.232C496.4 16.3787 498.32 15.7173 500.496 15.248C502.672 14.7787 505.125 14.544 507.856 14.544C512.933 14.544 516.816 15.632 519.504 17.808C522.235 19.984 523.6 22.9707 523.6 26.768C523.6 29.1147 523.152 31.0347 522.256 32.528C521.36 34.0213 519.952 35.5573 518.032 37.136C516.581 38.3307 515.301 39.3973 514.192 40.336C513.083 41.2747 512.528 42.448 512.528 43.856V44.624H501.136ZM500.56 56.4V47.888H513.104V56.4H500.56Z" stroke="black" stroke-width="2" mask="url(#path-1-outside-1_692_725)"/>
</svg>
