<svg width="50" height="50" viewBox="0 0 50 50" fill="none" xmlns="http://www.w3.org/2000/svg">
<ellipse cx="25" cy="30.5085" rx="25" ry="19.4915" fill="#AAE3E2"/>
<path d="M18.2432 0L22.3392 15.8898H14.1471L18.2432 0Z" fill="#AAE3E2"/>
<path d="M31.081 0L35.1771 15.8898H26.985L31.081 0Z" fill="#AAE3E2"/>
<path d="M16.2962 28.9317V23.4117H17.4162L17.4802 23.7397C17.6348 23.6117 17.8082 23.513 18.0002 23.4437C18.1922 23.369 18.4162 23.3317 18.6722 23.3317C19.2108 23.3317 19.6375 23.4784 19.9522 23.7717C20.2668 24.0597 20.4242 24.545 20.4242 25.2277C20.4242 25.905 20.2615 26.417 19.9362 26.7637C19.6162 27.1104 19.1735 27.2837 18.6082 27.2837C18.2082 27.2837 17.8668 27.201 17.5842 27.0357V28.9317H16.2962ZM18.2802 26.3397C18.8348 26.3397 19.1122 25.961 19.1122 25.2037C19.1122 24.841 19.0482 24.5957 18.9202 24.4677C18.7922 24.3397 18.5868 24.2757 18.3042 24.2757C18.0322 24.2757 17.7922 24.3717 17.5842 24.5637V26.0997C17.6855 26.1744 17.7868 26.233 17.8882 26.2757C17.9948 26.3184 18.1255 26.3397 18.2802 26.3397ZM22.2614 27.2837C22.0214 27.2837 21.7974 27.241 21.5894 27.1557C21.3868 27.0704 21.2241 26.9397 21.1014 26.7637C20.9788 26.5824 20.9174 26.3584 20.9174 26.0917C20.9174 25.7024 21.0481 25.3984 21.3094 25.1797C21.5761 24.9557 21.9734 24.8437 22.5014 24.8437H23.5574V24.7557C23.5574 24.5637 23.4934 24.4277 23.3654 24.3477C23.2374 24.2624 22.9974 24.2197 22.6454 24.2197C22.2134 24.2197 21.7894 24.2864 21.3734 24.4197V23.5877C21.5601 23.513 21.7868 23.4517 22.0534 23.4037C22.3254 23.3557 22.6108 23.3317 22.9094 23.3317C23.4961 23.3317 23.9548 23.4517 24.2854 23.6917C24.6214 23.9317 24.7894 24.313 24.7894 24.8357V27.2037H23.6614L23.5974 26.8837C23.4588 27.0117 23.2801 27.1104 23.0614 27.1797C22.8481 27.249 22.5814 27.2837 22.2614 27.2837ZM22.6694 26.4917C22.8721 26.4917 23.0481 26.457 23.1974 26.3877C23.3468 26.3184 23.4668 26.2304 23.5574 26.1237V25.5877H22.6454C22.2668 25.5877 22.0774 25.7397 22.0774 26.0437C22.0774 26.1824 22.1254 26.2917 22.2214 26.3717C22.3174 26.4517 22.4668 26.4917 22.6694 26.4917ZM27.1938 28.6117C27.0071 28.6117 26.8098 28.6037 26.6018 28.5877C26.3938 28.5717 26.1965 28.5477 26.0098 28.5157C25.8231 28.4837 25.6631 28.4464 25.5298 28.4037V27.5237C25.7431 27.593 25.9991 27.6464 26.2978 27.6837C26.5965 27.721 26.8711 27.7397 27.1218 27.7397C27.4471 27.7397 27.6898 27.721 27.8498 27.6837C28.0151 27.6517 28.0978 27.593 28.0978 27.5077C28.0978 27.433 28.0658 27.3824 28.0018 27.3557C27.9378 27.329 27.8125 27.3157 27.6258 27.3157H26.5778C26.2365 27.3157 25.9698 27.2544 25.7778 27.1317C25.5911 27.009 25.4978 26.8304 25.4978 26.5957C25.4978 26.4357 25.5458 26.2837 25.6418 26.1397C25.7431 25.9957 25.8898 25.889 26.0818 25.8197C25.8631 25.7077 25.6978 25.5664 25.5858 25.3957C25.4738 25.225 25.4178 25.009 25.4178 24.7477C25.4178 24.257 25.5751 23.8997 25.8898 23.6757C26.2098 23.4464 26.6765 23.3317 27.2898 23.3317C27.4178 23.3317 27.5591 23.3424 27.7138 23.3637C27.8738 23.3797 27.9911 23.3957 28.0658 23.4117H29.5218L29.4898 24.2117H28.9378C29.0711 24.345 29.1378 24.5424 29.1378 24.8037C29.1378 25.1717 29.0178 25.4677 28.7778 25.6917C28.5431 25.9157 28.1858 26.0277 27.7058 26.0277C27.6258 26.0277 27.5458 26.025 27.4658 26.0197C27.3911 26.009 27.3165 26.001 27.2418 25.9957C27.1031 26.0117 26.9831 26.041 26.8818 26.0837C26.7858 26.1264 26.7378 26.1877 26.7378 26.2677C26.7378 26.3317 26.7618 26.3744 26.8098 26.3957C26.8631 26.417 26.9405 26.4277 27.0418 26.4277H28.0098C28.3991 26.4277 28.7005 26.5184 28.9138 26.6997C29.1325 26.8757 29.2418 27.1344 29.2418 27.4757C29.2418 28.233 28.5591 28.6117 27.1938 28.6117ZM27.2978 25.3157C27.5805 25.3157 27.7751 25.2677 27.8818 25.1717C27.9885 25.0757 28.0418 24.9157 28.0418 24.6917C28.0418 24.4677 27.9858 24.305 27.8738 24.2037C27.7671 24.1024 27.5751 24.0517 27.2978 24.0517C27.0365 24.0517 26.8471 24.1024 26.7298 24.2037C26.6178 24.2997 26.5618 24.4624 26.5618 24.6917C26.5618 24.905 26.6151 25.0624 26.7218 25.1637C26.8285 25.265 27.0205 25.3157 27.2978 25.3157ZM32.1016 27.2837C31.4403 27.2837 30.9096 27.121 30.5096 26.7957C30.1096 26.465 29.9096 25.969 29.9096 25.3077C29.9096 24.705 30.0749 24.225 30.4056 23.8677C30.7363 23.5104 31.2323 23.3317 31.8936 23.3317C32.4963 23.3317 32.9629 23.4864 33.2936 23.7957C33.6243 24.105 33.7896 24.521 33.7896 25.0437V25.7237H31.1016C31.1603 25.9744 31.2963 26.1504 31.5096 26.2517C31.7283 26.3477 32.0243 26.3957 32.3976 26.3957C32.6056 26.3957 32.8163 26.377 33.0296 26.3397C33.2483 26.3024 33.4296 26.2544 33.5736 26.1957V27.0357C33.3923 27.121 33.1763 27.1824 32.9256 27.2197C32.6749 27.2624 32.4003 27.2837 32.1016 27.2837ZM31.1016 24.9797H32.6696V24.8117C32.6696 24.625 32.6136 24.4784 32.5016 24.3717C32.3896 24.2597 32.2003 24.2037 31.9336 24.2037C31.6243 24.2037 31.4083 24.2677 31.2856 24.3957C31.1629 24.5184 31.1016 24.713 31.1016 24.9797ZM20.657 39.2837C20.1876 39.2837 19.841 39.1637 19.617 38.9237C19.3983 38.6837 19.289 38.353 19.289 37.9317V36.3877H18.777V35.4117H19.289V34.6197L20.577 34.2757V35.4117H21.497L21.441 36.3877H20.577V37.8437C20.577 38.025 20.6223 38.153 20.713 38.2277C20.8036 38.297 20.9396 38.3317 21.121 38.3317C21.2756 38.3317 21.433 38.305 21.593 38.2517V39.1237C21.3423 39.2304 21.0303 39.2837 20.657 39.2837ZM24.0651 39.2837C23.3345 39.2837 22.7958 39.1157 22.4491 38.7797C22.1025 38.4384 21.9291 37.9477 21.9291 37.3077C21.9291 36.673 22.1025 36.185 22.4491 35.8437C22.8011 35.5024 23.3398 35.3317 24.0651 35.3317C24.7958 35.3317 25.3345 35.5024 25.6811 35.8437C26.0331 36.185 26.2091 36.673 26.2091 37.3077C26.2091 37.9477 26.0358 38.4384 25.6891 38.7797C25.3425 39.1157 24.8011 39.2837 24.0651 39.2837ZM24.0651 38.2757C24.3638 38.2757 24.5771 38.201 24.7051 38.0517C24.8331 37.9024 24.8971 37.6544 24.8971 37.3077C24.8971 36.961 24.8331 36.713 24.7051 36.5637C24.5771 36.4144 24.3638 36.3397 24.0651 36.3397C23.7718 36.3397 23.5611 36.4144 23.4331 36.5637C23.3051 36.713 23.2411 36.961 23.2411 37.3077C23.2411 37.6544 23.3051 37.9024 23.4331 38.0517C23.5611 38.201 23.7718 38.2757 24.0651 38.2757ZM26.8626 40.9317V35.4117H27.9826L28.0466 35.7397C28.2012 35.6117 28.3746 35.513 28.5666 35.4437C28.7586 35.369 28.9826 35.3317 29.2386 35.3317C29.7772 35.3317 30.2039 35.4784 30.5186 35.7717C30.8332 36.0597 30.9906 36.545 30.9906 37.2277C30.9906 37.905 30.8279 38.417 30.5026 38.7637C30.1826 39.1104 29.7399 39.2837 29.1746 39.2837C28.7746 39.2837 28.4332 39.201 28.1506 39.0357V40.9317H26.8626ZM28.8466 38.3397C29.4012 38.3397 29.6786 37.961 29.6786 37.2037C29.6786 36.841 29.6146 36.5957 29.4866 36.4677C29.3586 36.3397 29.1532 36.2757 28.8706 36.2757C28.5986 36.2757 28.3586 36.3717 28.1506 36.5637V38.0997C28.2519 38.1744 28.3532 38.233 28.4546 38.2757C28.5612 38.3184 28.6919 38.3397 28.8466 38.3397Z" fill="black"/>
</svg>
