<svg width="291" height="64" viewBox="0 0 291 64" fill="none" xmlns="http://www.w3.org/2000/svg">
<path d="M4.83264 13.76H20.8966V19.2H4.83264V13.76ZM34.4006 13.76H50.5286V19.2H34.4006V13.76ZM47.5206 4.22399H55.2646V52.416C55.2646 56.896 54.3686 59.072 51.5526 60.288C48.7366 61.568 44.5126 61.76 38.3046 61.76C37.9206 59.584 36.6406 55.936 35.5526 53.824C39.5846 54.144 44.3846 54.08 45.7286 54.016C47.0726 54.016 47.5206 53.632 47.5206 52.352V4.22399ZM5.47264 4.22399H25.6326V29.056H5.47264V22.912H18.4006V10.432H5.47264V4.22399ZM51.6806 4.22399V10.432H37.3446V23.04H51.6806V29.184H30.0486V4.22399H51.6806ZM1.05664 4.22399H8.67264V61.76H1.05664V4.22399Z" fill="white"/>
<path d="M100.449 1.40799H108.705V14.4H100.449V1.40799ZM100.577 16.768H108.577V61.888H100.577V16.768ZM75.4886 9.79199H134.241V17.28H75.4886V9.79199ZM81.5686 24H123.745V31.488H89.3126V54.08H81.5686V24ZM120.865 24H128.865V45.696C128.865 49.408 128.097 51.584 125.409 52.8C122.721 53.952 119.009 54.08 114.017 54.08C113.697 51.84 112.545 48.576 111.457 46.528C114.657 46.656 118.497 46.656 119.457 46.656C120.545 46.656 120.865 46.4 120.865 45.568V24Z" fill="white"/>
<path d="M154.657 7.80799L157.985 2.62399C162.273 3.64799 168.353 5.69599 171.553 7.23199L168.097 13.056C165.153 11.456 159.073 9.15199 154.657 7.80799ZM151.841 18.688C156.577 17.792 163.489 16.128 170.273 14.592L170.977 20.608C165.409 22.272 159.521 24 154.721 25.344L151.841 18.688ZM180.193 5.95199H204.769V11.328H175.905L180.193 5.95199ZM202.977 5.95199H204.065L205.217 5.69599L210.273 6.97599C208.609 10.496 206.305 14.336 204.193 16.704L198.241 14.912C199.969 12.864 201.889 9.53599 202.977 6.78399V5.95199ZM186.721 8.19199H193.633C192.353 17.344 188.769 22.848 174.433 25.728C173.793 24.192 172.193 21.632 170.913 20.288C183.265 18.368 185.761 14.656 186.721 8.19199ZM193.185 9.85599C194.273 14.592 197.089 18.752 211.617 20.416C210.209 21.952 208.545 24.832 207.841 26.752C191.841 24.192 188.705 17.216 187.041 10.432L193.185 9.85599ZM180.001 1.66399L186.721 2.75199C184.225 7.87199 181.089 12.544 176.225 16.512C174.881 15.168 172.257 13.568 170.465 12.864C175.137 9.66399 178.273 5.37599 180.001 1.66399ZM167.969 36.48V39.232H195.809V36.48H167.969ZM167.969 43.584V46.4H195.809V43.584H167.969ZM167.969 29.44V32.128H195.809V29.44H167.969ZM160.545 24.832H203.553V50.944H160.545V24.832ZM185.185 54.272L191.585 50.624C198.305 53.056 206.241 56.256 210.785 58.496L201.825 61.952C198.241 59.776 191.649 56.704 185.185 54.272ZM170.977 50.432L178.017 53.568C172.769 56.96 164.449 60.16 157.921 62.016C156.577 60.48 153.953 57.664 152.225 56.384C159.009 55.104 166.625 52.864 170.977 50.432Z" fill="white"/>
<path d="M253.281 4.15999H278.113V11.456H253.281V4.15999ZM252.577 25.664H272.865V32.832H252.577V25.664ZM259.553 9.02399H266.849V25.216C266.849 37.376 265.697 51.456 255.073 61.824C253.857 60.16 251.233 57.536 249.441 56.384C258.593 47.36 259.553 35.392 259.553 25.152V9.02399ZM274.145 4.15999H282.017C281.377 25.984 281.633 52.48 284.705 53.376C285.089 53.504 285.537 49.024 285.665 44.608C286.881 46.592 288.801 49.664 289.889 50.816C288.865 60.864 285.473 63.04 281.377 61.248C273.697 58.368 274.209 31.36 274.145 4.15999ZM231.329 21.312H250.657V27.072H231.329V21.312ZM231.521 3.64799H250.465V9.47199H231.521V3.64799ZM231.329 30.016H250.657V35.84H231.329V30.016ZM228.257 12.288H252.769V18.368H228.257V12.288ZM234.657 38.912H250.721V58.368H234.657V52.288H244.193V44.992H234.657V38.912ZM231.201 38.912H237.665V60.928H231.201V38.912Z" fill="white"/>
<path fill-rule="evenodd" clip-rule="evenodd" d="M8.67264 13.76H18.4006V10.432H8.67264V13.76ZM9.67264 11.432V12.76H17.4006V11.432H9.67264ZM8.67264 19.2V22.912H18.4006V19.2H8.67264ZM9.67264 20.2V21.912H17.4006V20.2H9.67264ZM8.67264 61.76H1.05664V4.22399H25.6326V29.056H8.67264V61.76ZM9.67264 30.056V62.76H0.0566406V3.22399H26.6326V30.056H9.67264ZM37.3446 13.76H47.5206V10.432H37.3446V13.76ZM38.3446 11.432V12.76H46.5206V11.432H38.3446ZM37.3446 19.2V23.04H47.5206V19.2H37.3446ZM38.3446 20.2V22.04H46.5206V20.2H38.3446ZM30.0486 29.184V4.22399H55.2646V52.416C55.2646 56.896 54.3686 59.072 51.5526 60.288C48.7366 61.568 44.5126 61.76 38.3046 61.76C37.978 59.9092 37.0032 56.9934 36.0497 54.8637C35.8821 54.4895 35.7152 54.1396 35.5526 53.824C35.9322 53.8541 36.3185 53.8808 36.7081 53.9045C40.4576 54.1319 44.5111 54.074 45.7286 54.016C47.0726 54.016 47.5206 53.632 47.5206 52.352V29.184H30.0486ZM46.5206 30.184H29.0486V3.22399H56.2646V52.416C56.2646 54.6962 56.0415 56.5366 55.3736 57.9928C54.6805 59.5042 53.5519 60.512 51.9577 61.2023C50.4056 61.906 48.5226 62.2874 46.2955 62.4995C44.0601 62.7124 41.4107 62.76 38.3046 62.76H37.4657L37.3199 61.9338C36.9555 59.8693 35.7119 56.3167 34.6637 54.282L33.841 52.685L35.6318 52.8271C39.6125 53.1431 44.3691 53.0796 45.6811 53.0171L45.7048 53.016H45.7286C46.0255 53.016 46.2173 52.9939 46.34 52.9641C46.4009 52.9494 46.4338 52.9354 46.4489 52.9277C46.4676 52.8903 46.5206 52.7471 46.5206 52.352V30.184ZM99.4486 0.40799H109.705V8.79199H135.241V18.28H109.577V23H129.865V45.696C129.865 47.5988 129.672 49.2425 129.055 50.5983C128.416 52.0016 127.361 53.0141 125.821 53.7111L125.812 53.7152L125.803 53.7191C122.89 54.9674 118.956 55.08 114.017 55.08H113.149L113.027 54.2214C112.726 52.1158 111.617 48.9622 110.574 46.9971L109.756 45.4592L111.497 45.5288C114.674 45.6559 118.495 45.656 119.457 45.656C119.641 45.656 119.772 45.6473 119.864 45.635C119.864 45.6152 119.865 45.5929 119.865 45.568V32.488H109.577V62.888H99.5766V32.488H90.3126V55.08H80.5686V23H99.5766V18.28H74.4886V8.79199H99.4486V0.40799ZM100.449 9.79199H75.4886V17.28H100.577V24H81.5686V54.08H89.3126V31.488H100.577V61.888H108.577V31.488H120.865V45.568C120.865 46.4 120.545 46.656 119.457 46.656C118.609 46.656 115.515 46.656 112.6 46.5678C112.214 46.5562 111.831 46.543 111.457 46.528C111.623 46.8419 111.792 47.1845 111.958 47.5475C112.878 49.5526 113.746 52.1834 114.017 54.08C119.009 54.08 122.721 53.952 125.409 52.8C128.097 51.584 128.865 49.408 128.865 45.696V24H108.577V17.28H134.241V9.79199H108.705V1.40799H100.449V9.79199ZM153.101 8.37988L157.527 1.48648L158.217 1.65134C162.554 2.68709 168.705 4.75594 171.985 6.33047L172.97 6.80308L169.838 12.0812L169.9 12.039C174.405 8.9533 177.431 4.81373 179.094 1.24196L179.413 0.555897L188.209 1.98002L187.62 3.19019C187.331 3.78282 187.033 4.37024 186.725 4.95199H203.955L205.232 4.66825L211.696 6.3048L211.177 7.40337C209.492 10.9674 207.14 14.902 204.939 17.3696L204.515 17.8453L199.235 16.2558C201.78 17.6062 205.671 18.7285 211.73 19.4225L213.679 19.6457L212.354 21.0917C211.046 22.5184 209.445 25.2811 208.78 27.0962L208.496 27.8696L207.683 27.7394C206.583 27.5635 205.541 27.3667 204.553 27.1501V51.944H197.948C202.976 53.8951 207.958 55.9878 211.227 57.5991L213.273 58.6079L201.726 63.0619L201.306 62.8068C197.794 60.675 191.265 57.6282 184.833 55.2079L182.839 54.4579L187.249 51.944H176.828L180.11 53.4057L178.559 54.4078C173.192 57.877 164.765 61.1098 158.194 62.9779L157.585 63.151L157.168 62.6745C155.819 61.1327 153.26 58.3951 151.629 57.1875L149.791 55.8256L152.039 55.4013C156.427 54.5735 161.128 53.3472 165.037 51.944H159.545V25.012C157.955 25.4698 156.424 25.9054 154.99 26.307L154.15 26.5424L150.426 17.9378L151.655 17.7054C155.093 17.055 159.681 15.9981 164.556 14.8753C165.668 14.6193 166.794 14.3598 167.925 14.101L167.619 13.9346C164.762 12.3821 158.757 10.1012 154.365 8.76467L153.101 8.37988ZM168.751 13.9122C169.099 13.833 169.447 13.7539 169.794 13.675L169.063 13.3876L168.751 13.9122ZM171.247 14.3147L171.81 19.1279C177.289 18.1851 180.487 16.8698 182.435 15.1872C183.391 14.3618 184.076 13.4217 184.581 12.328H181.857C180.409 14.0733 178.763 15.7321 176.857 17.2869L176.157 17.8581L175.518 17.2191C174.546 16.2479 172.78 15.0866 171.247 14.3147ZM180.545 12.328C180.832 11.9981 181.111 11.6647 181.383 11.328H186.034C185.926 11.6712 185.806 12.0044 185.672 12.328C184.099 16.1421 180.653 18.6063 172.082 20.0958C172.03 20.1047 171.979 20.1137 171.927 20.1226C171.605 20.1777 171.275 20.2315 170.939 20.2839L170.273 14.592C169.946 14.666 169.619 14.7402 169.292 14.8147C167.788 15.1572 166.282 15.5039 164.801 15.845C160.378 16.8639 156.17 17.8331 152.846 18.4929C152.501 18.5614 152.166 18.6265 151.841 18.688L154.721 25.344C156.235 24.9199 157.858 24.4577 159.545 23.9713C159.705 23.9251 159.866 23.8786 160.027 23.832C163.265 22.8961 166.722 21.8773 170.089 20.873C170.191 20.8427 170.292 20.8123 170.394 20.782C170.584 20.7253 170.774 20.6687 170.963 20.6121C170.968 20.6107 170.972 20.6093 170.977 20.608L170.943 20.32C171.022 20.4036 171.102 20.4917 171.183 20.5839C171.344 20.7677 171.509 20.9674 171.675 21.1788C171.73 21.2491 171.785 21.3208 171.841 21.3935C172.408 22.1395 172.979 23.0065 173.461 23.832C173.662 24.1765 173.848 24.5138 174.011 24.832H160.545V50.944H170.007C169.331 51.283 168.595 51.617 167.811 51.944C163.785 53.624 158.498 55.1175 153.513 56.1313C153.081 56.2192 152.651 56.3035 152.225 56.384C152.536 56.6143 152.876 56.8944 153.232 57.2078C154.856 58.636 156.818 60.7564 157.921 62.016C164.038 60.2768 171.729 57.3574 176.991 54.2057C177.344 53.9941 177.686 53.7814 178.017 53.568L172.126 50.944H191.023L185.185 54.272C185.587 54.4236 185.991 54.5776 186.394 54.7338C192.459 57.0834 198.464 59.9116 201.825 61.952L210.785 58.496C210.396 58.3045 209.983 58.1059 209.547 57.9014C205.772 56.1274 200.346 53.9065 195.152 51.944C194.245 51.6015 193.346 51.267 192.464 50.944H203.553V25.8904C203.879 25.9712 204.212 26.0497 204.553 26.1259C205.584 26.3567 206.678 26.566 207.841 26.752C208.421 25.168 209.656 22.9305 210.861 21.3334C211.116 20.9947 211.37 20.6848 211.617 20.416C211.21 20.3694 210.812 20.3208 210.423 20.2703C199.412 18.8404 195.596 15.8734 193.99 12.328C193.957 12.2561 193.926 12.1839 193.895 12.1115C193.785 11.8531 193.686 11.5918 193.597 11.328H200.722C200.521 11.6681 200.316 12.0025 200.109 12.328C199.714 12.9478 199.31 13.5354 198.91 14.0691C198.685 14.3683 198.461 14.6506 198.241 14.912L204.193 16.704C206.122 14.5407 208.212 11.1488 209.827 7.8948C209.98 7.58691 210.129 7.28025 210.273 6.97599L205.217 5.69599L204.065 5.95199H185.033C185.222 5.6209 185.408 5.28755 185.59 4.95199C185.817 4.53448 186.038 4.11357 186.254 3.68941C186.412 3.37866 186.567 3.06617 186.721 2.75199L180.001 1.66399C178.393 5.11778 175.566 9.07023 171.417 12.181C171.107 12.4135 170.79 12.6414 170.465 12.864C170.796 12.994 171.155 13.1547 171.53 13.3386C173.182 14.1504 175.129 15.4163 176.225 16.512C177.843 15.1921 179.269 13.7943 180.545 12.328ZM178.246 24.832H199.996C199.113 24.5188 198.293 24.1848 197.532 23.832C194.436 22.3988 192.295 20.6561 190.763 18.7438C190.544 18.4701 190.337 18.1928 190.142 17.9125C189.935 18.1864 189.716 18.454 189.486 18.7156C187.659 20.7886 185.081 22.4798 181.398 23.832C180.426 24.1887 179.378 24.5217 178.246 24.832ZM184.018 23.832H195.339C193.767 22.9428 192.46 21.9565 191.367 20.8926C190.909 20.4462 190.49 19.9885 190.107 19.5215C189.956 19.6883 189.8 19.8528 189.64 20.0151C188.178 21.4929 186.337 22.7564 184.018 23.832ZM198.915 12.328H195.101C195.552 13.1998 196.168 14.0189 197.044 14.7798L197.476 14.2671C197.946 13.7104 198.434 13.0498 198.915 12.328ZM172.295 23.832C171.833 23.0833 171.313 22.3274 170.813 21.7006C168.426 22.413 165.988 23.1352 163.607 23.832H172.295ZM154.657 7.80799C154.979 7.90595 155.309 8.00901 155.647 8.11653C159.942 9.48411 165.367 11.5726 168.097 13.056L171.553 7.23199C171.269 7.09602 170.964 6.95605 170.638 6.81312C167.29 5.34144 161.893 3.55735 157.985 2.62399L154.657 7.80799ZM167.969 39.232V36.48H195.809V39.232H167.969ZM194.809 38.232V37.48H168.969V38.232H194.809ZM167.969 46.4V43.584H195.809V46.4H167.969ZM194.809 45.4V44.584H168.969V45.4H194.809ZM167.969 32.128V29.44H195.809V32.128H167.969ZM194.809 31.128V30.44H168.969V31.128H194.809ZM252.281 3.15999H283.046L283.016 4.1893C282.697 15.0905 282.601 27.1453 282.968 36.5771C283.151 41.2981 283.45 45.3321 283.887 48.2276C284.016 49.0805 284.155 49.8191 284.302 50.4384C284.468 48.8293 284.604 46.6995 284.665 44.579L284.762 41.2222L286.517 44.0854C287.124 45.0752 287.9 46.3271 288.658 47.472C289.43 48.6376 290.139 49.6245 290.616 50.1294L290.93 50.4621L290.883 50.9174C290.367 55.9829 289.24 59.3285 287.512 61.1585C286.62 62.1033 285.569 62.641 284.41 62.7799C283.279 62.9154 282.124 62.6628 281 62.1746C278.618 61.2665 277.099 58.6132 276.06 55.2317C274.994 51.7642 274.33 47.1816 273.908 41.9036C273.706 39.3737 273.558 36.669 273.451 33.832H267.569C266.821 43.7942 264.219 54.2955 255.771 62.5397L254.946 63.3452L254.265 62.414C253.634 61.5498 252.592 60.4047 251.505 59.368H238.665V61.928H230.201V37.912H251.721V52.2468C255.886 46.6422 257.55 40.2015 258.185 33.832H251.657V36.84H230.329V29.016H251.577V28.072H230.329V20.312H251.657V24.664H258.553V12.456H253.769V19.368H227.257V11.288H252.281V3.15999ZM253.281 11.456H259.553V25.152C259.553 25.3222 259.552 25.4929 259.552 25.664H252.577V32.832H259.281C259.253 33.1648 259.223 33.4982 259.191 33.832C258.513 40.7321 256.646 47.8156 251.721 53.876C251.4 54.27 251.067 54.6597 250.721 55.0448V38.912H231.201V60.928H237.665V58.368H250.721V57.3324C251.048 57.6014 251.385 57.8942 251.721 58.2011C252.714 59.1085 253.703 60.1383 254.451 61.0336C254.684 61.3127 254.893 61.5788 255.073 61.824C255.315 61.587 255.553 61.3482 255.786 61.1074C263.407 53.2335 265.842 43.3578 266.565 33.832C266.591 33.4982 266.614 33.1648 266.635 32.832H272.865V25.664H266.848C266.848 25.5144 266.849 25.365 266.849 25.216V11.456H274.154C274.155 11.7897 274.155 12.123 274.156 12.456C274.189 36.6211 274.48 58.6619 281.377 61.248C285.473 63.04 288.865 60.864 289.889 50.816C289.054 49.9322 287.73 47.9184 286.609 46.1328C286.269 45.5908 285.948 45.0699 285.665 44.608C285.647 45.2076 285.624 45.8083 285.596 46.3986C285.477 48.8891 285.27 51.1924 285.047 52.43C285.047 52.4332 285.046 52.4364 285.045 52.4395C284.933 53.063 284.816 53.4131 284.705 53.376C284.46 53.3046 284.233 53.071 284.023 52.6902C284.011 52.6683 283.999 52.6459 283.987 52.623C281.636 48.1262 281.437 24.9355 281.988 5.15999C281.997 4.82564 282.007 4.49227 282.017 4.15999H253.281V11.456ZM237.665 44.992V52.288H244.193V44.992H237.665ZM243.193 45.992H238.665V51.288H243.193V45.992ZM273.155 12.456H267.849V24.664H273.228C273.175 20.7119 273.161 16.6124 273.155 12.456ZM228.257 12.288V18.368H252.769V12.288H228.257ZM230.521 2.64799H251.465V10.472H230.521V2.64799ZM231.329 21.312V27.072H250.657V21.312H231.329ZM231.521 3.64799V9.47199H250.465V3.64799H231.521ZM231.329 30.016V35.84H250.657V30.016H231.329Z" fill="black"/>
</svg>
