<svg width="393" height="381" viewBox="0 0 393 381" fill="none" xmlns="http://www.w3.org/2000/svg">
<path fill-rule="evenodd" clip-rule="evenodd" d="M144.426 61.2789L84.7689 192.88L0.39 160.662L0 161.526L84.3777 193.743L43.9572 282.909L44.8958 283.269L58.2604 253.787L144.894 287.259L144.896 287.26L291.78 343.527L320.166 283.275L320.171 283.263L378.601 149.621L145.932 60.8414L201.911 0.607261L201.138 0L144.945 60.4647L40.0457 20.4381L39.6559 21.3015L144.426 61.2789ZM58.6515 252.924L144.824 286.218L172.477 227.382L85.3167 194.102L58.6515 252.924ZM85.7079 193.239L172.881 226.524L210.32 146.866L122.25 112.629L85.7079 193.239ZM122.641 111.766L210.723 146.007L234.408 95.6135L145.365 61.6372L122.641 111.766ZM235.347 95.9719L173.82 226.882L319.419 282.476L377.283 150.131L235.347 95.9719ZM319.028 283.339L173.416 227.74L145.762 286.579L291.245 342.309L319.028 283.339Z" fill="black"/>
<path d="M224.97 149.29L225.712 149.799C224.693 150.784 223.426 151.619 222.323 152.055C222.226 151.868 221.977 151.497 221.809 151.319C222.916 150.958 224.077 150.179 224.97 149.29ZM224.401 150.31L229.793 152.496L229.483 153.143L223.722 150.807L224.401 150.31ZM223.275 153.519L222.935 154.227L226.463 155.658L226.803 154.949L223.275 153.519ZM223.851 152.318L223.516 153.016L227.044 154.446L227.379 153.749L223.851 152.318ZM223.347 151.477L228.416 153.532L226.983 156.519L221.915 154.464L223.347 151.477ZM223.292 154.789L223.936 155.283C222.829 156.06 221.324 156.529 220.021 156.687C219.963 156.504 219.79 156.14 219.677 155.959C220.945 155.873 222.323 155.475 223.292 154.789ZM222.408 155.938C222.67 157.504 224.161 159.15 226.333 160.35C226.08 160.431 225.72 160.653 225.52 160.793C223.316 159.494 221.923 157.728 221.644 155.862L222.408 155.938ZM222.623 155.572L226.073 156.971L225.802 157.535L221.839 155.929L222.623 155.572ZM225.85 156.88L226.017 156.948L226.177 156.976L226.573 157.431C224.609 158.94 221.702 158.828 218.963 158.171C218.985 157.959 218.955 157.604 218.894 157.37C221.427 158.066 224.178 158.225 225.796 156.993L225.85 156.88ZM221.683 150.471L222.319 151.035C220.958 151.955 219.19 152.721 217.702 153.099C217.703 152.903 217.629 152.444 217.552 152.217C218.925 151.94 220.502 151.292 221.683 150.471ZM222.426 148.283L223.046 148.853C221.984 149.453 220.472 149.992 219.228 150.223C219.19 150.024 219.106 149.671 219.03 149.469C220.162 149.278 221.585 148.813 222.426 148.283ZM219.762 151.973L220.744 151.623L220.831 151.719L217.926 157.775L217.133 157.454L219.762 151.973Z" fill="black"/>
<path d="M209.781 169.112L219.941 173.231L219.596 173.949L209.437 169.83L209.781 169.112ZM216.088 166.25L218.009 167.028L217.748 167.572L215.827 166.794L216.088 166.25ZM219.852 166.243L221.661 166.976L221.351 167.623L219.542 166.89L219.852 166.243ZM218.99 168.235L220.631 168.901L220.326 169.537L218.685 168.872L218.99 168.235ZM218.047 170.146L219.677 170.806L219.372 171.443L217.742 170.782L218.047 170.146ZM212.805 165.728L214.457 166.398L214.152 167.034L212.5 166.364L212.805 165.728ZM211.94 167.67L213.525 168.312L213.22 168.949L211.635 168.306L211.94 167.67ZM215.732 164.573L219.606 166.143L216.667 172.271L216.009 172.004L218.657 166.482L216.078 165.436L213.43 170.959L212.793 170.701L215.732 164.573ZM215.802 168.181L215.142 169.556L215.957 169.887L216.617 168.511L215.802 168.181ZM215.608 167.502L217.305 168.19L216.163 170.571L214.466 169.883L215.608 167.502ZM213.384 163.658L214.24 164.237C214.199 164.294 214.112 164.308 213.968 164.275L211.391 170.12L210.666 169.826L213.384 163.658ZM221.214 166.795L221.962 167.099C220.99 169.07 219.601 171.744 218.754 173.203L218.028 172.909C218.89 171.419 220.295 168.74 221.214 166.795ZM215.518 163.934L215.835 164.749C215.078 164.798 214.186 164.767 213.451 164.714C213.48 164.542 213.482 164.261 213.466 164.071C214.155 164.08 214.993 164.028 215.518 163.934ZM215.208 172.979L216.057 172.71C217.045 173.736 218.077 174.976 218.656 175.799L217.618 176.016C217.095 175.216 216.152 174.012 215.208 172.979ZM212.589 171.292L213.156 172.086C211.98 172.369 210.278 172.525 209.015 172.516C208.933 172.299 208.761 171.935 208.629 171.709C209.925 171.732 211.626 171.576 212.589 171.292Z" fill="black"/>
<path d="M206.836 188.736L210.521 190.229L210.196 190.907L206.512 189.413L206.836 188.736ZM210.894 181.639L213.841 182.834L213.521 183.501L210.574 182.306L210.894 181.639ZM207.783 185.956L212.171 187.735L210.413 191.399L209.609 191.074L211.047 188.076L208.233 186.936L206.781 189.964L206.01 189.651L207.783 185.956ZM213.54 182.712L213.685 182.771L213.856 182.803L214.293 183.226C212.223 185.402 209.372 186.257 206.852 186.229C206.835 186.013 206.74 185.656 206.641 185.444C208.952 185.548 211.721 184.696 213.476 182.845L213.54 182.712ZM211.591 180.659L212.311 181.159C211.139 182.351 209.687 183.32 208.352 183.796C208.282 183.609 208.077 183.231 207.93 183.037C209.214 182.638 210.561 181.749 211.591 180.659ZM210.658 182.046C210.602 183.777 211.251 186.149 213.156 187.877C212.908 187.948 212.531 188.151 212.326 188.301C210.464 186.455 209.882 184 209.91 182.245L210.658 182.046ZM203.744 182.921L204.448 183.206L202.661 186.932L201.957 186.647L203.744 182.921ZM206.147 179.776L205.28 181.582L207.379 182.433L208.246 180.627L206.147 179.776ZM205.723 178.795L209.352 180.266L207.836 183.427L204.207 181.956L205.723 178.795ZM205.944 182.256L206.703 182.564L204.453 187.254L203.694 186.947L205.944 182.256ZM201.416 186.33C202.62 186.573 204.467 186.892 206.242 187.195L205.99 187.914C204.293 187.643 202.513 187.351 201.213 187.142L201.416 186.33ZM205.335 184.192L207.222 184.957L206.892 185.644L205.006 184.879L205.335 184.192Z" fill="black"/>
<path d="M108.547 109.615L115.112 112.276L114.772 112.984L108.207 110.323L108.547 109.615ZM113.564 107.774L116.455 108.947L116.121 109.645L113.229 108.472L113.564 107.774ZM114.29 105.371L115.105 105.702L112.308 111.532L111.493 111.202L114.29 105.371ZM111.304 106.147L112.097 106.468L110.058 110.718L109.266 110.396L111.304 106.147ZM117.286 105.409L117.604 106.274C115.913 106.103 113.47 105.468 111.465 104.839C111.526 104.656 111.536 104.329 111.53 104.118C113.501 104.708 115.87 105.301 117.286 105.409ZM107.712 102.264L110.314 103.318L109.984 104.006L107.383 102.951L107.712 102.264ZM110.09 103.228L110.213 103.277L110.367 103.291L110.87 103.715C109.773 104.558 108.057 105.799 106.685 106.714L106.024 106.201C107.391 105.296 109.17 104.007 110.046 103.32L110.09 103.228ZM107.36 105.639L109.414 106.472L109.085 107.16L106.919 106.282L107.36 105.639ZM109.102 106.345L109.258 106.409L109.424 106.452L109.868 106.778C108.034 109.628 106.059 111.021 104.032 111.327C103.977 111.109 103.792 110.715 103.651 110.536C105.606 110.298 107.419 109.047 109.028 106.499L109.102 106.345ZM106.691 107.146C106.255 110.39 108.185 111.76 111.02 112.91C111.489 113.1 113.745 114.015 114.341 114.244C114.124 114.364 113.795 114.66 113.647 114.858L110.644 113.64C107.417 112.332 105.468 110.806 105.924 107.105L106.691 107.146Z" fill="black"/>
<path d="M101.022 117.991L109.82 121.557L109.456 122.317L100.658 118.75L101.022 117.991ZM98.3495 122.118L108.364 126.178L107.995 126.947L97.9802 122.887L98.3495 122.118ZM101.1 119.775L101.951 119.863C102.05 120.798 102.04 121.958 101.906 122.627L100.984 122.548C101.118 121.879 101.16 120.707 101.1 119.775ZM107.698 122.144L108.483 122.732C107.66 123.391 106.663 124.164 105.932 124.603L105.321 124.098C106.044 123.619 107.076 122.774 107.698 122.144ZM104.843 119.895L105.703 120.244L101.651 128.691L100.791 128.343L104.843 119.895Z" fill="black"/>
<path d="M94.711 142.993L98.3953 144.486L98.0704 145.164L94.3861 143.67L94.711 142.993ZM98.7684 135.896L101.716 137.091L101.396 137.758L98.4484 136.563L98.7684 135.896ZM95.6575 140.213L100.045 141.992L98.2875 145.657L97.4837 145.331L98.9212 142.333L96.1078 141.193L94.6554 144.221L93.8851 143.909L95.6575 140.213ZM101.414 136.969L101.559 137.028L101.731 137.06L102.168 137.483C100.097 139.659 97.2467 140.514 94.7267 140.486C94.7099 140.271 94.6146 139.913 94.516 139.702C96.8269 139.805 99.5957 138.953 101.35 137.102L101.414 136.969ZM99.4653 134.916L100.185 135.416C99.0134 136.609 97.562 137.577 96.2267 138.053C96.1568 137.866 95.9512 137.488 95.8043 137.294C97.0891 136.895 98.4354 136.006 99.4653 134.916ZM98.533 136.303C98.4765 138.034 99.1258 140.406 101.03 142.134C100.783 142.206 100.406 142.408 100.201 142.558C98.3388 140.712 97.7562 138.257 97.7841 136.503L98.533 136.303ZM91.6189 137.178L92.3223 137.464L90.5352 141.19L89.8318 140.904L91.6189 137.178ZM94.0212 134.033L93.1547 135.839L95.2536 136.69L96.1201 134.884L94.0212 134.033ZM93.5981 133.052L97.2265 134.523L95.7102 137.685L92.0817 136.214L93.5981 133.052ZM93.8184 136.513L94.5776 136.821L92.3277 141.512L91.5685 141.204L93.8184 136.513ZM89.2906 140.587C90.4944 140.83 92.3414 141.149 94.1165 141.452L93.8647 142.172C92.1678 141.9 90.3878 141.608 89.0876 141.4L89.2906 140.587ZM93.21 138.449L95.0968 139.214L94.7669 139.901L92.8801 139.136L93.21 138.449Z" fill="black"/>
<path d="M369.303 204.217L370.172 204.547L368.374 208.549C368.211 208.912 368.274 209.009 368.714 209.176C368.917 209.253 369.898 209.625 370.18 209.732C370.642 209.908 370.831 209.664 371.593 208.084C371.72 208.302 372.031 208.578 372.229 208.726C371.338 210.475 370.894 210.877 369.901 210.5C369.675 210.414 368.491 209.965 368.277 209.884C367.251 209.494 367.101 209.122 367.506 208.22L369.303 204.217ZM363.614 201.512L373.573 205.292L373.233 206.049L363.274 202.269L363.614 201.512ZM365.904 198.971L373.923 202.014L373.583 202.771L365.564 199.728L365.904 198.971ZM366.241 203.188L367.132 203.527C365.897 205.776 364.544 207.496 361.406 207.458C361.4 207.237 361.277 206.863 361.151 206.645C364.03 206.73 365.163 205.146 366.241 203.188Z" fill="black"/>
<path d="M363.001 215.43L363.858 215.755L360.404 223.449C360.143 224.03 360.2 224.197 360.831 224.437C361.136 224.553 362.67 225.135 363.053 225.28C363.674 225.516 363.936 225.166 364.695 223.682C364.844 223.909 365.128 224.187 365.353 224.333C364.454 225.982 363.941 226.479 362.768 226.034C362.475 225.922 360.704 225.25 360.445 225.152C359.26 224.702 359.039 224.254 359.551 223.114L363.001 215.43ZM366.458 218.757L366.78 219.656C365.255 220.084 363.219 220.295 361.409 220.445C361.432 220.247 361.384 219.914 361.334 219.701C363.09 219.554 365.136 219.202 366.458 218.757ZM361.081 214.592L361.792 215.153C360.127 216.657 357.977 217.917 356.062 218.537C356.056 218.316 355.978 217.813 355.892 217.562C357.652 217.053 359.601 215.948 361.081 214.592ZM358.58 216.81L359.743 216.366L359.75 216.381L356.425 223.784L355.591 223.467L358.58 216.81Z" fill="black"/>
<path d="M352.831 239.374L356.553 240.787L356.245 241.471L352.524 240.059L352.831 239.374ZM356.703 232.191L359.681 233.321L359.378 233.995L356.4 232.865L356.703 232.191ZM353.705 236.575L358.137 238.257L356.475 241.959L355.663 241.651L357.023 238.623L354.181 237.544L352.807 240.603L352.029 240.308L353.705 236.575ZM359.376 233.205L359.523 233.261L359.695 233.29L360.143 233.703C358.129 235.924 355.302 236.841 352.781 236.868C352.759 236.653 352.655 236.298 352.551 236.088C354.864 236.141 357.609 235.229 359.316 233.34L359.376 233.205ZM357.374 231.195L358.107 231.68C356.967 232.898 355.541 233.898 354.218 234.403C354.143 234.217 353.928 233.844 353.776 233.653C355.05 233.226 356.373 232.308 357.374 231.195ZM356.478 232.603C356.467 234.334 357.177 236.691 359.126 238.377C358.881 238.454 358.509 238.665 358.307 238.819C356.398 237.015 355.752 234.573 355.735 232.818L356.478 232.603ZM349.589 233.629L350.299 233.899L348.609 237.663L347.899 237.393L349.589 233.629ZM351.909 230.432L351.09 232.257L353.21 233.062L354.029 231.237L351.909 230.432ZM351.461 229.461L355.126 230.852L353.692 234.046L350.027 232.654L351.461 229.461ZM351.771 232.916L352.537 233.207L350.41 237.946L349.643 237.655L351.771 232.916ZM347.35 237.088C348.559 237.304 350.414 237.583 352.196 237.847L351.963 238.572C350.26 238.338 348.473 238.084 347.168 237.905L347.35 237.088ZM351.212 234.864L353.119 235.588L352.807 236.282L350.901 235.559L351.212 234.864Z" fill="black"/>
<path d="M252.443 84.0811L261.508 87.5876L259.279 92.4577L258.402 92.1184L260.281 88.0134L252.936 85.1725L251.034 89.3292L250.191 89.0029L252.443 84.0811ZM251.284 87.7707L259.528 90.9596L259.183 91.7145L250.939 88.5255L251.284 87.7707ZM257.362 83.8051L258.239 84.1445L253.89 93.6469L253.013 93.3075L257.362 83.8051Z" fill="black"/>
<path d="M266.135 88.9029L275.189 92.4051L274.867 93.1082L265.813 89.606L266.135 88.9029ZM265.992 90.661L273.989 93.7543L273.681 94.4264L265.685 91.3331L265.992 90.661ZM264.27 91.8205L274.224 95.6707L273.902 96.3739L263.949 92.5236L264.27 91.8205ZM263.434 93.4444L273.579 97.3686L273.262 98.0614L263.117 94.1372L263.434 93.4444ZM270.027 90.8707L270.893 91.2057L269.426 94.4111L268.56 94.0761L270.027 90.8707ZM268.114 88.281L268.973 88.2846C269.214 88.8281 269.362 89.5181 269.366 89.9703L268.428 89.9966C268.461 89.5471 268.339 88.8305 268.114 88.281ZM273.528 90.0466L274.28 90.6297C273.703 90.9662 273.048 91.2971 272.566 91.5122L271.932 90.9872C272.431 90.7662 273.112 90.3481 273.528 90.0466ZM268.486 94.1207L269.375 94.4644C267.964 96.7665 266.509 97.8344 262.197 96.8723C262.219 96.6497 262.163 96.2509 262.082 96.0245C266.115 96.9884 267.292 96.093 268.486 94.1207ZM269.031 95.8526C268.99 97.5895 270.182 98.8903 272.546 100.06C272.279 100.152 271.902 100.396 271.702 100.574C269.246 99.2584 268.114 97.7982 268.188 95.6972L269.031 95.8526Z" fill="black"/>
<path d="M281.302 102.997L285.014 104.433L284.701 105.115L280.99 103.68L281.302 102.997ZM285.227 95.838L288.196 96.9865L287.889 97.6586L284.92 96.5101L285.227 95.838ZM282.197 100.203L286.617 101.913L284.928 105.604L284.118 105.291L285.5 102.272L282.665 101.176L281.269 104.226L280.493 103.926L282.197 100.203ZM287.893 96.8691L288.039 96.9256L288.211 96.9555L288.656 97.3711C286.626 99.5798 283.791 100.479 281.271 100.49C281.251 100.275 281.149 99.9195 281.046 99.7095C283.359 99.7764 286.111 98.8817 287.831 97.0035L287.893 96.8691ZM285.906 94.8469L286.635 95.3359C285.486 96.5464 284.052 97.5376 282.726 98.0347C282.653 97.8481 282.44 97.4738 282.29 97.2817C283.567 96.863 284.896 95.9534 285.906 94.8469ZM285 96.2489C284.975 97.9798 285.668 100.341 287.605 102.04C287.359 102.115 286.985 102.323 286.783 102.476C284.887 100.66 284.259 98.214 284.254 96.4596L285 96.2489ZM278.103 97.2321L278.811 97.5062L277.093 101.26L276.385 100.985L278.103 97.2321ZM280.446 94.0494L279.613 95.8692L281.728 96.6871L282.561 94.8673L280.446 94.0494ZM280.005 93.0754L283.66 94.4894L282.203 97.6741L278.548 96.2601L280.005 93.0754ZM280.289 96.5324L281.054 96.8282L278.892 101.554L278.127 101.258L280.289 96.5324ZM275.838 100.677C277.046 100.9 278.899 101.191 280.679 101.466L280.441 102.189C278.739 101.945 276.954 101.68 275.65 101.492L275.838 100.677ZM279.717 98.4773L281.618 99.2125L281.301 99.9053L279.4 99.1701L279.717 98.4773Z" fill="black"/>
<path d="M153.64 110.222C152.592 111.009 150.908 111.855 149.327 112.242C149.321 111.996 149.246 111.638 149.164 111.412C150.721 111.077 152.525 110.144 153.571 109.246L154.358 109.551C154.567 111.031 155.186 112.804 155.966 113.933C155.708 114.065 155.389 114.27 155.161 114.449C154.428 113.217 153.829 111.488 153.64 110.222ZM155.482 107.819L156.31 107.774C156.674 108.743 157.028 110.023 157.072 110.795L156.159 110.88C156.137 110.117 155.82 108.814 155.482 107.819ZM150.313 111.795L154.879 113.561L153.043 117.573L152.222 117.256L153.731 113.957L150.773 112.813L149.245 116.153L148.458 115.848L150.313 111.795ZM149.356 114.869L153.146 116.335L152.824 117.038L149.034 115.572L149.356 114.869ZM147.224 110.126L148.393 109.568L145.966 114.872L145.19 114.572L147.224 110.126ZM147.171 106.454L150.286 107.659L149.964 108.362L146.849 107.157L147.171 106.454ZM149.475 105.094L150.262 105.398L149.216 107.683L148.429 107.379L149.475 105.094ZM148.318 109.587C148.489 109.994 149.022 111.637 149.121 112.028L148.386 112.389C148.305 111.785 147.915 110.295 147.746 109.768L148.318 109.587ZM150.016 107.555L150.174 107.616L150.35 107.635L150.677 108.078C149.109 109.711 146.864 110.972 145.063 111.493C145.063 111.261 145.01 110.827 144.932 110.651C146.592 110.234 148.659 109.074 149.945 107.71L150.016 107.555ZM149.908 109.643L150.269 110.184C149.719 110.519 149.077 110.879 148.617 111.103L148.334 110.652C148.803 110.408 149.505 109.973 149.908 109.643ZM153.544 106.789L154.252 107.295C153.373 108.087 152.196 108.751 151.203 109.097C151.114 108.916 150.881 108.558 150.741 108.371C151.712 108.101 152.764 107.51 153.544 106.789Z" fill="black"/>
<path d="M165.006 115.094L165.872 115.429C164.681 118.436 165.098 121.373 166.531 121.915C166.884 122.039 167.202 121.663 167.765 120.579C167.896 120.812 168.14 121.089 168.348 121.242C167.513 122.72 166.979 122.989 166.147 122.667C164.066 121.862 163.704 118.46 165.006 115.094ZM160.865 115.378L169.266 118.628L168.935 119.352L160.534 116.102L160.865 115.378ZM157.648 118.271C159.086 118.658 161.385 119.218 163.555 119.741L163.243 120.509C161.181 120.04 158.988 119.508 157.47 119.152L157.648 118.271ZM162.501 110.705L163.356 111.035L159.579 119.286L158.725 118.956L162.501 110.705ZM162.928 110.87L170.497 113.798L169.078 116.9L161.509 113.972L161.84 113.248L168.554 115.845L169.311 114.191L162.597 111.594L162.928 110.87Z" fill="black"/>
<path d="M177.356 117.352L181.158 118.822L180.855 119.484L177.053 118.013L177.356 117.352ZM181.986 118.315L184.831 119.416L184.509 120.119L181.664 119.018L181.986 118.315ZM180.611 121.057L183.704 122.254L183.383 122.957L180.29 121.76L180.611 121.057ZM176.178 119.318L180.43 120.962L180.117 121.645L175.866 120L176.178 119.318ZM179.453 116.617L180.252 116.926L178.529 120.69L177.731 120.381L179.453 116.617ZM175.247 121.526L179.353 123.114L179.04 123.796L174.935 122.208L175.247 121.526ZM177.488 120.883L178.286 121.192L176.549 124.987L175.685 124.823L177.488 120.883ZM173.803 123.9C175.032 124.254 176.898 124.745 178.725 125.208L178.424 125.895C176.676 125.462 174.865 124.993 173.562 124.659L173.803 123.9ZM181.698 121.806L182.519 122.124L180.276 127.025C180.073 127.469 179.874 127.673 179.491 127.67C179.097 127.664 178.552 127.465 177.743 127.152C177.792 126.928 177.847 126.548 177.839 126.277C178.448 126.537 178.977 126.741 179.161 126.8C179.335 126.855 179.394 126.842 179.46 126.697L181.698 121.806ZM176.817 115.609L177.474 116.168C176.535 116.803 175.182 117.387 174.06 117.671C174.023 117.462 173.932 117.11 173.852 116.909C174.87 116.682 176.079 116.152 176.817 115.609ZM174.258 119.464L175.228 119.109L175.315 119.179L172.576 125.166L171.788 124.861L174.258 119.464ZM176.192 117.814L176.848 118.348C175.597 119.373 173.937 120.252 172.519 120.69C172.5 120.5 172.418 120.042 172.337 119.816C173.635 119.466 175.098 118.729 176.192 117.814Z" fill="black"/>
<path d="M231.09 234.588L240.155 238.095L237.927 242.965L237.049 242.626L238.928 238.521L231.584 235.68L229.681 239.836L228.838 239.51L231.09 234.588ZM229.931 238.278L238.175 241.467L237.83 242.222L229.586 239.033L229.931 238.278ZM236.009 234.312L236.886 234.652L232.537 244.154L231.66 243.815L236.009 234.312Z" fill="black"/>
<path d="M242.703 242.622L252.803 246.529L252.453 247.294L242.353 243.387L242.703 242.622ZM245.513 239.693L253.195 242.664L251.482 246.407L250.605 246.068L251.972 243.08L246.012 240.774L244.644 243.762L243.8 243.436L245.513 239.693ZM248.22 244.914C247.984 247.196 248.939 249.099 251.259 250.569C250.992 250.66 250.609 250.889 250.386 251.058C248.029 249.441 247.128 247.388 247.38 244.784L248.22 244.914ZM249.482 239.524L250.337 239.855L248.818 243.174C247.725 245.563 246.048 247.81 240.936 247.439C240.947 247.212 240.864 246.815 240.782 246.589C245.527 246.952 247.003 244.942 247.963 242.843L249.482 239.524Z" fill="black"/>
<path d="M258.127 244.037L267.957 247.839L267.625 248.563L257.796 244.76L258.127 244.037ZM262.996 244.764L263.874 245.103L259.525 254.606L258.648 254.266L262.996 244.764ZM260.026 250.589L260.602 251.152C258.949 252.046 256.539 252.538 254.613 252.523C254.568 252.275 254.447 251.875 254.316 251.641C256.199 251.749 258.55 251.356 260.026 250.589ZM261.439 251.147C261.885 252.659 263.257 254.492 264.685 255.653C264.412 255.729 264.016 255.929 263.781 256.094C262.396 254.84 261.086 252.873 260.62 251.171L261.439 251.147ZM258.206 248.521L257.751 249.514L264.005 251.933L264.459 250.94L258.206 248.521ZM258.925 246.95L258.475 247.932L264.729 250.351L265.178 249.369L258.925 246.95ZM258.383 246.022L266.312 249.089L264.575 252.884L256.646 249.817L258.383 246.022Z" fill="black"/>
<path d="M273.446 258.725L277.157 260.161L276.845 260.843L273.133 259.408L273.446 258.725ZM277.371 251.566L280.34 252.714L280.032 253.387L277.063 252.238L277.371 251.566ZM274.34 255.931L278.76 257.641L277.071 261.332L276.261 261.019L277.643 258L274.809 256.903L273.413 259.954L272.637 259.654L274.34 255.931ZM280.036 252.597L280.182 252.654L280.354 252.683L280.799 253.099C278.769 255.308 275.935 256.207 273.415 256.218C273.394 256.003 273.292 255.647 273.19 255.437C275.502 255.504 278.255 254.61 279.975 252.731L280.036 252.597ZM278.049 250.575L278.779 251.064C277.629 252.274 276.196 253.266 274.869 253.763C274.796 253.576 274.583 253.202 274.433 253.01C275.71 252.591 277.04 251.681 278.049 250.575ZM277.143 251.977C277.119 253.708 277.812 256.069 279.748 257.768C279.502 257.843 279.129 258.051 278.926 258.204C277.031 256.388 276.403 253.942 276.398 252.188L277.143 251.977ZM270.246 252.96L270.955 253.234L269.237 256.988L268.528 256.713L270.246 252.96ZM272.59 249.777L271.757 251.597L273.871 252.415L274.704 250.595L272.59 249.777ZM272.148 248.803L275.804 250.217L274.346 253.402L270.691 251.988L272.148 248.803ZM272.433 252.26L273.198 252.556L271.035 257.281L270.27 256.986L272.433 252.26ZM267.981 256.404C269.189 256.628 271.042 256.919 272.823 257.194L272.584 257.917C270.883 257.673 269.097 257.408 267.793 257.22L267.981 256.404ZM271.861 254.205L273.761 254.94L273.444 255.633L271.543 254.898L271.861 254.205Z" fill="black"/>
<path d="M201.6 294.417L210.665 297.924L208.436 302.794L207.559 302.454L209.438 298.35L202.094 295.509L200.191 299.665L199.348 299.339L201.6 294.417ZM200.441 298.107L208.685 301.296L208.34 302.051L200.096 298.862L200.441 298.107ZM206.519 294.141L207.396 294.481L203.047 303.983L202.17 303.644L206.519 294.141Z" fill="black"/>
<path d="M219.893 299.57L220.781 299.914L217.119 307.917L216.23 307.573L219.893 299.57ZM214.914 300.297L215.768 300.628L212.603 307.545L211.748 307.215L214.914 300.297ZM222.971 303.402L223.837 303.737L220.685 310.623L219.819 310.288L222.971 303.402ZM212.912 305.742L220.931 308.844L220.566 309.64L212.547 306.538L212.912 305.742Z" fill="black"/>
<path d="M230.459 313.333L234.171 314.769L233.858 315.451L230.147 314.016L230.459 313.333ZM234.384 306.174L237.354 307.323L237.046 307.995L234.077 306.846L234.384 306.174ZM231.354 310.539L235.774 312.249L234.085 315.941L233.275 315.627L234.657 312.608L231.822 311.512L230.426 314.562L229.65 314.262L231.354 310.539ZM237.05 307.205L237.196 307.262L237.368 307.292L237.813 307.707C235.783 309.916 232.949 310.815 230.428 310.826C230.408 310.611 230.306 310.256 230.203 310.046C232.516 310.113 235.268 309.218 236.988 307.34L237.05 307.205ZM235.063 305.183L235.792 305.672C234.643 306.882 233.209 307.874 231.883 308.371C231.81 308.184 231.597 307.81 231.447 307.618C232.724 307.199 234.054 306.29 235.063 305.183ZM234.157 306.585C234.132 308.316 234.825 310.677 236.762 312.376C236.516 312.451 236.142 312.659 235.94 312.812C234.044 310.996 233.416 308.55 233.411 306.796L234.157 306.585ZM227.26 307.568L227.968 307.842L226.251 311.596L225.542 311.322L227.26 307.568ZM229.603 304.385L228.77 306.205L230.885 307.023L231.718 305.203L229.603 304.385ZM229.162 303.412L232.817 304.825L231.36 308.01L227.705 306.596L229.162 303.412ZM229.447 306.868L230.211 307.164L228.049 311.89L227.284 311.594L229.447 306.868ZM224.995 311.013C226.203 311.237 228.056 311.527 229.836 311.802L229.598 312.525C227.896 312.281 226.111 312.016 224.807 311.828L224.995 311.013ZM228.874 308.813L230.775 309.549L230.458 310.241L228.557 309.506L228.874 308.813Z" fill="black"/>
<path d="M191.354 375.762L390.751 305.525L392.934 310.762L193.537 381L191.354 375.762Z" fill="white"/>
<path fill-rule="evenodd" clip-rule="evenodd" d="M390.165 306.732L192.668 376.301L194.123 379.793L391.621 310.224L390.165 306.732ZM191.354 375.762L193.537 381L392.934 310.762L390.751 305.525L191.354 375.762Z" fill="black"/>
<path d="M201.214 373.291L212.608 369.277L214.063 372.769L202.669 376.782L201.214 373.291Z" fill="black"/>
<path d="M222.103 365.932L233.497 361.919L234.952 365.411L223.558 369.424L222.103 365.932Z" fill="black"/>
<path d="M242.991 358.574L254.385 354.561L255.84 358.053L244.446 362.066L242.991 358.574Z" fill="black"/>
<path d="M263.881 351.216L275.275 347.202L276.73 350.694L265.336 354.708L263.881 351.216Z" fill="black"/>
<path d="M284.771 343.858L296.165 339.844L297.62 343.336L286.226 347.349L284.771 343.858Z" fill="black"/>
<path d="M305.659 336.5L317.053 332.486L318.508 335.978L307.114 339.991L305.659 336.5Z" fill="black"/>
<path d="M326.549 329.141L337.943 325.128L339.398 328.62L328.004 332.633L326.549 329.141Z" fill="black"/>
<path d="M347.437 321.783L358.831 317.769L360.286 321.261L348.892 325.275L347.437 321.783Z" fill="black"/>
<path d="M368.327 314.425L379.721 310.411L381.176 313.903L369.782 317.917L368.327 314.425Z" fill="black"/>
<path d="M298.12 343.385C298.12 347.774 294.25 351.331 289.477 351.331C284.704 351.331 280.834 347.774 280.834 343.385C280.834 338.997 284.704 335.439 289.477 335.439C294.25 335.439 298.12 338.997 298.12 343.385Z" fill="white"/>
<path fill-rule="evenodd" clip-rule="evenodd" d="M289.477 350.396C293.689 350.396 297.103 347.257 297.103 343.385C297.103 339.513 293.689 336.374 289.477 336.374C285.265 336.374 281.851 339.513 281.851 343.385C281.851 347.257 285.265 350.396 289.477 350.396ZM289.477 351.331C294.25 351.331 298.12 347.774 298.12 343.385C298.12 338.997 294.25 335.439 289.477 335.439C284.704 335.439 280.834 338.997 280.834 343.385C280.834 347.774 284.704 351.331 289.477 351.331Z" fill="black"/>
<path d="M189.86 162.789C179.857 147.342 178 145.757 178 140.08C178 132.304 183.918 126 191.219 126C198.519 126 204.437 132.304 204.437 140.08C204.437 145.757 202.58 147.342 192.577 162.789C191.921 163.799 190.517 163.799 189.86 162.789ZM191.219 145.947C194.26 145.947 196.726 143.32 196.726 140.08C196.726 136.84 194.26 134.213 191.219 134.213C188.177 134.213 185.711 136.84 185.711 140.08C185.711 143.32 188.177 145.947 191.219 145.947Z" fill="#FFC898"/>
<path d="M197.455 140.06C197.455 143.158 194.723 145.669 191.354 145.669C187.984 145.669 185.253 143.158 185.253 140.06C185.253 136.963 187.984 134.451 191.354 134.451C194.723 134.451 197.455 136.963 197.455 140.06Z" fill="white"/>
<path d="M263.553 373.447C262.065 369.825 264.053 365.779 267.993 364.411L326.969 343.932C330.909 342.564 335.31 344.392 336.798 348.014C338.286 351.637 336.298 355.682 332.358 357.05L273.382 377.529C269.442 378.897 265.041 377.07 263.553 373.447Z" fill="white"/>
<path d="M268.172 368.414L277.372 365.219L279.403 370.162L278.513 370.471L276.801 366.305L269.347 368.893L271.08 373.112L270.224 373.409L268.172 368.414ZM270.095 371.823L278.462 368.918L278.776 369.684L270.409 372.589L270.095 371.823ZM271.533 365.1L272.423 364.791L276.385 374.436L275.495 374.745L271.533 365.1Z" fill="black"/>
<path d="M281.638 364.553L284.583 363.531L284.876 364.244L281.931 365.267L281.638 364.553ZM281.765 361.655L282.541 361.386L285.274 368.039L284.498 368.309L281.765 361.655ZM283.219 368.909C283.921 368.365 284.939 367.508 285.94 366.645L286.408 367.274C285.519 368.062 284.57 368.896 283.826 369.562L283.219 368.909ZM286.105 363.362L288.81 362.423L289.052 363.01L286.346 363.95L286.105 363.362ZM289.061 362.335L291.972 361.325L292.213 361.912L289.303 362.923L289.061 362.335ZM287.894 369.432L294.56 367.117L294.832 367.778L288.166 370.093L287.894 369.432ZM290.633 366.383L293.121 365.519L293.388 366.169L290.9 367.033L290.633 366.383ZM284.451 361.082L291.06 358.787L291.336 359.459L284.727 361.754L284.451 361.082ZM289.802 365.472L290.567 365.206L291.882 368.407L291.117 368.673L289.802 365.472ZM288.103 366.829L288.856 366.568L289.895 369.097L289.142 369.358L288.103 366.829ZM289.616 360.86L290.244 360.642L291.886 364.64L291.258 364.858L289.616 360.86ZM286.774 361.847L287.39 361.633L289.033 365.631L288.416 365.845L286.774 361.847ZM287.327 363.225L287.807 363.251C287.831 364.166 287.677 365.346 287.329 366.055C287.198 365.896 286.931 365.689 286.767 365.578C287.09 364.999 287.325 363.982 287.327 363.225ZM290.178 362.26L290.674 362.291C290.667 363.229 290.411 364.445 290.028 365.165C289.902 365.017 289.643 364.831 289.492 364.716C289.844 364.114 290.154 363.059 290.178 362.26ZM288.064 363.401C288.319 363.481 289.232 363.799 289.457 363.901L289.337 364.53C289.046 364.331 288.187 363.922 287.861 363.795L288.064 363.401ZM284.063 361.217L284.839 360.948L286.296 364.495C287.003 366.216 287.819 368.678 287.222 370.685C287.045 370.602 286.623 370.497 286.406 370.476C286.961 368.557 286.184 366.38 285.52 364.764L284.063 361.217ZM287.564 361.009L288.277 361.253C287.756 361.793 286.896 362.368 286.146 362.796C286.049 362.686 285.876 362.518 285.74 362.41C286.428 361.991 287.208 361.444 287.564 361.009ZM290.505 359.976L291.257 360.218C290.701 360.771 289.784 361.365 288.984 361.799C288.903 361.695 288.714 361.521 288.582 361.423C289.316 360.988 290.137 360.415 290.505 359.976ZM290.882 362.099C291.493 362.666 292.458 363.302 293.099 363.56C292.989 363.706 292.864 363.941 292.795 364.121C292.158 363.778 291.161 363.033 290.54 362.41L290.882 362.099Z" fill="black"/>
<path d="M296.87 358.737L297.783 358.611C298.107 359.938 298.244 361.353 297.522 362.42L296.59 362.215C297.24 361.258 297.17 359.976 296.87 358.737ZM304.034 356.237L305.096 356.252C304.942 357.433 304.699 358.872 304.427 359.83L303.583 359.775C303.823 358.805 304.021 357.285 304.034 356.237ZM299.415 355.599L299.872 355.44L301.268 358.84C301.764 360.047 303.765 362.662 308.251 362.567C308.142 362.809 308.013 363.225 307.983 363.5C304.194 363.484 302.083 361.459 301.437 360.52C301.631 361.628 301.554 364.329 298.816 366.683C298.629 366.544 298.214 366.328 297.951 366.228C301.246 363.549 300.855 360.375 300.355 359.157L298.958 355.757L299.415 355.599Z" fill="black"/>
<path d="M308.742 353.283L318.262 349.978L318.559 350.702L309.039 354.007L308.742 353.283ZM311.035 359.85L321.297 356.286L321.594 357.011L311.333 360.574L311.035 359.85ZM312.641 350.838L313.52 350.533L317.495 360.209L316.616 360.514L312.641 350.838ZM311.986 356.546L312.435 357.637L318.61 355.493L318.162 354.401L311.986 356.546ZM311.292 354.856L311.732 355.926L317.907 353.782L317.468 352.712L311.292 354.856ZM310.199 354.48L318.052 351.753L319.733 355.846L311.88 358.573L310.199 354.48Z" fill="black"/>
<path d="M322.604 349.753L327.01 348.223L327.316 348.968L322.91 350.498L322.604 349.753ZM323.617 347.171L324.428 346.889L325.385 349.219L324.574 349.501L323.617 347.171ZM329.674 347.406L332.95 346.268L333.256 347.013L329.98 348.151L329.674 347.406ZM330.268 354.311L334.582 352.813L334.888 353.558L330.574 355.056L330.268 354.311ZM328.344 345.374L329.211 345.072L331.41 350.425L330.543 350.726L328.344 345.374ZM328.48 351.07L333.628 349.283L335.508 353.858L334.64 354.159L333.062 350.319L329.615 351.516L331.21 355.398L330.377 355.688L328.48 351.07ZM324.685 355.422C325.775 354.804 327.431 353.821 329.004 352.855L329.393 353.547C327.919 354.467 326.339 355.447 325.191 356.145L324.685 355.422ZM323.568 350.893L324.217 350.536C324.992 351.598 325.799 353.021 326.24 354.031L325.534 354.408C325.14 353.417 324.309 351.967 323.568 350.893ZM326.133 349.739L327.038 349.592C327.371 350.976 327.757 352.772 327.906 353.896L327.138 353.995C326.973 352.864 326.523 351.006 326.133 349.739Z" fill="black"/>
</svg>
